{"glyphs":{"0":{"ha":681,"x_min":0,"x_max":0,"o":"m 363 114 b 576 622 450 114 576 321 b 486 808 576 761 544 808 b 271 301 399 808 271 632 b 363 114 271 168 303 114 m 332 -32 b 86 307 175 -32 86 75 b 506 953 86 683 235 953 b 757 618 664 953 757 850 b 332 -32 757 264 594 -32 "},"1":{"ha":411,"x_min":0,"x_max":0,"o":"m 194 0 l 307 638 l 118 638 l 140 763 b 390 922 299 763 361 815 l 538 922 l 375 0 "},"2":{"ha":646,"x_min":0,"x_max":0,"o":"m 6 0 b 364 458 38 171 99 289 b 576 704 556 581 576 640 b 467 799 576 776 529 799 b 304 635 385 799 325 758 l 131 635 b 486 953 165 833 297 953 b 757 732 651 953 757 879 b 421 322 757 590 682 489 b 264 157 340 271 276 204 l 661 157 l 633 0 "},"3":{"ha":665,"x_min":0,"x_max":0,"o":"m 351 540 b 565 704 507 540 565 636 b 467 808 565 779 535 808 b 317 657 397 808 335 753 l 149 657 b 499 953 181 833 324 953 b 744 738 642 953 744 865 b 596 494 744 644 692 544 b 699 315 661 465 699 403 b 315 -32 699 106 533 -32 b 58 200 149 -32 58 54 b 65 271 58 222 61 246 l 239 271 b 233 218 236 251 233 233 b 350 117 233 142 275 117 b 513 303 438 117 513 188 b 329 414 513 390 458 414 "},"4":{"ha":661,"x_min":0,"x_max":0,"o":"m 486 667 l 239 342 l 428 342 m 364 0 l 400 201 l 42 201 l 68 358 l 504 922 l 707 922 l 604 342 l 708 342 l 685 201 l 581 201 l 544 0 "},"5":{"ha":681,"x_min":0,"x_max":0,"o":"m 356 769 l 303 522 b 499 588 361 574 431 588 b 719 353 629 588 719 501 b 338 -32 719 129 551 -32 b 75 200 183 -32 75 63 b 78 238 75 213 76 225 l 258 238 b 257 217 257 231 257 224 b 364 115 257 147 297 115 b 536 326 496 115 536 225 b 432 442 536 411 503 442 b 289 363 367 442 324 414 l 103 363 l 221 922 l 789 922 l 763 769 "},"6":{"ha":676,"x_min":0,"x_max":0,"o":"m 361 114 b 526 328 461 114 526 215 b 421 461 526 433 486 461 b 249 251 326 461 249 375 b 361 114 249 163 288 114 m 581 722 b 499 808 581 778 561 808 b 257 490 400 808 297 726 b 494 603 314 567 382 603 b 708 358 619 603 708 511 b 339 -32 708 140 546 -32 b 81 294 165 -32 81 83 b 532 953 81 593 200 953 b 760 722 686 953 760 869 "},"7":{"ha":664,"x_min":0,"x_max":0,"o":"m 132 0 b 585 763 200 265 350 539 l 140 763 l 168 922 l 814 922 l 789 783 b 324 0 542 554 386 276 "},"8":{"ha":688,"x_min":0,"x_max":0,"o":"m 361 117 b 525 301 478 117 525 199 b 414 414 525 378 490 414 b 253 229 300 414 253 333 b 361 117 253 144 285 117 m 439 557 b 576 708 528 557 576 624 b 482 806 576 781 546 806 b 344 654 393 806 344 739 b 439 557 344 586 375 557 m 611 504 b 711 311 675 474 711 394 b 336 -32 711 128 585 -32 b 61 213 150 -32 61 75 b 253 496 61 340 126 440 b 179 654 199 526 179 593 b 510 953 179 825 331 953 b 747 746 669 953 747 864 b 611 504 747 665 711 551 "},"9":{"ha":676,"x_min":0,"x_max":0,"o":"m 413 460 b 585 669 507 460 585 546 b 472 807 585 758 546 807 b 307 593 372 807 307 706 b 413 460 307 488 347 460 m 253 199 b 335 113 253 143 272 113 b 576 431 433 113 536 194 b 339 318 519 354 451 318 b 125 563 214 318 125 410 b 494 953 125 781 288 953 b 753 626 668 953 753 838 b 301 -32 753 328 633 -32 b 74 199 147 -32 74 51 "},"\u0017":{"ha":335,"x_min":0,"x_max":0,"o":""}," ":{"ha":335,"x_min":0,"x_max":0,"o":""},"!":{"ha":340,"x_min":0,"x_max":0,"o":"m 72 0 l 104 182 l 292 182 l 260 0 m 164 256 b 211 824 165 476 185 668 b 235 922 218 861 224 894 l 426 922 b 260 256 411 754 353 529 "},"\"":{"ha":401,"x_min":0,"x_max":0,"o":"m 335 575 l 396 922 l 519 922 l 458 575 m 133 575 l 194 922 l 318 922 l 257 575 "},"#":{"ha":696,"x_min":0,"x_max":0,"o":"m 506 542 l 383 542 l 332 381 l 456 381 m 336 0 l 419 263 l 297 263 l 218 0 l 100 0 l 179 263 l 58 263 l 92 381 l 215 381 l 265 542 l 144 542 l 179 660 l 301 660 l 383 922 l 499 922 l 418 660 l 542 660 l 621 922 l 740 922 l 660 660 l 782 660 l 744 542 l 624 542 l 574 381 l 696 381 l 661 263 l 538 263 l 457 0 "},"$":{"ha":672,"x_min":0,"x_max":0,"o":"m 389 115 b 526 250 468 119 526 182 b 432 361 526 313 492 346 m 449 776 b 318 656 371 772 318 718 b 410 556 318 599 349 564 m 297 -76 l 307 -22 b 60 189 136 -7 60 54 b 68 276 60 215 63 244 l 235 276 b 231 224 232 256 231 239 b 332 115 231 146 265 125 l 379 383 b 146 606 226 426 146 486 b 472 914 146 772 296 911 l 483 975 l 540 975 l 529 914 b 756 700 678 908 756 836 b 751 644 756 682 754 664 l 588 644 b 590 686 589 660 590 674 b 506 776 590 757 557 772 l 463 538 b 706 311 653 471 706 410 b 364 -22 706 115 561 -12 l 354 -76 "},"%":{"ha":929,"x_min":0,"x_max":0,"o":"m 92 -28 l 906 950 l 1000 950 l 185 -28 m 756 43 b 851 215 800 43 829 90 b 863 315 858 257 863 289 b 817 390 863 368 847 390 b 721 217 774 390 743 344 b 710 118 714 176 710 144 b 756 43 710 64 726 43 m 740 -31 b 617 122 663 -31 617 17 b 626 218 617 150 619 182 b 826 463 657 392 728 463 b 953 313 906 463 953 418 b 740 -31 953 79 846 -31 m 279 533 b 375 706 324 533 353 581 b 386 806 382 747 386 779 b 340 881 386 858 371 881 b 244 707 297 881 267 835 b 233 608 238 667 233 635 b 279 533 233 554 250 533 m 264 460 b 140 613 186 460 140 507 b 150 708 140 640 143 672 b 350 953 181 882 251 953 b 476 803 429 953 476 908 b 264 460 476 569 369 460 "},"&":{"ha":701,"x_min":0,"x_max":0,"o":"m 586 529 l 760 529 l 717 281 b 350 -32 683 93 532 -32 b 65 213 164 -32 65 72 b 219 471 65 319 140 439 b 142 622 167 501 142 554 b 539 922 142 801 313 922 l 513 771 b 318 622 354 771 318 717 b 469 529 318 550 364 529 l 447 399 b 244 235 322 399 244 342 b 375 117 244 150 283 117 b 543 281 467 117 525 174 "},"'":{"ha":201,"x_min":0,"x_max":0,"o":"m 133 575 l 194 922 l 318 922 l 257 575 "},"(":{"ha":453,"x_min":0,"x_max":0,"o":"m 281 -199 b 151 282 194 -69 151 114 b 493 1011 151 542 264 796 l 625 1011 b 333 251 433 764 333 522 b 413 -199 333 85 360 -65 "},")":{"ha":453,"x_min":0,"x_max":0,"o":"m -24 -199 b 271 574 169 61 271 310 b 189 1011 271 750 244 883 l 321 1011 b 453 550 411 883 453 708 b 108 -199 453 281 325 17 "},"*":{"ha":749,"x_min":0,"x_max":0,"o":"m 621 274 l 485 453 l 353 274 l 228 361 l 361 550 l 158 614 l 204 754 l 403 690 l 403 922 l 567 922 l 567 690 l 765 754 l 815 614 l 610 550 l 743 361 "},"+":{"ha":726,"x_min":0,"x_max":0,"o":"m 496 411 l 450 149 l 319 149 l 365 411 l 104 411 l 128 542 l 389 542 l 435 803 l 565 803 l 519 542 l 782 542 l 758 411 "},",":{"ha":260,"x_min":0,"x_max":0,"o":"m 6 -147 b 139 0 81 -129 122 -87 l 32 0 l 65 188 l 257 188 l 232 46 b -7 -217 204 -111 143 -186 "},"-":{"ha":389,"x_min":0,"x_max":0,"o":"m 81 357 l 106 497 l 450 497 l 425 357 "},".":{"ha":260,"x_min":0,"x_max":0,"o":"m 32 0 l 65 188 l 258 188 l 225 0 "},"/":{"ha":417,"x_min":0,"x_max":0,"o":"m -7 0 l 419 922 l 571 922 l 142 0 "},":":{"ha":238,"x_min":0,"x_max":0,"o":"m 19 0 l 53 188 l 244 188 l 211 0 m 103 471 l 135 657 l 326 657 l 294 471 "},";":{"ha":243,"x_min":0,"x_max":0,"o":"m -12 -147 b 121 0 63 -129 104 -87 l 14 0 l 47 188 l 239 188 l 214 46 b -25 -217 186 -111 125 -186 m 97 471 l 129 657 l 321 657 l 289 471 "},"<":{"ha":726,"x_min":0,"x_max":0,"o":"m 104 411 l 128 542 l 831 819 l 806 675 l 263 476 l 735 278 l 710 133 "},"=":{"ha":726,"x_min":0,"x_max":0,"o":"m 129 550 l 151 681 l 806 681 l 783 550 m 81 272 l 103 403 l 757 403 l 735 272 "},">":{"ha":726,"x_min":0,"x_max":0,"o":"m 56 133 l 81 278 l 622 476 l 151 675 l 176 819 l 782 542 l 758 411 "},"?":{"ha":682,"x_min":0,"x_max":0,"o":"m 249 0 l 281 182 l 468 182 l 436 0 m 301 268 b 401 492 321 378 344 436 b 588 708 478 565 588 581 b 479 806 588 790 539 806 b 317 654 381 806 343 747 l 138 654 b 501 953 169 838 315 953 b 785 742 678 953 785 889 b 597 456 785 608 728 543 b 471 268 504 393 485 350 "},"@":{"ha":983,"x_min":0,"x_max":0,"o":"m 504 214 b 683 456 606 214 683 335 b 604 544 683 521 656 544 b 417 300 503 544 417 456 b 504 214 417 239 442 214 m 893 -21 b 485 -115 832 -67 699 -115 b 75 274 211 -115 75 46 b 664 869 75 604 313 869 b 1053 542 882 869 1053 772 b 738 100 1053 263 871 100 b 633 183 679 100 639 132 b 464 104 596 133 529 104 b 299 288 344 104 299 190 b 618 647 299 476 435 647 b 739 560 683 647 729 618 l 769 633 l 878 633 l 746 290 b 738 250 740 275 738 261 b 769 214 738 228 747 214 b 947 522 832 214 947 321 b 646 775 947 719 833 775 b 185 293 365 775 185 526 b 513 -11 185 78 301 -11 b 865 60 674 -11 800 17 "},"A":{"ha":893,"x_min":0,"x_max":0,"o":"m 575 715 l 574 715 l 390 349 l 625 349 m 678 0 l 653 190 l 313 190 l 214 0 l 4 0 l 496 922 l 719 922 l 882 0 "},"B":{"ha":797,"x_min":0,"x_max":0,"o":"m 289 406 l 246 157 l 490 157 b 657 311 590 157 657 226 b 536 406 657 386 613 406 m 353 763 l 317 563 l 560 563 b 697 685 649 563 697 607 b 585 763 697 747 663 763 m 32 0 l 194 922 l 649 922 b 888 717 807 922 888 843 b 739 499 888 607 818 529 b 846 324 800 474 846 422 b 447 0 846 132 713 0 "},"C":{"ha":851,"x_min":0,"x_max":0,"o":"m 900 317 b 442 -32 825 107 656 -32 b 89 350 233 -32 89 101 b 618 953 89 706 306 953 b 956 649 836 953 956 821 b 954 619 956 639 954 629 l 761 619 b 590 786 754 744 682 786 b 288 369 383 786 288 600 b 465 136 288 197 346 136 b 707 317 579 136 661 201 "},"D":{"ha":843,"x_min":0,"x_max":0,"o":"m 407 157 b 713 557 638 157 713 332 b 497 763 713 719 647 763 l 354 763 l 247 157 m 32 0 l 194 922 l 551 922 b 910 556 769 922 910 783 b 418 0 910 242 696 0 "},"E":{"ha":739,"x_min":0,"x_max":0,"o":"m 32 0 l 194 922 l 872 922 l 844 761 l 354 761 l 319 564 l 771 564 l 742 401 l 290 401 l 249 164 l 761 164 l 732 0 "},"F":{"ha":701,"x_min":0,"x_max":0,"o":"m 293 389 l 225 0 l 32 0 l 194 922 l 851 922 l 824 761 l 360 761 l 322 551 l 728 551 l 699 389 "},"G":{"ha":914,"x_min":0,"x_max":0,"o":"m 719 0 l 732 92 b 433 -32 674 14 560 -32 b 93 376 213 -32 93 160 b 643 953 93 678 296 953 b 992 668 850 953 992 836 b 990 638 992 658 992 647 l 796 638 l 796 649 b 615 793 796 743 717 793 b 292 390 428 793 292 631 b 497 131 292 232 349 131 b 758 342 624 131 739 226 l 554 342 l 582 496 l 967 496 l 879 0 "},"H":{"ha":815,"x_min":0,"x_max":0,"o":"m 585 0 l 658 414 l 299 414 l 225 0 l 32 0 l 194 922 l 388 922 l 326 575 l 686 575 l 747 922 l 942 922 l 779 0 "},"I":{"ha":260,"x_min":0,"x_max":0,"o":"m 32 0 l 194 922 l 388 922 l 225 0 "},"J":{"ha":631,"x_min":0,"x_max":0,"o":"m 563 922 l 756 922 l 638 249 b 285 -32 608 81 482 -32 b 43 181 131 -32 43 40 b 50 254 43 204 46 228 l 67 349 l 242 349 l 228 264 b 221 206 224 240 221 221 b 313 125 221 144 250 125 b 447 267 401 125 429 165 "},"K":{"ha":839,"x_min":0,"x_max":0,"o":"m 604 0 l 403 418 l 278 314 l 222 0 l 32 0 l 194 922 l 385 922 l 321 556 l 732 922 l 988 922 l 560 558 l 833 0 "},"L":{"ha":696,"x_min":0,"x_max":0,"o":"m 32 0 l 194 922 l 388 922 l 254 168 l 711 168 l 682 0 "},"M":{"ha":965,"x_min":0,"x_max":0,"o":"m 746 0 l 857 632 l 574 0 l 382 0 l 322 629 l 211 0 l 32 0 l 194 922 l 472 922 l 519 246 l 806 922 l 1089 922 l 926 0 "},"N":{"ha":821,"x_min":0,"x_max":0,"o":"m 611 0 l 321 619 l 211 0 l 32 0 l 194 922 l 393 922 l 661 329 l 765 922 l 946 922 l 783 0 "},"O":{"ha":931,"x_min":0,"x_max":0,"o":"m 488 133 b 803 538 654 133 803 263 b 601 782 803 718 733 782 b 281 365 397 782 281 615 b 488 133 281 190 356 133 m 458 -32 b 89 344 218 -32 89 104 b 632 953 89 704 293 953 b 996 563 871 953 996 807 b 458 -32 996 189 801 -32 "},"P":{"ha":742,"x_min":0,"x_max":0,"o":"m 494 492 b 679 653 625 492 679 565 b 543 763 679 732 639 763 l 360 763 l 311 492 m 32 0 l 194 922 l 601 922 b 850 672 760 922 850 814 b 497 335 850 482 703 335 l 283 335 l 225 0 "},"Q":{"ha":932,"x_min":0,"x_max":0,"o":"m 919 -19 b 585 -324 888 -196 747 -324 b 365 -106 451 -324 365 -236 b 374 -25 365 -86 367 -62 b 89 344 188 3 89 133 b 632 953 89 704 293 953 b 996 563 871 953 996 807 b 553 -26 996 225 838 11 b 550 -65 551 -40 550 -54 b 631 -156 550 -137 582 -156 b 750 -19 683 -156 733 -110 m 488 133 b 803 538 654 133 803 263 b 601 782 803 718 733 782 b 281 365 397 782 281 615 b 488 133 281 190 356 133 "},"R":{"ha":803,"x_min":0,"x_max":0,"o":"m 354 763 l 311 517 l 553 517 b 718 664 674 517 718 583 b 603 763 718 742 685 763 m 569 0 l 611 238 b 615 282 614 254 615 269 b 489 361 615 344 581 361 l 283 361 l 219 0 l 32 0 l 194 922 l 663 922 b 904 697 814 922 904 828 b 724 442 904 582 836 479 b 811 325 783 421 811 389 b 804 261 811 307 808 285 l 758 0 "},"S":{"ha":782,"x_min":0,"x_max":0,"o":"m 669 650 b 671 672 669 657 671 665 b 508 790 671 765 618 790 b 324 665 388 790 324 744 b 449 563 324 619 363 583 b 708 482 561 535 640 513 b 817 300 771 453 817 404 b 413 -32 817 82 622 -32 b 53 219 172 -32 53 54 b 57 276 53 238 54 256 l 243 276 b 240 246 242 265 240 256 b 415 124 240 158 314 124 b 625 269 549 124 625 181 b 501 374 625 317 597 353 b 143 633 253 428 143 475 b 538 953 143 813 281 953 b 856 697 740 953 856 853 b 853 650 856 682 854 665 "},"T":{"ha":769,"x_min":0,"x_max":0,"o":"m 283 0 l 418 761 l 140 761 l 168 922 l 918 922 l 890 761 l 611 761 l 476 0 "},"U":{"ha":814,"x_min":0,"x_max":0,"o":"m 740 922 l 938 922 l 829 307 b 390 -32 790 83 632 -32 b 76 217 194 -32 76 49 b 85 296 76 240 79 268 l 194 922 l 390 922 l 283 314 b 278 256 279 293 278 274 b 415 128 278 165 328 128 b 632 307 539 128 611 186 "},"V":{"ha":824,"x_min":0,"x_max":0,"o":"m 317 0 l 167 922 l 367 922 l 454 275 l 768 922 l 974 922 l 499 0 "},"W":{"ha":1189,"x_min":0,"x_max":0,"o":"m 735 0 l 697 600 l 446 0 l 265 0 l 167 922 l 367 922 l 413 325 l 646 922 l 849 922 l 883 325 l 1139 922 l 1342 922 l 921 0 "},"X":{"ha":840,"x_min":0,"x_max":0,"o":"m 597 0 l 476 317 l 235 0 l 6 0 l 388 471 l 185 922 l 408 922 l 522 624 l 743 922 l 971 922 l 613 479 l 828 0 "},"Y":{"ha":836,"x_min":0,"x_max":0,"o":"m 324 0 l 385 349 l 167 922 l 388 922 l 515 547 l 761 922 l 988 922 l 578 346 l 517 0 "},"Z":{"ha":739,"x_min":0,"x_max":0,"o":"m 6 0 l 35 164 l 614 761 l 154 761 l 182 922 l 889 922 l 863 771 l 279 164 l 756 164 l 726 0 "},"[":{"ha":443,"x_min":0,"x_max":0,"o":"m 68 -181 l 276 999 l 593 999 l 571 875 l 414 875 l 249 -60 l 406 -60 l 385 -181 "},"\\":{"ha":408,"x_min":0,"x_max":0,"o":"m 260 0 l 156 922 l 307 922 l 408 0 "},"]":{"ha":439,"x_min":0,"x_max":0,"o":"m -18 -181 l 3 -60 l 163 -60 l 328 875 l 168 875 l 190 999 l 510 999 l 301 -181 "},"^":{"ha":638,"x_min":0,"x_max":0,"o":"m 538 657 l 458 778 l 332 657 l 136 657 l 413 922 l 542 922 l 726 657 "},"_":{"ha":664,"x_min":0,"x_max":0,"o":"m -31 -175 l -17 -94 l 657 -94 l 643 -175 "},"`":{"ha":489,"x_min":0,"x_max":0,"o":"m 228 900 l 314 1014 l 571 846 l 515 769 "},"a":{"ha":675,"x_min":0,"x_max":0,"o":"m 510 335 b 386 294 489 317 456 307 b 231 172 257 271 231 236 b 311 111 231 129 264 111 b 496 260 399 111 481 179 m 464 0 b 461 29 463 8 461 18 b 464 61 461 39 463 50 b 243 -18 413 14 335 -18 b 44 138 107 -18 44 44 b 406 414 44 340 188 385 b 535 492 529 431 535 454 b 431 563 535 550 496 563 b 290 461 349 563 308 522 l 122 461 b 464 701 150 603 244 701 b 715 510 646 701 715 633 b 708 432 715 485 713 460 l 632 0 "},"b":{"ha":728,"x_min":0,"x_max":0,"o":"m 382 129 b 581 397 489 129 581 239 b 454 547 581 511 540 547 b 260 286 321 547 260 429 b 382 129 260 182 308 129 m 36 0 l 200 933 l 378 933 l 318 594 b 540 701 383 667 456 701 b 768 426 689 701 768 589 b 399 -18 768 158 601 -18 b 226 83 315 -18 257 14 l 210 0 "},"c":{"ha":668,"x_min":0,"x_max":0,"o":"m 549 439 b 550 458 549 446 550 451 b 439 551 550 526 501 551 b 258 293 343 551 258 481 b 360 133 258 172 301 133 b 513 247 431 133 493 174 l 694 247 b 335 -18 647 89 500 -18 b 76 267 176 -18 76 79 b 467 701 76 560 238 701 b 732 472 632 701 732 614 b 731 439 732 461 732 450 "},"d":{"ha":726,"x_min":0,"x_max":0,"o":"m 382 129 b 578 392 482 129 578 231 b 457 547 578 515 538 547 b 260 292 317 547 260 435 b 382 129 260 182 307 129 m 510 0 l 524 83 b 315 -18 468 14 399 -18 b 75 268 168 -18 75 89 b 426 701 75 510 217 701 b 610 594 511 701 572 667 l 669 933 l 847 933 l 683 0 "},"e":{"ha":699,"x_min":0,"x_max":0,"o":"m 251 294 l 251 263 b 376 125 251 165 297 125 b 513 201 435 125 492 154 l 699 201 b 360 -18 632 61 506 -18 b 72 264 168 -18 72 79 b 475 701 72 528 231 701 b 736 428 647 701 736 610 b 724 294 736 388 732 343 m 558 408 b 561 450 561 424 561 438 b 444 558 561 538 506 558 b 272 408 353 558 299 493 "},"f":{"ha":410,"x_min":0,"x_max":0,"o":"m 107 0 l 206 556 l 104 556 l 126 683 l 228 683 b 561 933 257 850 367 933 l 536 788 b 406 683 444 788 419 763 l 522 683 l 500 556 l 383 556 l 285 0 "},"g":{"ha":736,"x_min":0,"x_max":0,"o":"m 388 136 b 583 392 489 136 583 229 b 460 544 583 499 542 544 b 264 293 328 544 264 440 b 388 136 264 178 313 136 m 529 92 b 324 -6 493 31 413 -6 b 75 268 139 -6 75 124 b 444 701 75 525 256 701 b 618 599 531 701 588 668 l 633 683 l 814 683 l 692 -7 b 296 -324 656 -212 486 -324 b 10 -90 125 -324 10 -236 b 15 -37 10 -74 13 -56 l 183 -37 b 182 -64 182 -47 182 -56 b 311 -168 182 -137 229 -168 b 508 -21 408 -168 492 -111 "},"h":{"ha":699,"x_min":0,"x_max":0,"o":"m 474 0 l 549 424 b 554 482 553 447 554 467 b 456 558 554 547 521 558 b 286 392 364 558 303 483 l 217 0 l 36 0 l 200 933 l 381 933 l 321 594 b 542 701 358 656 450 701 b 744 529 665 701 744 638 b 740 483 744 515 743 500 l 656 0 "},"i":{"ha":267,"x_min":0,"x_max":0,"o":"m 40 0 l 161 683 l 342 683 l 221 0 m 175 765 l 204 933 l 385 933 l 356 765 "},"j":{"ha":271,"x_min":0,"x_max":0,"o":"m 157 683 l 339 683 l 210 -46 b -108 -324 181 -211 44 -324 b -340 -114 -268 -324 -340 -244 b -333 -37 -340 -90 -337 -64 l -164 -37 b -169 -92 -168 -58 -169 -76 b -90 -164 -169 -146 -146 -164 b 29 -39 -18 -164 15 -117 m 171 765 l 200 933 l 382 933 l 353 765 "},"k":{"ha":671,"x_min":0,"x_max":0,"o":"m 461 0 l 364 313 l 257 217 l 218 0 l 36 0 l 200 933 l 382 933 l 296 436 l 558 683 l 785 683 l 511 432 l 658 0 "},"l":{"ha":257,"x_min":0,"x_max":0,"o":"m 36 0 l 200 933 l 381 933 l 217 0 "},"m":{"ha":1047,"x_min":0,"x_max":0,"o":"m 838 0 l 911 414 b 915 458 914 431 915 446 b 828 554 915 526 881 554 b 688 408 758 554 701 492 l 615 0 l 435 0 l 507 411 b 514 479 511 439 513 461 b 424 549 514 539 485 549 b 290 415 351 549 306 504 l 217 0 l 36 0 l 157 683 l 326 683 l 308 583 b 529 701 371 674 439 701 b 700 593 622 701 661 672 b 904 701 751 668 818 701 b 1101 515 1026 701 1101 622 b 1097 474 1101 503 1100 488 l 1014 0 "},"n":{"ha":699,"x_min":0,"x_max":0,"o":"m 474 0 l 547 414 b 553 472 551 436 553 456 b 454 549 553 533 522 549 b 286 392 360 549 304 496 l 217 0 l 36 0 l 157 683 l 329 683 l 311 583 b 553 701 367 660 443 701 b 743 526 667 701 743 640 b 739 474 743 510 742 492 l 656 0 "},"o":{"ha":749,"x_min":0,"x_max":0,"o":"m 396 133 b 604 397 536 133 604 236 b 469 549 604 521 558 549 b 261 286 328 549 261 447 b 396 133 261 168 306 133 m 369 -18 b 74 275 178 -18 74 101 b 496 701 74 524 247 701 b 788 410 681 701 788 586 b 369 -18 788 160 614 -18 "},"p":{"ha":726,"x_min":0,"x_max":0,"o":"m 382 136 b 581 392 524 136 581 249 b 457 554 581 518 533 554 b 263 292 358 554 263 453 b 382 136 263 174 303 136 m -21 -324 l 157 683 l 331 683 l 317 600 b 525 701 372 669 442 701 b 765 415 671 701 765 594 b 414 -18 765 174 622 -18 b 229 89 329 -18 268 17 l 157 -324 "},"q":{"ha":713,"x_min":0,"x_max":0,"o":"m 1014 -37 b 704 -324 983 -214 851 -324 b 490 -101 575 -324 490 -235 b 496 -39 490 -81 492 -61 l 518 85 b 300 -18 454 15 383 -18 b 72 257 151 -18 72 94 b 442 701 72 525 239 701 b 614 600 525 701 583 669 l 631 683 l 804 683 l 676 -40 b 671 -87 674 -58 671 -74 b 743 -164 671 -153 693 -164 b 844 -37 796 -164 829 -128 m 385 136 b 581 397 519 136 581 254 b 457 554 581 508 531 554 b 260 286 351 554 260 444 b 385 136 260 165 300 136 "},"r":{"ha":446,"x_min":0,"x_max":0,"o":"m 36 0 l 157 683 l 326 683 l 311 601 b 532 701 388 693 458 701 l 556 701 l 524 517 b 474 521 507 519 490 521 b 279 356 363 521 299 465 l 217 0 "},"s":{"ha":656,"x_min":0,"x_max":0,"o":"m 531 476 b 425 567 531 547 504 567 b 301 501 343 567 301 549 b 400 432 301 468 336 450 b 681 224 594 376 681 371 b 335 -18 681 88 554 -18 b 49 183 156 -18 49 60 b 51 219 49 194 50 207 l 238 219 b 236 199 236 213 236 206 b 357 118 236 143 285 118 b 494 196 431 118 494 142 b 399 267 494 233 461 251 b 122 493 181 317 122 375 b 454 701 122 593 214 701 b 707 514 632 701 707 632 b 704 476 707 501 706 489 "},"t":{"ha":629,"x_min":0,"x_max":0,"o":"m 636 256 b 313 -18 610 111 506 -18 b 76 192 143 -18 76 74 b 82 257 76 213 78 235 l 189 868 l 367 868 l 335 683 l 713 683 l 690 556 l 313 556 l 263 275 b 257 221 258 254 257 236 b 343 139 257 161 285 139 b 472 272 413 139 457 188 l 503 450 l 671 450 "},"u":{"ha":694,"x_min":0,"x_max":0,"o":"m 481 0 l 497 96 b 265 -18 436 18 360 -18 b 72 176 147 -18 72 58 b 78 233 72 194 74 214 l 157 683 l 338 683 l 263 261 b 257 214 260 243 257 228 b 356 133 257 150 292 133 b 524 289 444 133 507 199 l 593 683 l 772 683 l 651 0 "},"v":{"ha":696,"x_min":0,"x_max":0,"o":"m 249 0 l 125 683 l 321 683 l 383 232 l 608 683 l 804 683 l 438 0 "},"w":{"ha":992,"x_min":0,"x_max":0,"o":"m 600 0 l 561 397 l 383 0 l 199 0 l 125 683 l 310 683 l 343 244 l 515 683 l 699 683 l 728 244 l 910 683 l 1101 683 l 785 0 "},"x":{"ha":689,"x_min":0,"x_max":0,"o":"m 461 0 l 378 206 l 225 0 l 4 0 l 294 349 l 132 683 l 346 683 l 426 485 l 578 683 l 792 683 l 506 349 l 678 0 "},"y":{"ha":697,"x_min":0,"x_max":0,"o":"m 486 90 b 285 -7 451 29 369 -7 b 74 188 158 -7 74 68 b 79 240 74 204 76 222 l 157 683 l 338 683 l 264 267 b 258 219 261 249 258 233 b 357 139 258 156 293 139 b 518 267 439 139 506 193 l 592 683 l 772 683 l 649 -18 b 281 -324 614 -211 453 -324 b 22 -106 107 -324 22 -242 b 29 -37 22 -85 25 -61 l 197 -37 b 194 -72 194 -50 194 -61 b 317 -168 194 -137 235 -168 b 467 -21 382 -168 451 -111 "},"z":{"ha":618,"x_min":0,"x_max":0,"o":"m 13 0 l 38 139 l 451 540 l 132 540 l 157 683 l 713 683 l 686 538 l 275 147 l 628 147 l 601 0 "},"{":{"ha":464,"x_min":0,"x_max":0,"o":"m 353 -182 b 146 -31 193 -182 146 -132 b 199 256 146 56 199 190 b 103 350 199 324 171 350 l 125 469 b 264 615 210 469 246 508 b 561 1000 306 875 289 1000 l 613 1000 l 592 886 l 561 886 b 442 799 481 886 453 864 b 407 551 426 715 422 635 b 233 410 393 474 313 419 b 358 286 303 401 358 353 b 301 -6 358 244 301 51 b 393 -68 301 -51 326 -68 l 424 -68 l 404 -182 "},"|":{"ha":469,"x_min":0,"x_max":0,"o":"m 131 -174 l 342 1022 l 483 1022 l 272 -174 "},"}":{"ha":458,"x_min":0,"x_max":0,"o":"m -18 -182 l 1 -68 l 32 -68 b 151 19 113 -68 140 -46 b 188 268 167 103 172 185 b 361 410 201 346 282 400 b 236 533 292 418 236 467 b 293 824 236 575 293 765 b 200 886 293 869 268 886 l 169 886 l 190 1000 l 242 1000 b 447 849 400 1000 447 950 b 397 565 447 763 397 631 b 492 469 397 497 424 469 l 469 350 b 331 206 383 350 350 313 b 308 38 326 179 314 69 b 33 -182 282 -111 235 -182 "},"~":{"ha":771,"x_min":0,"x_max":0,"o":"m 804 424 b 582 331 735 360 667 331 b 296 411 471 331 393 411 b 89 306 219 411 157 376 l 114 446 b 313 539 163 493 228 539 b 613 460 446 539 521 460 b 829 564 690 460 758 488 "}," ":{"ha":335,"x_min":0,"x_max":0,"o":""},"¡":{"ha":340,"x_min":0,"x_max":0,"o":"m 431 922 l 399 740 l 211 740 l 243 922 m 339 667 b 292 99 338 446 318 254 b 268 0 285 61 279 28 l 76 0 b 243 667 92 168 150 393 "},"¢":{"ha":668,"x_min":0,"x_max":0,"o":"m 308 0 l 325 97 b 96 381 183 108 96 204 b 453 817 96 657 264 807 l 471 922 l 536 922 l 518 817 b 753 588 664 806 753 721 b 751 556 753 576 753 567 l 569 556 l 569 565 b 490 663 569 628 543 654 l 418 251 b 533 363 471 256 521 294 l 715 363 b 392 99 672 217 540 113 l 374 0 m 425 664 b 268 392 342 647 268 529 b 353 251 268 275 308 264 "},"£":{"ha":669,"x_min":0,"x_max":0,"o":"m 36 0 l 154 672 b 507 953 183 840 307 953 b 757 754 660 953 757 907 b 749 669 757 729 754 700 l 729 563 l 547 563 l 567 668 b 572 724 571 690 572 708 b 479 794 572 774 549 794 b 347 669 386 794 361 754 l 315 485 l 718 485 l 697 371 l 294 371 l 258 168 l 661 168 l 632 0 "},"¤":{"ha":742,"x_min":0,"x_max":0,"o":"m 638 133 l 567 228 b 404 183 517 200 461 183 b 256 228 347 183 296 200 l 151 133 l 69 233 l 179 321 b 158 425 165 351 158 388 b 235 632 158 501 188 572 l 157 718 l 272 817 l 342 725 b 507 771 392 754 449 771 b 657 725 564 771 615 754 l 757 817 l 839 718 l 732 633 b 754 526 746 601 754 565 b 676 319 754 450 725 376 l 754 233 m 664 511 b 492 682 664 608 593 682 b 249 440 367 682 249 571 b 419 272 249 344 318 272 b 664 511 543 272 664 381 "},"¥":{"ha":742,"x_min":0,"x_max":0,"o":"m 463 111 l 443 0 l 293 0 l 313 111 l 111 111 l 131 217 l 332 217 l 346 301 l 144 301 l 163 406 l 364 406 l 381 497 l 186 922 l 344 922 l 471 618 l 707 922 l 872 922 l 531 497 l 514 406 l 715 406 l 697 301 l 496 301 l 482 217 l 683 217 l 664 111 "},"¦":{"ha":469,"x_min":0,"x_max":0,"o":"m 129 -174 l 231 397 l 372 397 l 271 -174 m 243 471 l 340 1022 l 482 1022 l 385 471 "},"§":{"ha":743,"x_min":0,"x_max":0,"o":"m 626 683 l 626 699 b 492 801 626 779 585 801 b 335 696 389 801 335 764 b 440 613 335 658 367 631 b 658 544 536 589 601 569 b 751 392 713 519 751 479 b 656 190 751 300 713 239 b 686 85 675 168 686 132 b 346 -199 686 -100 522 -199 b 42 13 143 -199 42 -126 b 46 61 42 28 43 44 l 203 61 b 200 36 201 53 200 44 b 346 -68 200 -39 260 -68 b 524 56 460 -68 524 -19 b 421 140 524 94 500 122 b 118 357 210 188 118 226 b 215 557 118 438 151 506 b 182 665 193 583 182 619 b 515 939 182 817 299 939 b 783 722 686 939 783 854 b 781 683 783 710 782 697 m 525 264 b 589 364 564 283 589 318 b 485 449 589 400 565 431 b 353 485 436 458 390 472 b 271 388 297 468 271 435 b 375 304 271 350 303 324 b 525 264 435 289 482 278 "},"¨":{"ha":585,"x_min":0,"x_max":0,"o":"m 211 804 l 242 976 l 422 976 l 392 804 m 489 804 l 519 976 l 700 976 l 669 804 "},"©":{"ha":935,"x_min":0,"x_max":0,"o":"m 544 -12 b 103 463 301 -12 103 201 b 544 936 103 724 301 936 b 986 463 789 936 986 724 b 544 -12 986 201 789 -12 m 547 61 b 921 461 751 61 921 239 b 547 863 921 681 751 863 b 175 461 340 863 175 681 b 547 61 175 239 340 61 m 624 513 b 557 568 617 547 589 568 b 481 467 511 568 481 525 b 554 353 481 392 504 353 b 621 414 588 353 618 375 l 721 414 b 550 274 711 332 640 274 b 379 456 440 274 379 344 b 554 649 379 578 440 649 b 722 513 650 649 717 594 "},"ª":{"ha":456,"x_min":0,"x_max":0,"o":"m 396 601 b 240 510 357 565 240 586 b 282 478 240 489 254 478 b 388 560 332 478 378 515 m 369 417 b 368 439 369 424 368 431 b 369 450 368 442 369 446 b 247 407 340 424 299 407 b 138 488 172 407 138 439 b 336 644 138 615 238 631 b 408 693 388 651 408 663 b 351 726 408 714 388 726 b 274 671 307 726 285 704 l 182 671 b 369 803 197 749 249 803 b 508 696 469 803 508 764 b 504 654 508 683 507 669 l 461 417 "},"«":{"ha":646,"x_min":0,"x_max":0,"o":"m 575 201 l 418 440 l 660 682 l 731 588 l 574 440 l 678 294 m 253 201 l 96 440 l 338 682 l 408 588 l 251 440 l 356 294 "},"¬":{"ha":818,"x_min":0,"x_max":0,"o":"m 611 0 l 703 519 l 126 519 l 156 683 l 896 683 l 775 0 "},"®":{"ha":631,"x_min":0,"x_max":0,"o":"m 713 686 b 446 421 713 539 593 421 b 181 686 299 421 181 539 b 446 953 181 833 299 953 b 713 686 593 953 713 833 m 669 686 b 446 910 669 810 569 910 b 222 686 322 910 222 810 b 446 463 222 563 322 463 b 669 686 569 463 669 563 m 406 778 l 406 713 l 469 713 b 507 744 496 713 507 726 b 471 778 507 764 496 778 m 497 576 l 497 639 b 460 672 497 663 489 672 l 406 672 l 406 576 l 356 576 l 356 819 l 479 819 b 554 749 525 819 554 789 b 518 693 554 724 542 701 b 547 646 540 686 547 674 l 547 576 "},"¯":{"ha":664,"x_min":0,"x_max":0,"o":"m 217 836 l 239 963 l 768 963 l 746 836 "},"°":{"ha":521,"x_min":0,"x_max":0,"o":"m 342 493 b 165 668 215 493 165 569 b 418 933 165 804 238 933 b 596 760 544 933 596 858 b 342 493 596 624 521 493 m 357 581 b 499 746 458 581 499 665 b 404 849 499 817 472 849 b 261 685 301 849 261 765 b 357 581 261 617 288 581 "},"±":{"ha":726,"x_min":0,"x_max":0,"o":"m 496 411 l 450 149 l 319 149 l 365 411 l 104 411 l 128 542 l 389 542 l 435 803 l 565 803 l 519 542 l 782 542 l 758 411 m 26 -36 l 49 94 l 703 94 l 681 -36 "},"²":{"ha":364,"x_min":0,"x_max":0,"o":"m 107 476 b 286 706 125 579 161 622 b 392 826 350 747 392 775 b 338 875 392 864 369 875 b 256 793 292 875 267 853 l 168 793 b 351 953 188 896 250 953 b 482 840 428 953 482 919 b 314 638 482 732 378 682 b 236 554 257 599 243 575 l 435 554 l 421 476 "},"³":{"ha":374,"x_min":0,"x_max":0,"o":"m 279 746 b 386 828 369 746 386 789 b 340 881 386 864 371 881 b 261 804 300 881 271 853 l 178 804 b 353 953 194 893 265 953 b 475 849 424 953 475 913 b 401 724 475 804 451 749 b 453 635 433 708 453 685 b 261 460 453 531 365 460 b 132 575 179 460 132 503 b 136 611 132 586 133 599 l 224 611 b 221 586 222 601 221 594 b 275 535 221 551 242 535 b 360 628 328 535 360 579 b 268 683 360 669 336 683 "},"´":{"ha":489,"x_min":0,"x_max":0,"o":"m 249 769 l 218 846 l 536 1014 l 581 900 "},"¶":{"ha":804,"x_min":0,"x_max":0,"o":"m 542 -139 l 713 828 l 488 828 l 317 -139 l 165 -139 l 304 644 b 175 771 208 658 175 713 b 435 953 175 868 256 953 l 951 953 l 863 826 l 692 -139 "},"·":{"ha":260,"x_min":0,"x_max":0,"o":"m 96 368 l 129 556 l 322 556 l 289 368 "},"¸":{"ha":288,"x_min":0,"x_max":0,"o":"m 22 -264 b 128 -174 81 -260 117 -228 l 39 -174 l 61 -46 l 221 -46 l 206 -135 b 13 -324 188 -235 135 -312 "},"¹":{"ha":247,"x_min":0,"x_max":0,"o":"m 201 476 l 257 794 l 163 794 l 174 857 b 299 938 253 857 283 883 l 372 938 l 292 476 "},"º":{"ha":494,"x_min":0,"x_max":0,"o":"m 332 490 b 447 643 399 490 447 540 b 372 718 447 693 422 718 b 258 568 308 718 258 668 b 332 490 258 515 282 490 m 317 407 b 154 560 211 407 154 467 b 386 803 154 703 257 803 b 547 651 488 803 547 744 b 317 407 547 508 447 407 "},"»":{"ha":646,"x_min":0,"x_max":0,"o":"m 464 201 l 392 294 l 549 440 l 444 588 l 549 682 l 704 440 m 142 201 l 69 294 l 226 440 l 122 588 l 226 682 l 382 440 "},"¼":{"ha":854,"x_min":0,"x_max":0,"o":"m 36 -28 l 850 950 l 944 950 l 129 -28 m 204 476 l 260 794 l 165 794 l 176 857 b 301 938 256 857 286 883 l 375 938 l 294 476 m 747 319 l 624 157 l 718 157 m 688 -14 l 704 86 l 525 86 l 539 165 l 757 447 l 858 447 l 807 157 l 858 157 l 846 86 l 794 86 l 778 -14 "},"½":{"ha":865,"x_min":0,"x_max":0,"o":"m 31 -28 l 844 950 l 939 950 l 124 -28 m 204 476 l 260 794 l 165 794 l 176 857 b 301 938 256 857 286 883 l 375 938 l 294 476 m 526 -14 b 706 215 544 89 581 132 b 811 336 769 257 811 285 b 757 385 811 374 789 385 b 675 303 711 385 686 363 l 588 303 b 771 463 607 406 669 463 b 901 350 847 463 901 429 b 733 147 901 242 797 192 b 656 64 676 108 663 85 l 854 64 l 840 -14 "},"¾":{"ha":879,"x_min":0,"x_max":0,"o":"m 81 -28 l 894 950 l 989 950 l 174 -28 m 771 319 l 647 157 l 742 157 m 711 -14 l 728 86 l 549 86 l 563 165 l 781 447 l 882 447 l 831 157 l 882 157 l 869 86 l 818 86 l 801 -14 m 276 746 b 383 828 367 746 383 789 b 338 881 383 864 368 881 b 258 804 297 881 268 853 l 175 804 b 350 953 192 893 263 953 b 472 849 421 953 472 913 b 399 724 472 804 449 749 b 450 635 431 708 450 685 b 258 460 450 531 363 460 b 129 575 176 460 129 503 b 133 611 129 586 131 599 l 221 611 b 218 586 219 601 218 594 b 272 535 218 551 239 535 b 357 628 325 535 357 579 b 265 683 357 669 333 683 "},"¿":{"ha":682,"x_min":0,"x_max":0,"o":"m 596 922 l 564 740 l 376 740 l 408 922 m 543 654 b 443 431 524 544 500 486 b 257 214 367 357 257 342 b 365 117 257 132 306 117 b 528 268 464 117 501 175 l 707 268 b 343 -31 675 85 529 -31 b 60 181 167 -31 60 33 b 247 467 60 314 117 379 b 374 654 340 529 360 572 "},"À":{"ha":893,"x_min":0,"x_max":0,"o":"m 575 715 l 574 715 l 390 349 l 625 349 m 678 0 l 653 190 l 313 190 l 214 0 l 4 0 l 496 922 l 719 922 l 882 0 m 431 1139 l 517 1253 l 774 1085 l 718 1008 "},"Á":{"ha":893,"x_min":0,"x_max":0,"o":"m 575 715 l 574 715 l 390 349 l 625 349 m 678 0 l 653 190 l 313 190 l 214 0 l 4 0 l 496 922 l 719 922 l 882 0 m 535 1008 l 504 1085 l 822 1253 l 867 1139 "},"Â":{"ha":893,"x_min":0,"x_max":0,"o":"m 575 715 l 574 715 l 390 349 l 625 349 m 678 0 l 653 190 l 313 190 l 214 0 l 4 0 l 496 922 l 719 922 l 882 0 m 814 1018 l 656 1182 l 439 1018 l 388 1089 l 599 1275 l 746 1275 l 890 1089 "},"Ã":{"ha":893,"x_min":0,"x_max":0,"o":"m 575 715 l 574 715 l 390 349 l 625 349 m 678 0 l 653 190 l 313 190 l 214 0 l 4 0 l 496 922 l 719 922 l 882 0 m 894 1175 b 719 1039 846 1075 779 1039 b 551 1101 649 1039 611 1101 b 488 1040 540 1101 513 1092 l 400 1092 b 557 1214 446 1182 500 1214 b 729 1147 642 1214 676 1147 b 797 1213 746 1147 779 1164 "},"Ä":{"ha":893,"x_min":0,"x_max":0,"o":"m 575 715 l 574 715 l 390 349 l 625 349 m 678 0 l 653 190 l 313 190 l 214 0 l 4 0 l 496 922 l 719 922 l 882 0 m 407 1043 l 438 1215 l 618 1215 l 588 1043 m 685 1043 l 715 1215 l 896 1215 l 865 1043 "},"Å":{"ha":893,"x_min":0,"x_max":0,"o":"m 575 715 l 574 715 l 390 349 l 625 349 m 678 0 l 653 190 l 313 190 l 214 0 l 4 0 l 496 922 l 719 922 l 882 0 m 796 1171 b 625 1008 796 1074 751 1008 b 500 1114 542 1008 500 1044 b 672 1275 500 1211 557 1275 b 796 1171 758 1275 796 1236 m 722 1157 b 661 1213 722 1193 701 1213 b 576 1126 603 1213 576 1178 b 636 1074 576 1093 596 1074 b 722 1157 693 1074 722 1107 "},"Æ":{"ha":1229,"x_min":0,"x_max":0,"o":"m 519 0 l 553 190 l 313 190 l 214 0 l 4 0 l 496 922 l 1364 922 l 1336 761 l 846 761 l 811 564 l 1263 564 l 1233 401 l 782 401 l 740 164 l 1253 164 l 1224 0 m 654 761 l 599 761 l 390 349 l 581 349 "},"Ç":{"ha":851,"x_min":0,"x_max":0,"o":"m 900 317 b 442 -32 825 107 656 -32 b 89 350 233 -32 89 101 b 618 953 89 706 306 953 b 956 649 836 953 956 821 b 954 619 956 639 954 629 l 761 619 b 590 786 754 744 682 786 b 288 369 383 786 288 600 b 465 136 288 197 346 136 b 707 317 579 136 661 201 m 325 -264 b 431 -174 383 -260 419 -228 l 342 -174 l 364 -46 l 524 -46 l 508 -135 b 315 -324 490 -235 438 -312 "},"È":{"ha":739,"x_min":0,"x_max":0,"o":"m 32 0 l 194 922 l 872 922 l 844 761 l 354 761 l 319 564 l 771 564 l 742 401 l 290 401 l 249 164 l 761 164 l 732 0 m 353 1139 l 439 1253 l 696 1085 l 640 1008 "},"É":{"ha":739,"x_min":0,"x_max":0,"o":"m 32 0 l 194 922 l 872 922 l 844 761 l 354 761 l 319 564 l 771 564 l 742 401 l 290 401 l 249 164 l 761 164 l 732 0 m 457 1008 l 426 1085 l 744 1253 l 789 1139 "},"Ê":{"ha":739,"x_min":0,"x_max":0,"o":"m 32 0 l 194 922 l 872 922 l 844 761 l 354 761 l 319 564 l 771 564 l 742 401 l 290 401 l 249 164 l 761 164 l 732 0 m 751 1018 l 593 1182 l 376 1018 l 325 1089 l 536 1275 l 683 1275 l 828 1089 "},"Ë":{"ha":739,"x_min":0,"x_max":0,"o":"m 32 0 l 194 922 l 872 922 l 844 761 l 354 761 l 319 564 l 771 564 l 742 401 l 290 401 l 249 164 l 761 164 l 732 0 m 342 1043 l 372 1215 l 553 1215 l 522 1043 m 619 1043 l 650 1215 l 831 1215 l 800 1043 "},"Ì":{"ha":260,"x_min":0,"x_max":0,"o":"m 32 0 l 194 922 l 388 922 l 225 0 m 115 1139 l 201 1253 l 458 1085 l 403 1008 "},"Í":{"ha":260,"x_min":0,"x_max":0,"o":"m 32 0 l 194 922 l 388 922 l 225 0 m 219 1008 l 189 1085 l 507 1253 l 551 1139 "},"Î":{"ha":260,"x_min":0,"x_max":0,"o":"m 32 0 l 194 922 l 388 922 l 225 0 m 500 1018 l 342 1182 l 125 1018 l 74 1089 l 285 1275 l 432 1275 l 576 1089 "},"Ï":{"ha":260,"x_min":0,"x_max":0,"o":"m 32 0 l 194 922 l 388 922 l 225 0 m 93 1043 l 124 1215 l 304 1215 l 274 1043 m 371 1043 l 401 1215 l 582 1215 l 551 1043 "},"Ð":{"ha":843,"x_min":0,"x_max":0,"o":"m 32 0 l 101 392 l 69 392 l 93 529 l 125 529 l 194 922 l 551 922 b 910 556 769 922 910 783 b 418 0 910 242 696 0 m 407 157 b 713 557 638 157 713 332 b 497 763 713 729 647 763 l 354 763 l 313 529 l 461 529 l 438 392 l 289 392 l 247 157 "},"Ñ":{"ha":821,"x_min":0,"x_max":0,"o":"m 611 0 l 321 619 l 211 0 l 32 0 l 194 922 l 393 922 l 661 329 l 765 922 l 946 922 l 783 0 m 858 1175 b 683 1039 810 1075 743 1039 b 515 1101 613 1039 575 1101 b 451 1040 504 1101 476 1092 l 364 1092 b 521 1214 410 1182 464 1214 b 693 1147 606 1214 640 1147 b 761 1213 710 1147 743 1164 "},"Ò":{"ha":931,"x_min":0,"x_max":0,"o":"m 488 133 b 803 538 654 133 803 263 b 601 782 803 718 733 782 b 281 365 397 782 281 615 b 488 133 281 190 356 133 m 458 -32 b 89 344 218 -32 89 104 b 632 953 89 704 293 953 b 996 563 871 953 996 807 b 458 -32 996 189 801 -32 m 449 1139 l 535 1253 l 792 1085 l 736 1008 "},"Ó":{"ha":931,"x_min":0,"x_max":0,"o":"m 488 133 b 803 538 654 133 803 263 b 601 782 803 718 733 782 b 281 365 397 782 281 615 b 488 133 281 190 356 133 m 458 -32 b 89 344 218 -32 89 104 b 632 953 89 704 293 953 b 996 563 871 953 996 807 b 458 -32 996 189 801 -32 m 553 1008 l 522 1085 l 840 1253 l 885 1139 "},"Ô":{"ha":931,"x_min":0,"x_max":0,"o":"m 488 133 b 803 538 654 133 803 263 b 601 782 803 718 733 782 b 281 365 397 782 281 615 b 488 133 281 190 356 133 m 458 -32 b 89 344 218 -32 89 104 b 632 953 89 704 293 953 b 996 563 871 953 996 807 b 458 -32 996 189 801 -32 m 833 1018 l 675 1182 l 458 1018 l 407 1089 l 618 1275 l 765 1275 l 910 1089 "},"Õ":{"ha":931,"x_min":0,"x_max":0,"o":"m 488 133 b 803 538 654 133 803 263 b 601 782 803 718 733 782 b 281 365 397 782 281 615 b 488 133 281 190 356 133 m 458 -32 b 89 344 218 -32 89 104 b 632 953 89 704 293 953 b 996 563 871 953 996 807 b 458 -32 996 189 801 -32 m 908 1172 b 733 1036 860 1072 793 1036 b 565 1099 663 1036 625 1099 b 501 1038 554 1099 526 1089 l 414 1089 b 571 1211 460 1179 514 1211 b 743 1144 656 1211 690 1144 b 811 1210 760 1144 793 1161 "},"Ö":{"ha":931,"x_min":0,"x_max":0,"o":"m 488 133 b 803 538 654 133 803 263 b 601 782 803 718 733 782 b 281 365 397 782 281 615 b 488 133 281 190 356 133 m 458 -32 b 89 344 218 -32 89 104 b 632 953 89 704 293 953 b 996 563 871 953 996 807 b 458 -32 996 189 801 -32 m 426 1043 l 457 1215 l 638 1215 l 607 1043 m 704 1043 l 735 1215 l 915 1215 l 885 1043 "},"×":{"ha":726,"x_min":0,"x_max":0,"o":"m 578 199 l 424 383 l 207 199 l 132 292 l 349 476 l 196 661 l 304 753 l 457 568 l 675 754 l 750 661 l 533 476 l 685 290 "},"Ø":{"ha":931,"x_min":0,"x_max":0,"o":"m 151 -19 l 199 51 b 89 344 126 115 89 214 b 632 953 89 704 293 953 b 792 925 692 953 746 943 l 838 993 l 933 956 l 878 874 b 996 563 956 807 996 700 b 458 -32 996 189 801 -32 b 281 0 390 -32 331 -19 l 242 -57 m 383 150 b 488 133 413 139 447 133 b 803 538 654 133 803 263 b 765 708 803 614 790 669 m 686 769 b 601 782 661 778 633 782 b 281 365 397 782 281 615 b 311 215 281 300 290 251 "},"Ù":{"ha":814,"x_min":0,"x_max":0,"o":"m 740 922 l 938 922 l 829 307 b 390 -32 790 83 632 -32 b 76 217 194 -32 76 49 b 85 296 76 240 79 268 l 194 922 l 390 922 l 283 314 b 278 256 279 293 278 274 b 415 128 278 165 328 128 b 632 307 539 128 611 186 m 390 1139 l 476 1253 l 733 1085 l 678 1008 "},"Ú":{"ha":814,"x_min":0,"x_max":0,"o":"m 740 922 l 938 922 l 829 307 b 390 -32 790 83 632 -32 b 76 217 194 -32 76 49 b 85 296 76 240 79 268 l 194 922 l 390 922 l 283 314 b 278 256 279 293 278 274 b 415 128 278 165 328 128 b 632 307 539 128 611 186 m 494 1008 l 464 1085 l 782 1253 l 826 1139 "},"Û":{"ha":814,"x_min":0,"x_max":0,"o":"m 740 922 l 938 922 l 829 307 b 390 -32 790 83 632 -32 b 76 217 194 -32 76 49 b 85 296 76 240 79 268 l 194 922 l 390 922 l 283 314 b 278 256 279 293 278 274 b 415 128 278 165 328 128 b 632 307 539 128 611 186 m 775 1018 l 617 1182 l 400 1018 l 349 1089 l 560 1275 l 707 1275 l 851 1089 "},"Ü":{"ha":814,"x_min":0,"x_max":0,"o":"m 740 922 l 938 922 l 829 307 b 390 -32 790 83 632 -32 b 76 217 194 -32 76 49 b 85 296 76 240 79 268 l 194 922 l 390 922 l 283 314 b 278 256 279 293 278 274 b 415 128 278 165 328 128 b 632 307 539 128 611 186 m 367 1043 l 397 1215 l 578 1215 l 547 1043 m 644 1043 l 675 1215 l 856 1215 l 825 1043 "},"Ý":{"ha":836,"x_min":0,"x_max":0,"o":"m 324 0 l 385 349 l 167 922 l 388 922 l 515 547 l 761 922 l 988 922 l 578 346 l 517 0 m 515 1008 l 485 1085 l 803 1253 l 847 1139 "},"Þ":{"ha":742,"x_min":0,"x_max":0,"o":"m 469 349 b 653 504 569 349 653 415 b 517 618 653 579 603 618 l 333 618 l 286 349 m 258 190 l 225 0 l 32 0 l 194 922 l 388 922 l 363 779 l 594 779 b 825 529 736 779 825 669 b 483 190 825 339 675 190 "},"ß":{"ha":708,"x_min":0,"x_max":0,"o":"m 326 133 b 365 131 339 132 353 131 b 567 319 482 131 567 208 b 393 451 567 428 499 447 l 414 565 b 579 706 528 569 579 639 b 475 799 579 785 533 799 b 335 682 408 799 349 763 l 214 0 l 36 0 l 158 692 b 508 943 185 840 303 943 b 765 743 688 943 765 861 b 638 529 765 611 703 567 b 749 349 722 489 749 421 b 379 -18 749 131 594 -18 b 300 -12 342 -18 319 -17 "},"à":{"ha":675,"x_min":0,"x_max":0,"o":"m 510 335 b 386 294 489 317 456 307 b 231 172 257 271 231 236 b 311 111 231 129 264 111 b 496 260 399 111 481 179 m 464 0 b 461 29 463 8 461 18 b 464 61 461 39 463 50 b 243 -18 413 14 335 -18 b 44 138 107 -18 44 44 b 406 414 44 340 188 385 b 535 492 529 431 535 454 b 431 563 535 550 496 563 b 290 461 349 563 308 522 l 122 461 b 464 701 150 603 244 701 b 715 510 646 701 715 633 b 708 432 715 485 713 460 l 632 0 m 279 900 l 365 1014 l 622 846 l 567 769 "},"á":{"ha":675,"x_min":0,"x_max":0,"o":"m 510 335 b 386 294 489 317 456 307 b 231 172 257 271 231 236 b 311 111 231 129 264 111 b 496 260 399 111 481 179 m 464 0 b 461 29 463 8 461 18 b 464 61 461 39 463 50 b 243 -18 413 14 335 -18 b 44 138 107 -18 44 44 b 406 414 44 340 188 385 b 535 492 529 431 535 454 b 431 563 535 550 496 563 b 290 461 349 563 308 522 l 122 461 b 464 701 150 603 244 701 b 715 510 646 701 715 633 b 708 432 715 485 713 460 l 632 0 m 383 769 l 353 846 l 671 1014 l 715 900 "},"â":{"ha":675,"x_min":0,"x_max":0,"o":"m 510 335 b 386 294 489 317 456 307 b 231 172 257 271 231 236 b 311 111 231 129 264 111 b 496 260 399 111 481 179 m 464 0 b 461 29 463 8 461 18 b 464 61 461 39 463 50 b 243 -18 413 14 335 -18 b 44 138 107 -18 44 44 b 406 414 44 340 188 385 b 535 492 529 431 535 454 b 431 563 535 550 496 563 b 290 461 349 563 308 522 l 122 461 b 464 701 150 603 244 701 b 715 510 646 701 715 633 b 708 432 715 485 713 460 l 632 0 m 664 779 l 506 943 l 289 779 l 238 850 l 449 1036 l 596 1036 l 740 850 "},"ã":{"ha":675,"x_min":0,"x_max":0,"o":"m 510 335 b 386 294 489 317 456 307 b 231 172 257 271 231 236 b 311 111 231 129 264 111 b 496 260 399 111 481 179 m 464 0 b 461 29 463 8 461 18 b 464 61 461 39 463 50 b 243 -18 413 14 335 -18 b 44 138 107 -18 44 44 b 406 414 44 340 188 385 b 535 492 529 431 535 454 b 431 563 535 550 496 563 b 290 461 349 563 308 522 l 122 461 b 464 701 150 603 244 701 b 715 510 646 701 715 633 b 708 432 715 485 713 460 l 632 0 m 744 936 b 569 800 696 836 629 800 b 401 863 499 800 461 863 b 338 801 390 863 363 853 l 250 853 b 407 975 296 943 350 975 b 579 908 492 975 526 908 b 647 974 596 908 629 925 "},"ä":{"ha":675,"x_min":0,"x_max":0,"o":"m 510 335 b 386 294 489 317 456 307 b 231 172 257 271 231 236 b 311 111 231 129 264 111 b 496 260 399 111 481 179 m 464 0 b 461 29 463 8 461 18 b 464 61 461 39 463 50 b 243 -18 413 14 335 -18 b 44 138 107 -18 44 44 b 406 414 44 340 188 385 b 535 492 529 431 535 454 b 431 563 535 550 496 563 b 290 461 349 563 308 522 l 122 461 b 464 701 150 603 244 701 b 715 510 646 701 715 633 b 708 432 715 485 713 460 l 632 0 m 267 804 l 297 976 l 478 976 l 447 804 m 544 804 l 575 976 l 756 976 l 725 804 "},"å":{"ha":675,"x_min":0,"x_max":0,"o":"m 510 335 b 386 294 489 317 456 307 b 231 172 257 271 231 236 b 311 111 231 129 264 111 b 496 260 399 111 481 179 m 464 0 b 461 29 463 8 461 18 b 464 61 461 39 463 50 b 243 -18 413 14 335 -18 b 44 138 107 -18 44 44 b 406 414 44 340 188 385 b 535 492 529 431 535 454 b 431 563 535 550 496 563 b 290 461 349 563 308 522 l 122 461 b 464 701 150 603 244 701 b 715 510 646 701 715 633 b 708 432 715 485 713 460 l 632 0 m 646 932 b 475 769 646 835 601 769 b 350 875 392 769 350 806 b 522 1036 350 972 407 1036 b 646 932 608 1036 646 997 m 572 918 b 511 974 572 954 551 974 b 426 888 453 974 426 939 b 486 835 426 854 446 835 b 572 918 543 835 572 868 "},"æ":{"ha":1129,"x_min":0,"x_max":0,"o":"m 682 294 l 682 263 b 807 125 682 165 728 125 b 943 201 865 125 922 154 l 1129 201 b 790 -18 1063 61 936 -18 b 532 114 660 -18 574 26 b 243 -18 451 10 325 -18 b 44 138 107 -18 44 44 b 406 414 44 340 188 385 b 535 492 529 431 535 454 b 431 563 535 550 496 563 b 290 461 349 563 308 522 l 122 461 b 464 701 150 603 244 701 b 674 635 568 701 636 678 b 906 701 738 678 815 701 b 1167 428 1078 701 1167 610 b 1154 294 1167 388 1163 343 m 510 335 b 386 294 489 317 456 307 b 231 172 257 271 231 236 b 311 111 231 129 264 111 b 496 260 399 111 481 179 m 989 408 b 992 450 992 424 992 438 b 875 558 992 538 936 558 b 703 408 783 558 729 493 "},"ç":{"ha":668,"x_min":0,"x_max":0,"o":"m 549 439 b 550 458 549 446 550 451 b 439 551 550 526 501 551 b 258 293 343 551 258 481 b 360 133 258 172 301 133 b 513 247 431 133 493 174 l 694 247 b 335 -18 647 89 500 -18 b 76 267 176 -18 76 79 b 467 701 76 560 238 701 b 732 472 632 701 732 614 b 731 439 732 461 732 450 m 226 -264 b 332 -174 285 -260 321 -228 l 243 -174 l 265 -46 l 425 -46 l 410 -135 b 217 -324 392 -235 339 -312 "},"è":{"ha":699,"x_min":0,"x_max":0,"o":"m 251 294 l 251 263 b 376 125 251 165 297 125 b 513 201 435 125 492 154 l 699 201 b 360 -18 632 61 506 -18 b 72 264 168 -18 72 79 b 475 701 72 528 231 701 b 736 428 647 701 736 610 b 724 294 736 388 732 343 m 558 408 b 561 450 561 424 561 438 b 444 558 561 538 506 558 b 272 408 353 558 299 493 m 290 900 l 376 1014 l 633 846 l 578 769 "},"é":{"ha":699,"x_min":0,"x_max":0,"o":"m 251 294 l 251 263 b 376 125 251 165 297 125 b 513 201 435 125 492 154 l 699 201 b 360 -18 632 61 506 -18 b 72 264 168 -18 72 79 b 475 701 72 528 231 701 b 736 428 647 701 736 610 b 724 294 736 388 732 343 m 558 408 b 561 450 561 424 561 438 b 444 558 561 538 506 558 b 272 408 353 558 299 493 m 394 769 l 364 846 l 682 1014 l 726 900 "},"ê":{"ha":699,"x_min":0,"x_max":0,"o":"m 251 294 l 251 263 b 376 125 251 165 297 125 b 513 201 435 125 492 154 l 699 201 b 360 -18 632 61 506 -18 b 72 264 168 -18 72 79 b 475 701 72 528 231 701 b 736 428 647 701 736 610 b 724 294 736 388 732 343 m 558 408 b 561 450 561 424 561 438 b 444 558 561 538 506 558 b 272 408 353 558 299 493 m 676 779 l 518 943 l 301 779 l 250 850 l 461 1036 l 608 1036 l 753 850 "},"ë":{"ha":699,"x_min":0,"x_max":0,"o":"m 251 294 l 251 263 b 376 125 251 165 297 125 b 513 201 435 125 492 154 l 699 201 b 360 -18 632 61 506 -18 b 72 264 168 -18 72 79 b 475 701 72 528 231 701 b 736 428 647 701 736 610 b 724 294 736 388 732 343 m 558 408 b 561 450 561 424 561 438 b 444 558 561 538 506 558 b 272 408 353 558 299 493 m 268 804 l 299 976 l 479 976 l 449 804 m 546 804 l 576 976 l 757 976 l 726 804 "},"ì":{"ha":378,"x_min":0,"x_max":0,"o":"m 131 900 l 217 1014 l 474 846 l 418 769 m 96 0 l 215 683 l 396 683 l 276 0 "},"í":{"ha":378,"x_min":0,"x_max":0,"o":"m 235 769 l 204 846 l 522 1014 l 567 900 m 96 0 l 215 683 l 396 683 l 276 0 "},"î":{"ha":378,"x_min":0,"x_max":0,"o":"m 96 0 l 215 683 l 396 683 l 276 0 m 515 779 l 357 943 l 140 779 l 89 850 l 300 1036 l 447 1036 l 592 850 "},"ï":{"ha":378,"x_min":0,"x_max":0,"o":"m 108 804 l 139 976 l 319 976 l 289 804 m 386 804 l 417 976 l 597 976 l 567 804 m 96 0 l 215 683 l 396 683 l 276 0 "},"ð":{"ha":721,"x_min":0,"x_max":0,"o":"m 708 854 b 771 554 750 789 771 674 b 364 -18 771 108 543 -18 b 71 261 156 -18 71 103 b 439 671 71 493 215 671 b 608 594 507 671 572 667 b 610 622 608 603 610 613 b 571 782 610 679 594 733 l 444 715 l 426 754 l 550 819 b 438 933 518 868 478 907 l 631 933 b 682 889 650 921 667 906 l 786 943 l 804 904 m 382 132 b 574 367 488 132 574 217 b 451 517 574 469 533 517 b 257 278 324 517 257 411 b 382 132 257 182 304 132 "},"ñ":{"ha":699,"x_min":0,"x_max":0,"o":"m 474 0 l 547 414 b 553 472 551 436 553 456 b 454 549 553 533 522 549 b 286 392 360 549 304 496 l 217 0 l 36 0 l 157 683 l 329 683 l 311 583 b 553 701 367 660 443 701 b 743 526 667 701 743 640 b 739 474 743 510 742 492 l 656 0 m 769 936 b 594 800 721 836 654 800 b 426 863 524 800 486 863 b 363 801 415 863 388 853 l 275 853 b 432 975 321 943 375 975 b 604 908 517 975 551 908 b 672 974 621 908 654 925 "},"ò":{"ha":749,"x_min":0,"x_max":0,"o":"m 396 133 b 604 397 536 133 604 236 b 469 549 604 521 558 549 b 261 286 328 549 261 447 b 396 133 261 168 306 133 m 369 -18 b 74 275 178 -18 74 101 b 496 701 74 524 247 701 b 788 410 681 701 788 586 b 369 -18 788 160 614 -18 m 317 900 l 403 1014 l 660 846 l 604 769 "},"ó":{"ha":749,"x_min":0,"x_max":0,"o":"m 396 133 b 604 397 536 133 604 236 b 469 549 604 521 558 549 b 261 286 328 549 261 447 b 396 133 261 168 306 133 m 369 -18 b 74 275 178 -18 74 101 b 496 701 74 524 247 701 b 788 410 681 701 788 586 b 369 -18 788 160 614 -18 m 421 769 l 390 846 l 708 1014 l 753 900 "},"ô":{"ha":749,"x_min":0,"x_max":0,"o":"m 396 133 b 604 397 536 133 604 236 b 469 549 604 521 558 549 b 261 286 328 549 261 447 b 396 133 261 168 306 133 m 369 -18 b 74 275 178 -18 74 101 b 496 701 74 524 247 701 b 788 410 681 701 788 586 b 369 -18 788 160 614 -18 m 700 779 l 542 943 l 325 779 l 274 850 l 485 1036 l 632 1036 l 776 850 "},"õ":{"ha":749,"x_min":0,"x_max":0,"o":"m 396 133 b 604 397 536 133 604 236 b 469 549 604 521 558 549 b 261 286 328 549 261 447 b 396 133 261 168 306 133 m 369 -18 b 74 275 178 -18 74 101 b 496 701 74 524 247 701 b 788 410 681 701 788 586 b 369 -18 788 160 614 -18 m 781 936 b 606 800 732 836 665 800 b 438 863 535 800 497 863 b 374 801 426 863 399 853 l 286 853 b 443 975 332 943 386 975 b 615 908 528 975 563 908 b 683 974 632 908 665 925 "},"ö":{"ha":749,"x_min":0,"x_max":0,"o":"m 396 133 b 604 397 536 133 604 236 b 469 549 604 521 558 549 b 261 286 328 549 261 447 b 396 133 261 168 306 133 m 369 -18 b 74 275 178 -18 74 101 b 496 701 74 524 247 701 b 788 410 681 701 788 586 b 369 -18 788 160 614 -18 m 293 804 l 324 976 l 504 976 l 474 804 m 571 804 l 601 976 l 782 976 l 751 804 "},"÷":{"ha":726,"x_min":0,"x_max":0,"o":"m 104 411 l 126 542 l 781 542 l 758 411 m 382 681 l 415 868 l 608 868 l 575 681 m 278 88 l 311 275 l 504 275 l 471 88 "},"ø":{"ha":749,"x_min":0,"x_max":0,"o":"m 140 -43 l 188 32 b 74 275 113 82 74 168 b 496 701 74 524 247 701 b 599 688 533 701 568 696 l 643 757 l 725 721 l 679 649 b 788 410 749 599 788 515 b 369 -18 788 160 614 -18 b 263 -3 331 -18 294 -12 l 215 -79 m 353 136 b 396 133 365 135 379 133 b 604 397 536 133 604 236 b 585 500 604 444 597 478 m 510 546 b 469 549 497 547 485 549 b 261 286 328 549 261 447 b 282 182 261 239 268 206 "},"ù":{"ha":694,"x_min":0,"x_max":0,"o":"m 481 0 l 497 96 b 265 -18 436 18 360 -18 b 72 176 147 -18 72 58 b 78 233 72 194 74 214 l 157 683 l 338 683 l 263 261 b 257 214 260 243 257 228 b 356 133 257 150 292 133 b 524 289 444 133 507 199 l 593 683 l 772 683 l 651 0 m 289 900 l 375 1014 l 632 846 l 576 769 "},"ú":{"ha":694,"x_min":0,"x_max":0,"o":"m 481 0 l 497 96 b 265 -18 436 18 360 -18 b 72 176 147 -18 72 58 b 78 233 72 194 74 214 l 157 683 l 338 683 l 263 261 b 257 214 260 243 257 228 b 356 133 257 150 292 133 b 524 289 444 133 507 199 l 593 683 l 772 683 l 651 0 m 393 769 l 363 846 l 681 1014 l 725 900 "},"û":{"ha":694,"x_min":0,"x_max":0,"o":"m 481 0 l 497 96 b 265 -18 436 18 360 -18 b 72 176 147 -18 72 58 b 78 233 72 194 74 214 l 157 683 l 338 683 l 263 261 b 257 214 260 243 257 228 b 356 133 257 150 292 133 b 524 289 444 133 507 199 l 593 683 l 772 683 l 651 0 m 674 779 l 515 943 l 299 779 l 247 850 l 458 1036 l 606 1036 l 750 850 "},"ü":{"ha":694,"x_min":0,"x_max":0,"o":"m 481 0 l 497 96 b 265 -18 436 18 360 -18 b 72 176 147 -18 72 58 b 78 233 72 194 74 214 l 157 683 l 338 683 l 263 261 b 257 214 260 243 257 228 b 356 133 257 150 292 133 b 524 289 444 133 507 199 l 593 683 l 772 683 l 651 0 m 276 804 l 307 976 l 488 976 l 457 804 m 554 804 l 585 976 l 765 976 l 735 804 "},"ý":{"ha":697,"x_min":0,"x_max":0,"o":"m 486 90 b 285 -7 451 29 369 -7 b 74 188 158 -7 74 68 b 79 240 74 204 76 222 l 157 683 l 338 683 l 264 267 b 258 219 261 249 258 233 b 357 139 258 156 293 139 b 518 267 439 139 506 193 l 592 683 l 772 683 l 649 -18 b 281 -324 614 -211 453 -324 b 22 -106 107 -324 22 -242 b 29 -37 22 -85 25 -61 l 197 -37 b 194 -72 194 -50 194 -61 b 317 -168 194 -137 235 -168 b 467 -21 382 -168 451 -111 m 394 769 l 364 846 l 682 1014 l 726 900 "},"þ":{"ha":726,"x_min":0,"x_max":0,"o":"m 381 129 b 579 397 488 129 579 239 b 453 547 579 507 538 547 b 258 285 319 547 258 429 b 381 129 258 182 306 129 m -21 -324 l 200 933 l 378 933 l 319 599 b 525 701 368 671 429 701 b 767 411 692 701 767 568 b 414 -18 767 175 626 -18 b 229 86 331 -18 257 13 l 157 -324 "},"ÿ":{"ha":697,"x_min":0,"x_max":0,"o":"m 486 90 b 285 -7 451 29 369 -7 b 74 188 158 -7 74 68 b 79 240 74 204 76 222 l 157 683 l 338 683 l 264 267 b 258 219 261 249 258 233 b 357 139 258 156 293 139 b 518 267 439 139 506 193 l 592 683 l 772 683 l 649 -18 b 281 -324 614 -211 453 -324 b 22 -106 107 -324 22 -242 b 29 -37 22 -85 25 -61 l 197 -37 b 194 -72 194 -50 194 -61 b 317 -168 194 -137 235 -168 b 467 -21 382 -168 451 -111 m 267 804 l 297 976 l 478 976 l 447 804 m 544 804 l 575 976 l 756 976 l 725 804 "},"Ā":{"ha":893,"x_min":0,"x_max":0,"o":"m 575 715 l 574 715 l 390 349 l 625 349 m 678 0 l 653 190 l 313 190 l 214 0 l 4 0 l 496 922 l 719 922 l 882 0 m 372 1075 l 394 1201 l 924 1201 l 901 1075 "},"ā":{"ha":675,"x_min":0,"x_max":0,"o":"m 510 335 b 386 294 489 317 456 307 b 231 172 257 271 231 236 b 311 111 231 129 264 111 b 496 260 399 111 481 179 m 464 0 b 461 29 463 8 461 18 b 464 61 461 39 463 50 b 243 -18 413 14 335 -18 b 44 138 107 -18 44 44 b 406 414 44 340 188 385 b 535 492 529 431 535 454 b 431 563 535 550 496 563 b 290 461 349 563 308 522 l 122 461 b 464 701 150 603 244 701 b 715 510 646 701 715 633 b 708 432 715 485 713 460 l 632 0 m 222 836 l 244 963 l 774 963 l 751 836 "},"Ă":{"ha":893,"x_min":0,"x_max":0,"o":"m 575 715 l 574 715 l 390 349 l 625 349 m 678 0 l 653 190 l 313 190 l 214 0 l 4 0 l 496 922 l 719 922 l 882 0 m 899 1275 b 632 1044 871 1121 747 1044 b 443 1224 531 1044 443 1104 b 449 1275 443 1239 446 1257 l 563 1275 b 560 1247 561 1265 560 1256 b 651 1154 560 1188 592 1154 b 785 1275 719 1154 768 1199 "},"ă":{"ha":675,"x_min":0,"x_max":0,"o":"m 510 335 b 386 294 489 317 456 307 b 231 172 257 271 231 236 b 311 111 231 129 264 111 b 496 260 399 111 481 179 m 464 0 b 461 29 463 8 461 18 b 464 61 461 39 463 50 b 243 -18 413 14 335 -18 b 44 138 107 -18 44 44 b 406 414 44 340 188 385 b 535 492 529 431 535 454 b 431 563 535 550 496 563 b 290 461 349 563 308 522 l 122 461 b 464 701 150 603 244 701 b 715 510 646 701 715 633 b 708 432 715 485 713 460 l 632 0 m 747 1036 b 481 806 719 882 596 806 b 292 985 379 806 292 865 b 297 1036 292 1000 294 1018 l 411 1036 b 408 1008 410 1026 408 1017 b 500 915 408 949 440 915 b 633 1036 568 915 617 960 "},"Ą":{"ha":893,"x_min":0,"x_max":0,"o":"m 831 -287 b 678 -324 800 -308 753 -324 b 543 -229 589 -324 543 -287 b 822 0 543 -128 657 -49 l 672 0 l 647 190 l 307 190 l 208 0 l 4 0 l 496 922 l 719 922 l 882 0 b 700 -135 724 -67 700 -93 b 782 -174 700 -161 732 -174 b 853 -162 808 -174 835 -168 m 568 715 l 385 349 l 619 349 "},"ą":{"ha":675,"x_min":0,"x_max":0,"o":"m 581 -287 b 428 -324 550 -308 503 -324 b 293 -229 339 -324 293 -287 b 572 0 293 -128 407 -49 l 464 0 b 461 35 463 10 461 22 b 463 61 461 43 461 53 b 242 -18 411 14 333 -18 b 43 131 106 -18 43 40 b 47 169 43 143 44 156 b 404 414 82 367 218 389 b 535 503 500 426 535 447 b 431 563 535 540 494 563 b 289 461 349 563 308 522 l 121 461 b 464 701 149 603 244 701 b 714 510 644 701 714 633 b 707 432 714 486 711 460 l 632 0 b 450 -135 474 -67 450 -93 b 532 -174 450 -161 482 -174 b 603 -162 558 -174 585 -168 m 510 335 b 386 294 489 317 454 307 b 229 169 274 274 229 239 b 306 111 229 131 256 111 b 494 260 400 111 478 179 "},"Ć":{"ha":851,"x_min":0,"x_max":0,"o":"m 900 317 b 442 -32 825 107 656 -32 b 89 350 233 -32 89 101 b 618 953 89 706 306 953 b 956 649 836 953 956 821 b 954 619 956 639 954 629 l 761 619 b 590 786 754 744 682 786 b 288 369 383 786 288 600 b 465 136 288 197 346 136 b 707 317 579 136 661 201 m 513 1008 l 482 1085 l 800 1253 l 844 1139 "},"ć":{"ha":668,"x_min":0,"x_max":0,"o":"m 549 439 b 550 458 549 446 550 451 b 439 551 550 526 501 551 b 258 293 343 551 258 481 b 360 133 258 172 301 133 b 513 247 431 133 493 174 l 694 247 b 335 -18 647 89 500 -18 b 76 267 176 -18 76 79 b 467 701 76 560 238 701 b 732 472 632 701 732 614 b 731 439 732 461 732 450 m 379 769 l 349 846 l 667 1014 l 711 900 "},"Ċ":{"ha":851,"x_min":0,"x_max":0,"o":"m 900 317 b 442 -32 825 107 656 -32 b 89 350 233 -32 89 101 b 618 953 89 706 306 953 b 956 649 836 953 956 821 b 954 619 956 639 954 629 l 761 619 b 590 786 754 744 682 786 b 288 369 383 786 288 600 b 465 136 288 197 346 136 b 707 317 579 136 661 201 m 546 1043 l 576 1215 l 757 1215 l 726 1043 "},"ċ":{"ha":668,"x_min":0,"x_max":0,"o":"m 549 439 b 550 458 549 446 550 451 b 439 551 550 526 501 551 b 258 293 343 551 258 481 b 360 133 258 172 301 133 b 513 247 431 133 493 174 l 694 247 b 335 -18 647 89 500 -18 b 76 267 176 -18 76 79 b 467 701 76 560 238 701 b 732 472 632 701 732 614 b 731 439 732 461 732 450 m 401 804 l 432 976 l 613 976 l 582 804 "},"Č":{"ha":851,"x_min":0,"x_max":0,"o":"m 900 317 b 442 -32 825 107 656 -32 b 89 350 233 -32 89 101 b 618 953 89 706 306 953 b 956 649 836 953 956 821 b 954 619 956 639 954 629 l 761 619 b 590 786 754 744 682 786 b 288 369 383 786 288 600 b 465 136 288 197 346 136 b 707 317 579 136 661 201 m 694 1018 l 547 1018 l 403 1204 l 479 1275 l 638 1111 l 854 1275 l 906 1204 "},"č":{"ha":668,"x_min":0,"x_max":0,"o":"m 549 439 b 550 458 549 446 550 451 b 439 551 550 526 501 551 b 258 293 343 551 258 481 b 360 133 258 172 301 133 b 513 247 431 133 493 174 l 694 247 b 335 -18 647 89 500 -18 b 76 267 176 -18 76 79 b 467 701 76 560 238 701 b 732 472 632 701 732 614 b 731 439 732 461 732 450 m 550 779 l 403 779 l 258 965 l 335 1036 l 493 872 l 710 1036 l 761 965 "},"Ď":{"ha":843,"x_min":0,"x_max":0,"o":"m 407 157 b 713 557 638 157 713 332 b 497 763 713 719 647 763 l 354 763 l 247 157 m 32 0 l 194 922 l 551 922 b 910 556 769 922 910 783 b 418 0 910 242 696 0 m 624 1018 l 476 1018 l 332 1204 l 408 1275 l 567 1111 l 783 1275 l 835 1204 "},"ď":{"ha":908,"x_min":0,"x_max":0,"o":"m 382 129 b 578 392 482 129 578 231 b 457 547 578 515 538 547 b 260 292 317 547 260 435 b 382 129 260 182 307 129 m 510 0 l 524 83 b 315 -18 468 14 399 -18 b 75 268 168 -18 75 89 b 426 701 75 510 217 701 b 610 594 511 701 572 667 l 669 933 l 847 933 l 683 0 m 831 625 b 964 772 906 643 947 685 l 857 772 l 890 960 l 1082 960 l 1057 818 b 819 556 1029 661 968 586 "},"đ":{"ha":726,"x_min":0,"x_max":0,"o":"m 517 0 l 533 113 b 318 -18 479 15 388 -18 b 78 250 172 -18 78 79 b 431 701 78 507 232 701 b 611 569 508 701 594 675 l 642 743 l 417 743 l 438 860 l 663 860 l 675 933 l 849 933 l 836 860 l 876 860 l 856 743 l 815 743 l 685 0 m 379 125 b 578 339 472 125 551 192 b 583 403 582 363 583 383 b 454 550 583 497 538 550 b 264 339 360 550 290 489 b 257 265 258 311 257 288 b 379 125 257 168 303 125 "},"Ē":{"ha":739,"x_min":0,"x_max":0,"o":"m 32 0 l 194 922 l 872 922 l 844 761 l 354 761 l 319 564 l 771 564 l 742 401 l 290 401 l 249 164 l 761 164 l 732 0 m 294 1075 l 317 1201 l 846 1201 l 824 1075 "},"ē":{"ha":699,"x_min":0,"x_max":0,"o":"m 251 294 l 251 263 b 376 125 251 165 297 125 b 513 201 435 125 492 154 l 699 201 b 360 -18 632 61 506 -18 b 72 264 168 -18 72 79 b 475 701 72 528 231 701 b 736 428 647 701 736 610 b 724 294 736 388 732 343 m 558 408 b 561 450 561 424 561 438 b 444 558 561 538 506 558 b 272 408 353 558 299 493 m 233 836 l 256 963 l 785 963 l 763 836 "},"Ĕ":{"ha":739,"x_min":0,"x_max":0,"o":"m 32 0 l 194 922 l 872 922 l 844 761 l 354 761 l 319 564 l 771 564 l 742 401 l 290 401 l 249 164 l 761 164 l 732 0 m 833 1275 b 567 1044 806 1121 682 1044 b 378 1224 465 1044 378 1104 b 383 1275 378 1239 381 1257 l 497 1275 b 494 1247 496 1265 494 1256 b 586 1154 494 1188 526 1154 b 719 1275 654 1154 703 1199 "},"ĕ":{"ha":699,"x_min":0,"x_max":0,"o":"m 251 294 l 251 263 b 376 125 251 165 297 125 b 513 201 435 125 492 154 l 699 201 b 360 -18 632 61 506 -18 b 72 264 168 -18 72 79 b 475 701 72 528 231 701 b 736 428 647 701 736 610 b 724 294 736 388 732 343 m 558 408 b 561 450 561 424 561 438 b 444 558 561 538 506 558 b 272 408 353 558 299 493 m 758 1036 b 492 806 731 882 607 806 b 303 985 390 806 303 865 b 308 1036 303 1000 306 1018 l 422 1036 b 419 1008 421 1026 419 1017 b 511 915 419 949 451 915 b 644 1036 579 915 628 960 "},"Ė":{"ha":739,"x_min":0,"x_max":0,"o":"m 32 0 l 194 922 l 872 922 l 844 761 l 354 761 l 319 564 l 771 564 l 742 401 l 290 401 l 249 164 l 761 164 l 732 0 m 479 1043 l 510 1215 l 690 1215 l 660 1043 "},"ė":{"ha":699,"x_min":0,"x_max":0,"o":"m 251 294 l 251 263 b 376 125 251 165 297 125 b 513 201 435 125 492 154 l 699 201 b 360 -18 632 61 506 -18 b 72 264 168 -18 72 79 b 475 701 72 528 231 701 b 736 428 647 701 736 610 b 724 294 736 388 732 343 m 558 408 b 561 450 561 424 561 438 b 444 558 561 538 506 558 b 272 408 353 558 299 493 m 407 804 l 438 976 l 618 976 l 588 804 "},"Ę":{"ha":739,"x_min":0,"x_max":0,"o":"m 681 -287 b 528 -324 650 -308 603 -324 b 393 -229 439 -324 393 -287 b 672 0 393 -128 507 -49 l 32 0 l 194 922 l 872 922 l 843 761 l 353 761 l 318 564 l 769 564 l 740 401 l 289 401 l 247 164 l 760 164 l 732 0 b 550 -135 574 -67 550 -93 b 632 -174 550 -161 582 -174 b 703 -162 658 -174 685 -168 "},"ę":{"ha":699,"x_min":0,"x_max":0,"o":"m 425 -287 b 272 -324 394 -308 347 -324 b 138 -229 183 -324 138 -287 b 360 -18 138 -139 226 -67 l 358 -18 b 71 244 167 -18 71 69 b 475 701 71 517 232 701 b 736 426 647 701 736 610 b 724 294 736 386 732 343 l 253 294 b 250 263 251 283 250 272 b 375 125 250 178 296 125 b 511 201 433 125 490 154 l 697 201 b 476 0 649 100 569 31 b 294 -135 318 -67 294 -93 b 376 -174 294 -161 326 -174 b 447 -162 403 -174 429 -168 m 557 408 b 560 439 558 419 560 429 b 443 558 560 519 506 558 b 278 408 371 558 301 503 "},"Ě":{"ha":739,"x_min":0,"x_max":0,"o":"m 32 0 l 194 922 l 872 922 l 844 761 l 354 761 l 319 564 l 771 564 l 742 401 l 290 401 l 249 164 l 761 164 l 732 0 m 624 1018 l 476 1018 l 332 1204 l 408 1275 l 567 1111 l 783 1275 l 835 1204 "},"ě":{"ha":699,"x_min":0,"x_max":0,"o":"m 251 294 l 251 263 b 376 125 251 165 297 125 b 513 201 435 125 492 154 l 699 201 b 360 -18 632 61 506 -18 b 72 264 168 -18 72 79 b 475 701 72 528 231 701 b 736 428 647 701 736 610 b 724 294 736 388 732 343 m 558 408 b 561 450 561 424 561 438 b 444 558 561 538 506 558 b 272 408 353 558 299 493 m 563 779 l 415 779 l 271 965 l 347 1036 l 506 872 l 722 1036 l 774 965 "},"Ğ":{"ha":914,"x_min":0,"x_max":0,"o":"m 719 0 l 732 92 b 433 -32 674 14 560 -32 b 93 376 213 -32 93 160 b 643 953 93 678 296 953 b 992 668 850 953 992 836 b 990 638 992 658 992 647 l 796 638 l 796 649 b 615 793 796 743 717 793 b 292 390 428 793 292 631 b 497 131 292 232 349 131 b 758 342 624 131 739 226 l 554 342 l 582 496 l 967 496 l 879 0 m 919 1275 b 653 1044 892 1121 768 1044 b 464 1224 551 1044 464 1104 b 469 1275 464 1239 467 1257 l 583 1275 b 581 1247 582 1265 581 1256 b 672 1154 581 1188 613 1154 b 806 1275 740 1154 789 1199 "},"ğ":{"ha":736,"x_min":0,"x_max":0,"o":"m 388 136 b 583 392 489 136 583 229 b 460 544 583 499 542 544 b 264 293 328 544 264 440 b 388 136 264 178 313 136 m 529 92 b 324 -6 493 31 413 -6 b 75 268 139 -6 75 124 b 444 701 75 525 256 701 b 618 599 531 701 588 668 l 633 683 l 814 683 l 692 -7 b 296 -324 656 -212 486 -324 b 10 -90 125 -324 10 -236 b 15 -37 10 -74 13 -56 l 183 -37 b 182 -64 182 -47 182 -56 b 311 -168 182 -137 229 -168 b 508 -21 408 -168 492 -111 m 775 1036 b 508 806 747 882 624 806 b 319 985 407 806 319 865 b 325 1036 319 1000 322 1018 l 439 1036 b 436 1008 438 1026 436 1017 b 528 915 436 949 468 915 b 661 1036 596 915 644 960 "},"Ġ":{"ha":914,"x_min":0,"x_max":0,"o":"m 719 0 l 732 92 b 433 -32 674 14 560 -32 b 93 376 213 -32 93 160 b 643 953 93 678 296 953 b 992 668 850 953 992 836 b 990 638 992 658 992 647 l 796 638 l 796 649 b 615 793 796 743 717 793 b 292 390 428 793 292 631 b 497 131 292 232 349 131 b 758 342 624 131 739 226 l 554 342 l 582 496 l 967 496 l 879 0 m 575 1043 l 606 1215 l 786 1215 l 756 1043 "},"ġ":{"ha":736,"x_min":0,"x_max":0,"o":"m 388 136 b 583 392 489 136 583 229 b 460 544 583 499 542 544 b 264 293 328 544 264 440 b 388 136 264 178 313 136 m 529 92 b 324 -6 493 31 413 -6 b 75 268 139 -6 75 124 b 444 701 75 525 256 701 b 618 599 531 701 588 668 l 633 683 l 814 683 l 692 -7 b 296 -324 656 -212 486 -324 b 10 -90 125 -324 10 -236 b 15 -37 10 -74 13 -56 l 183 -37 b 182 -64 182 -47 182 -56 b 311 -168 182 -137 229 -168 b 508 -21 408 -168 492 -111 m 413 804 l 443 976 l 624 976 l 593 804 "},"Ģ":{"ha":914,"x_min":0,"x_max":0,"o":"m 719 0 l 732 92 b 433 -32 674 14 560 -32 b 93 376 213 -32 93 160 b 643 953 93 678 296 953 b 992 668 850 953 992 836 b 990 638 992 658 992 647 l 796 638 l 796 649 b 615 793 796 743 717 793 b 292 390 428 793 292 631 b 497 131 292 232 349 131 b 758 342 624 131 739 226 l 554 342 l 582 496 l 967 496 l 879 0 m 335 -264 b 440 -174 393 -260 429 -228 l 351 -174 l 374 -46 l 533 -46 l 518 -135 b 325 -324 500 -235 447 -312 "},"ģ":{"ha":736,"x_min":0,"x_max":0,"o":"m 388 136 b 583 392 489 136 583 229 b 460 544 583 499 542 544 b 264 293 328 544 264 440 b 388 136 264 178 313 136 m 529 92 b 324 -6 493 31 413 -6 b 75 268 139 -6 75 124 b 444 701 75 525 256 701 b 618 599 531 701 588 668 l 633 683 l 814 683 l 692 -7 b 296 -324 656 -212 486 -324 b 10 -90 125 -324 10 -236 b 15 -37 10 -74 13 -56 l 183 -37 b 182 -64 182 -47 182 -56 b 311 -168 182 -137 229 -168 b 508 -21 408 -168 492 -111 m 613 971 b 507 881 554 967 518 935 l 596 881 l 574 753 l 414 753 l 429 842 b 622 1031 447 942 500 1019 "},"Ħ":{"ha":815,"x_min":0,"x_max":0,"o":"m 585 0 l 657 414 l 297 414 l 225 0 l 32 0 l 194 922 l 388 922 l 367 811 l 726 811 l 747 922 l 942 922 l 779 0 m 704 685 l 344 685 l 325 575 l 685 575 "},"ħ":{"ha":699,"x_min":0,"x_max":0,"o":"m 474 0 l 547 424 b 553 475 550 443 553 460 b 454 558 553 538 521 558 b 285 392 364 558 300 483 l 217 0 l 36 0 l 167 747 l 131 747 l 153 874 l 189 874 l 200 933 l 381 933 l 369 874 l 599 874 l 576 747 l 347 747 l 321 594 b 542 701 358 656 450 701 b 744 528 665 701 744 638 b 740 483 744 514 743 499 l 656 0 "},"Ĩ":{"ha":260,"x_min":0,"x_max":0,"o":"m 32 0 l 194 922 l 388 922 l 225 0 m 579 1175 b 404 1039 531 1075 464 1039 b 236 1101 333 1039 296 1101 b 172 1040 225 1101 197 1092 l 85 1092 b 242 1214 131 1182 185 1214 b 414 1147 326 1214 361 1147 b 482 1213 431 1147 464 1164 "},"ĩ":{"ha":378,"x_min":0,"x_max":0,"o":"m 596 936 b 421 800 547 836 481 800 b 253 863 350 800 313 863 b 189 801 242 863 214 853 l 101 853 b 258 975 147 943 201 975 b 431 908 343 975 378 908 b 499 974 447 908 481 925 m 96 0 l 215 683 l 396 683 l 276 0 "},"Ī":{"ha":260,"x_min":0,"x_max":0,"o":"m 32 0 l 194 922 l 388 922 l 225 0 m 58 1075 l 81 1201 l 610 1201 l 588 1075 "},"ī":{"ha":378,"x_min":0,"x_max":0,"o":"m 74 836 l 96 963 l 625 963 l 603 836 m 96 0 l 215 683 l 396 683 l 276 0 "},"Ĭ":{"ha":260,"x_min":0,"x_max":0,"o":"m 32 0 l 194 922 l 388 922 l 225 0 m 583 1275 b 317 1044 556 1121 432 1044 b 128 1224 215 1044 128 1104 b 133 1275 128 1239 131 1257 l 247 1275 b 244 1247 246 1265 244 1256 b 336 1154 244 1188 276 1154 b 469 1275 404 1154 453 1199 "},"ĭ":{"ha":378,"x_min":0,"x_max":0,"o":"m 599 1036 b 332 806 571 882 447 806 b 143 985 231 806 143 865 b 149 1036 143 1000 146 1018 l 263 1036 b 260 1008 261 1026 260 1017 b 351 915 260 949 292 915 b 485 1036 419 915 468 960 m 96 0 l 215 683 l 396 683 l 276 0 "},"Į":{"ha":260,"x_min":0,"x_max":0,"o":"m 174 -287 b 21 -324 143 -308 96 -324 b -112 -229 -67 -324 -112 -287 b 165 0 -112 -128 0 -49 l 32 0 l 194 922 l 388 922 l 225 0 b 43 -135 67 -67 43 -93 b 125 -174 43 -161 75 -174 b 196 -162 151 -174 178 -168 "},"į":{"ha":267,"x_min":0,"x_max":0,"o":"m 169 -287 b 17 -324 139 -308 92 -324 b -117 -229 -71 -324 -117 -287 b 161 0 -117 -128 -4 -49 l 40 0 l 160 683 l 340 683 l 221 0 b 39 -135 63 -67 39 -93 b 121 -174 39 -161 71 -174 b 192 -162 147 -174 174 -168 m 175 765 l 204 933 l 385 933 l 356 765 "},"İ":{"ha":260,"x_min":0,"x_max":0,"o":"m 32 0 l 194 922 l 388 922 l 225 0 m 231 1043 l 261 1215 l 442 1215 l 411 1043 "},"ı":{"ha":267,"x_min":0,"x_max":0,"o":"m 40 0 l 160 683 l 340 683 l 221 0 "},"Ĳ":{"ha":890,"x_min":0,"x_max":0,"o":"m 32 0 l 194 922 l 388 922 l 225 0 m 822 922 l 1015 922 l 897 249 b 544 -32 868 81 742 -32 b 303 181 390 -32 303 40 b 310 254 303 204 306 228 l 326 349 l 501 349 l 488 264 b 481 206 483 240 481 221 b 572 125 481 144 510 125 b 707 267 661 125 689 165 "},"ĳ":{"ha":540,"x_min":0,"x_max":0,"o":"m 40 0 l 161 683 l 342 683 l 221 0 m 175 765 l 204 933 l 385 933 l 356 765 m 426 683 l 608 683 l 479 -46 b 161 -324 450 -211 314 -324 b -71 -114 1 -324 -71 -244 b -64 -37 -71 -90 -68 -64 l 106 -37 b 100 -92 101 -58 100 -76 b 179 -164 100 -146 124 -164 b 299 -39 251 -164 285 -117 m 440 765 l 469 933 l 651 933 l 622 765 "},"Ķ":{"ha":839,"x_min":0,"x_max":0,"o":"m 604 0 l 403 418 l 278 314 l 222 0 l 32 0 l 194 922 l 385 922 l 321 556 l 732 922 l 988 922 l 560 558 l 833 0 m 310 -264 b 415 -174 368 -260 404 -228 l 326 -174 l 349 -46 l 508 -46 l 493 -135 b 300 -324 475 -235 422 -312 "},"ķ":{"ha":671,"x_min":0,"x_max":0,"o":"m 461 0 l 364 313 l 257 217 l 218 0 l 36 0 l 200 933 l 382 933 l 296 436 l 558 683 l 785 683 l 511 432 l 658 0 m 214 -264 b 319 -174 272 -260 308 -228 l 231 -174 l 253 -46 l 413 -46 l 397 -135 b 204 -324 379 -235 326 -312 "},"Ĺ":{"ha":696,"x_min":0,"x_max":0,"o":"m 32 0 l 194 922 l 388 922 l 254 168 l 711 168 l 682 0 m 229 1008 l 199 1085 l 517 1253 l 561 1139 "},"ĺ":{"ha":257,"x_min":0,"x_max":0,"o":"m 36 0 l 200 933 l 381 933 l 217 0 m 218 1008 l 188 1085 l 506 1253 l 550 1139 "},"Ļ":{"ha":696,"x_min":0,"x_max":0,"o":"m 32 0 l 194 922 l 388 922 l 254 168 l 711 168 l 682 0 m 246 -264 b 351 -174 304 -260 340 -228 l 263 -174 l 285 -46 l 444 -46 l 429 -135 b 236 -324 411 -235 358 -312 "},"ļ":{"ha":257,"x_min":0,"x_max":0,"o":"m 36 0 l 200 933 l 381 933 l 217 0 m 7 -264 b 113 -174 65 -260 101 -228 l 24 -174 l 46 -46 l 206 -46 l 190 -135 b -3 -324 172 -235 119 -312 "},"Ľ":{"ha":696,"x_min":0,"x_max":0,"o":"m 32 0 l 194 922 l 388 922 l 254 168 l 711 168 l 682 0 m 385 625 b 518 772 460 643 501 685 l 411 772 l 444 960 l 636 960 l 611 818 b 374 556 583 661 522 586 "},"ľ":{"ha":444,"x_min":0,"x_max":0,"o":"m 36 0 l 200 933 l 381 933 l 217 0 m 361 622 b 494 769 436 640 478 682 l 388 769 l 421 957 l 613 957 l 588 815 b 350 553 560 658 499 583 "},"Ł":{"ha":696,"x_min":0,"x_max":0,"o":"m 32 0 l 194 922 l 388 922 l 317 524 l 529 611 l 507 488 l 296 400 l 254 168 l 711 168 l 682 0 "},"ł":{"ha":363,"x_min":0,"x_max":0,"o":"m 86 0 l 151 369 l 58 332 l 81 454 l 172 492 l 250 933 l 431 933 l 367 571 l 463 611 l 440 488 l 346 449 l 267 0 "},"Ń":{"ha":821,"x_min":0,"x_max":0,"o":"m 611 0 l 321 619 l 211 0 l 32 0 l 194 922 l 393 922 l 661 329 l 765 922 l 946 922 l 783 0 m 497 1008 l 467 1085 l 785 1253 l 829 1139 "},"ń":{"ha":699,"x_min":0,"x_max":0,"o":"m 474 0 l 547 414 b 553 472 551 436 553 456 b 454 549 553 533 522 549 b 286 392 360 549 304 496 l 217 0 l 36 0 l 157 683 l 329 683 l 311 583 b 553 701 367 660 443 701 b 743 526 667 701 743 640 b 739 474 743 510 742 492 l 656 0 m 394 769 l 364 846 l 682 1014 l 726 900 "},"Ņ":{"ha":821,"x_min":0,"x_max":0,"o":"m 611 0 l 321 619 l 211 0 l 32 0 l 194 922 l 393 922 l 661 329 l 765 922 l 946 922 l 783 0 m 299 -264 b 404 -174 357 -260 393 -228 l 315 -174 l 338 -46 l 497 -46 l 482 -135 b 289 -324 464 -235 411 -312 "},"ņ":{"ha":699,"x_min":0,"x_max":0,"o":"m 474 0 l 547 414 b 553 472 551 436 553 456 b 454 549 553 533 522 549 b 286 392 360 549 304 496 l 217 0 l 36 0 l 157 683 l 329 683 l 311 583 b 553 701 367 660 443 701 b 743 526 667 701 743 640 b 739 474 743 510 742 492 l 656 0 m 232 -264 b 338 -174 290 -260 326 -228 l 249 -174 l 271 -46 l 431 -46 l 415 -135 b 222 -324 397 -235 344 -312 "},"Ň":{"ha":821,"x_min":0,"x_max":0,"o":"m 611 0 l 321 619 l 211 0 l 32 0 l 194 922 l 393 922 l 661 329 l 765 922 l 946 922 l 783 0 m 675 1018 l 528 1018 l 383 1204 l 460 1275 l 618 1111 l 835 1275 l 886 1204 "},"ň":{"ha":699,"x_min":0,"x_max":0,"o":"m 474 0 l 547 414 b 553 472 551 436 553 456 b 454 549 553 533 522 549 b 286 392 360 549 304 496 l 217 0 l 36 0 l 157 683 l 329 683 l 311 583 b 553 701 367 660 443 701 b 743 526 667 701 743 640 b 739 474 743 510 742 492 l 656 0 m 588 779 l 440 779 l 296 965 l 372 1036 l 531 872 l 747 1036 l 799 965 "},"Ŋ":{"ha":821,"x_min":0,"x_max":0,"o":"m 451 -161 b 475 -164 458 -162 467 -164 b 596 -39 546 -164 583 -117 l 603 4 l 319 619 l 211 0 l 32 0 l 194 922 l 399 922 l 660 329 l 765 922 l 946 922 l 775 -46 b 456 -324 746 -211 608 -324 b 424 -322 443 -324 435 -322 "},"ŋ":{"ha":699,"x_min":0,"x_max":0,"o":"m 326 -162 b 347 -164 332 -162 339 -164 b 467 -39 419 -164 453 -117 l 549 429 b 551 469 551 444 551 457 b 453 549 551 531 521 549 b 285 392 358 549 303 496 l 217 0 l 36 0 l 156 683 l 328 683 l 311 583 b 553 701 365 660 443 701 b 743 525 667 701 743 640 b 739 474 743 508 742 492 l 647 -46 b 328 -324 618 -211 481 -324 b 299 -322 317 -324 308 -322 "},"Ō":{"ha":931,"x_min":0,"x_max":0,"o":"m 488 133 b 803 538 654 133 803 263 b 601 782 803 718 733 782 b 281 365 397 782 281 615 b 488 133 281 190 356 133 m 458 -32 b 89 344 218 -32 89 104 b 632 953 89 704 293 953 b 996 563 871 953 996 807 b 458 -32 996 189 801 -32 m 392 1075 l 414 1201 l 943 1201 l 921 1075 "},"ō":{"ha":749,"x_min":0,"x_max":0,"o":"m 396 133 b 604 397 536 133 604 236 b 469 549 604 521 558 549 b 261 286 328 549 261 447 b 396 133 261 168 306 133 m 369 -18 b 74 275 178 -18 74 101 b 496 701 74 524 247 701 b 788 410 681 701 788 586 b 369 -18 788 160 614 -18 m 258 836 l 281 963 l 810 963 l 788 836 "},"Ŏ":{"ha":931,"x_min":0,"x_max":0,"o":"m 488 133 b 803 538 654 133 803 263 b 601 782 803 718 733 782 b 281 365 397 782 281 615 b 488 133 281 190 356 133 m 458 -32 b 89 344 218 -32 89 104 b 632 953 89 704 293 953 b 996 563 871 953 996 807 b 458 -32 996 189 801 -32 m 917 1275 b 650 1044 889 1121 765 1044 b 461 1224 549 1044 461 1104 b 467 1275 461 1239 464 1257 l 581 1275 b 578 1247 579 1265 578 1256 b 669 1154 578 1188 610 1154 b 803 1275 738 1154 786 1199 "},"ŏ":{"ha":749,"x_min":0,"x_max":0,"o":"m 396 133 b 604 397 536 133 604 236 b 469 549 604 521 558 549 b 261 286 328 549 261 447 b 396 133 261 168 306 133 m 369 -18 b 74 275 178 -18 74 101 b 496 701 74 524 247 701 b 788 410 681 701 788 586 b 369 -18 788 160 614 -18 m 785 1036 b 518 806 757 882 633 806 b 329 985 417 806 329 865 b 335 1036 329 1000 332 1018 l 449 1036 b 446 1008 447 1026 446 1017 b 538 915 446 949 478 915 b 671 1036 606 915 654 960 "},"Ő":{"ha":931,"x_min":0,"x_max":0,"o":"m 488 133 b 803 538 654 133 803 263 b 601 782 803 718 733 782 b 281 365 397 782 281 615 b 488 133 281 190 356 133 m 458 -32 b 89 344 218 -32 89 104 b 632 953 89 704 293 953 b 996 563 871 953 996 807 b 458 -32 996 189 801 -32 m 543 1029 l 500 1075 l 725 1279 l 778 1228 m 710 1029 l 667 1075 l 900 1275 l 953 1224 "},"ő":{"ha":749,"x_min":0,"x_max":0,"o":"m 396 133 b 604 397 536 133 604 236 b 469 549 604 521 558 549 b 261 286 328 549 261 447 b 396 133 261 168 306 133 m 369 -18 b 74 275 178 -18 74 101 b 496 701 74 524 247 701 b 788 410 681 701 788 586 b 369 -18 788 160 614 -18 m 400 790 l 357 836 l 582 1040 l 635 989 m 567 790 l 524 836 l 757 1036 l 810 985 "},"Œ":{"ha":1339,"x_min":0,"x_max":0,"o":"m 717 0 l 721 24 b 458 -32 647 -12 558 -32 b 89 344 218 -32 89 104 b 632 953 89 704 293 953 b 871 879 732 953 813 926 l 879 922 l 1557 922 l 1529 761 l 1039 761 l 1004 564 l 1456 564 l 1426 401 l 979 401 l 933 164 l 1446 164 l 1417 0 m 488 133 b 803 538 654 133 803 263 b 601 782 803 718 733 782 b 281 365 397 782 281 615 b 488 133 281 190 356 133 "},"œ":{"ha":1204,"x_min":0,"x_max":0,"o":"m 756 294 b 751 253 753 279 751 267 b 879 125 751 169 801 125 b 1015 201 938 125 994 154 l 1201 201 b 863 -18 1135 61 1008 -18 b 626 69 751 -18 672 11 b 369 -18 557 13 469 -18 b 74 275 178 -18 74 101 b 496 701 74 524 247 701 b 724 613 597 701 674 669 b 978 701 790 669 876 701 b 1239 428 1150 701 1239 610 b 1226 294 1239 388 1235 343 m 396 133 b 604 397 536 133 604 236 b 469 549 604 513 558 549 b 261 286 328 549 261 447 b 396 133 261 167 306 133 m 1061 408 b 1064 444 1063 421 1064 433 b 947 558 1064 531 1010 558 b 782 408 875 558 806 503 "},"Ŕ":{"ha":803,"x_min":0,"x_max":0,"o":"m 354 763 l 311 517 l 553 517 b 718 664 674 517 718 583 b 603 763 718 742 685 763 m 569 0 l 611 238 b 615 282 614 254 615 269 b 489 361 615 344 581 361 l 283 361 l 219 0 l 32 0 l 194 922 l 663 922 b 904 697 814 922 904 828 b 724 442 904 582 836 479 b 811 325 783 421 811 389 b 804 261 811 307 808 285 l 758 0 m 489 1008 l 458 1085 l 776 1253 l 821 1139 "},"ŕ":{"ha":446,"x_min":0,"x_max":0,"o":"m 36 0 l 157 683 l 326 683 l 311 601 b 532 701 388 693 458 701 l 556 701 l 524 517 b 474 521 507 519 490 521 b 279 356 363 521 299 465 l 217 0 m 283 769 l 253 846 l 571 1014 l 615 900 "},"Ŗ":{"ha":803,"x_min":0,"x_max":0,"o":"m 354 763 l 311 517 l 553 517 b 718 664 674 517 718 583 b 603 763 718 742 685 763 m 569 0 l 611 238 b 615 282 614 254 615 269 b 489 361 615 344 581 361 l 283 361 l 219 0 l 32 0 l 194 922 l 663 922 b 904 697 814 922 904 828 b 724 442 904 582 836 479 b 811 325 783 421 811 389 b 804 261 811 307 808 285 l 758 0 m 279 -264 b 385 -174 338 -260 374 -228 l 296 -174 l 318 -46 l 478 -46 l 463 -135 b 269 -324 444 -235 392 -312 "},"ŗ":{"ha":446,"x_min":0,"x_max":0,"o":"m 36 0 l 157 683 l 326 683 l 311 601 b 532 701 388 693 458 701 l 556 701 l 524 517 b 474 521 507 519 490 521 b 279 356 363 521 299 465 l 217 0 m 8 -264 b 114 -174 67 -260 103 -228 l 25 -174 l 47 -46 l 207 -46 l 192 -135 b -1 -324 174 -235 121 -312 "},"Ř":{"ha":803,"x_min":0,"x_max":0,"o":"m 354 763 l 311 517 l 553 517 b 718 664 674 517 718 583 b 603 763 718 742 685 763 m 569 0 l 611 238 b 615 282 614 254 615 269 b 489 361 615 344 581 361 l 283 361 l 219 0 l 32 0 l 194 922 l 663 922 b 904 697 814 922 904 828 b 724 442 904 582 836 479 b 811 325 783 421 811 389 b 804 261 811 307 808 285 l 758 0 m 631 1018 l 483 1018 l 339 1204 l 415 1275 l 574 1111 l 790 1275 l 842 1204 "},"ř":{"ha":446,"x_min":0,"x_max":0,"o":"m 36 0 l 157 683 l 326 683 l 311 601 b 532 701 388 693 458 701 l 556 701 l 524 517 b 474 521 507 519 490 521 b 279 356 363 521 299 465 l 217 0 m 436 779 l 289 779 l 144 965 l 221 1036 l 379 872 l 596 1036 l 647 965 "},"Ś":{"ha":782,"x_min":0,"x_max":0,"o":"m 669 650 b 671 672 669 657 671 665 b 508 790 671 765 618 790 b 324 665 388 790 324 744 b 449 563 324 619 363 583 b 708 482 561 535 640 513 b 817 300 771 453 817 404 b 413 -32 817 82 622 -32 b 53 219 172 -32 53 54 b 57 276 53 238 54 256 l 243 276 b 240 246 242 265 240 256 b 415 124 240 158 314 124 b 625 269 549 124 625 181 b 501 374 625 317 597 353 b 143 633 253 428 143 475 b 538 953 143 813 281 953 b 856 697 740 953 856 853 b 853 650 856 682 854 665 m 478 1008 l 447 1085 l 765 1253 l 810 1139 "},"ś":{"ha":656,"x_min":0,"x_max":0,"o":"m 531 476 b 425 567 531 547 504 567 b 301 501 343 567 301 549 b 400 432 301 468 336 450 b 681 224 594 376 681 371 b 335 -18 681 88 554 -18 b 49 183 156 -18 49 60 b 51 219 49 194 50 207 l 238 219 b 236 199 236 213 236 206 b 357 118 236 143 285 118 b 494 196 431 118 494 142 b 399 267 494 233 461 251 b 122 493 181 317 122 375 b 454 701 122 593 214 701 b 707 514 632 701 707 632 b 704 476 707 501 706 489 m 374 769 l 343 846 l 661 1014 l 706 900 "},"Ş":{"ha":782,"x_min":0,"x_max":0,"o":"m 669 650 b 671 672 669 657 671 665 b 508 790 671 765 618 790 b 324 665 388 790 324 744 b 449 563 324 619 363 583 b 708 482 561 535 640 513 b 817 300 771 453 817 404 b 413 -32 817 82 622 -32 b 53 219 172 -32 53 54 b 57 276 53 238 54 256 l 243 276 b 240 246 242 265 240 256 b 415 124 240 158 314 124 b 625 269 549 124 625 181 b 501 374 625 317 597 353 b 143 633 253 428 143 475 b 538 953 143 813 281 953 b 856 697 740 953 856 853 b 853 650 856 682 854 665 m 269 -264 b 375 -174 328 -260 364 -228 l 286 -174 l 308 -46 l 468 -46 l 453 -135 b 260 -324 435 -235 382 -312 "},"ş":{"ha":656,"x_min":0,"x_max":0,"o":"m 531 476 b 425 567 531 547 504 567 b 301 501 343 567 301 549 b 400 432 301 468 336 450 b 681 224 594 376 681 371 b 335 -18 681 88 554 -18 b 49 183 156 -18 49 60 b 51 219 49 194 50 207 l 238 219 b 236 199 236 213 236 206 b 357 118 236 143 285 118 b 494 196 431 118 494 142 b 399 267 494 233 461 251 b 122 493 181 317 122 375 b 454 701 122 593 214 701 b 707 514 632 701 707 632 b 704 476 707 501 706 489 m 221 -264 b 326 -174 279 -260 315 -228 l 238 -174 l 260 -46 l 419 -46 l 404 -135 b 211 -324 386 -235 333 -312 "},"Š":{"ha":782,"x_min":0,"x_max":0,"o":"m 669 650 b 671 672 669 657 671 665 b 508 790 671 765 618 790 b 324 665 388 790 324 744 b 449 563 324 619 363 583 b 708 482 561 535 640 513 b 817 300 771 453 817 404 b 413 -32 817 82 622 -32 b 53 219 172 -32 53 54 b 57 276 53 238 54 256 l 243 276 b 240 246 242 265 240 256 b 415 124 240 158 314 124 b 625 269 549 124 625 181 b 501 374 625 317 597 353 b 143 633 253 428 143 475 b 538 953 143 813 281 953 b 856 697 740 953 856 853 b 853 650 856 682 854 665 m 636 1018 l 489 1018 l 344 1204 l 421 1275 l 579 1111 l 796 1275 l 847 1204 "},"š":{"ha":656,"x_min":0,"x_max":0,"o":"m 531 476 b 425 567 531 547 504 567 b 301 501 343 567 301 549 b 400 432 301 468 336 450 b 681 224 594 376 681 371 b 335 -18 681 88 554 -18 b 49 183 156 -18 49 60 b 51 219 49 194 50 207 l 238 219 b 236 199 236 213 236 206 b 357 118 236 143 285 118 b 494 196 431 118 494 142 b 399 267 494 233 461 251 b 122 493 181 317 122 375 b 454 701 122 593 214 701 b 707 514 632 701 707 632 b 704 476 707 501 706 489 m 542 779 l 394 779 l 250 965 l 326 1036 l 485 872 l 701 1036 l 753 965 "},"Ţ":{"ha":769,"x_min":0,"x_max":0,"o":"m 283 0 l 418 761 l 140 761 l 168 922 l 918 922 l 890 761 l 611 761 l 476 0 m 263 -264 b 368 -174 321 -260 357 -228 l 279 -174 l 301 -46 l 461 -46 l 446 -135 b 253 -324 428 -235 375 -312 "},"ţ":{"ha":629,"x_min":0,"x_max":0,"o":"m 636 256 b 313 -18 610 111 506 -18 b 76 192 143 -18 76 74 b 82 257 76 213 78 235 l 189 868 l 367 868 l 335 683 l 713 683 l 690 556 l 313 556 l 263 275 b 257 221 258 254 257 236 b 343 139 257 161 285 139 b 472 272 413 139 457 188 l 503 450 l 671 450 m 193 -264 b 299 -174 251 -260 288 -228 l 210 -174 l 232 -46 l 392 -46 l 376 -135 b 183 -324 358 -235 306 -312 "},"Ť":{"ha":769,"x_min":0,"x_max":0,"o":"m 283 0 l 418 761 l 140 761 l 168 922 l 918 922 l 890 761 l 611 761 l 476 0 m 639 1018 l 492 1018 l 347 1204 l 424 1275 l 582 1111 l 799 1275 l 850 1204 "},"ť":{"ha":806,"x_min":0,"x_max":0,"o":"m 636 256 b 313 -18 610 111 506 -18 b 76 192 143 -18 76 74 b 82 257 76 213 78 235 l 189 868 l 367 868 l 335 683 l 713 683 l 690 556 l 313 556 l 263 275 b 257 221 258 254 257 236 b 343 139 257 161 285 139 b 472 272 413 139 457 188 l 503 450 l 671 450 m 725 625 b 858 772 800 643 842 685 l 751 772 l 785 960 l 976 960 l 951 818 b 714 556 924 661 863 586 "},"Ŧ":{"ha":769,"x_min":0,"x_max":0,"o":"m 283 0 l 343 344 l 213 344 l 238 485 l 368 485 l 417 761 l 139 761 l 168 922 l 918 922 l 889 761 l 610 761 l 561 485 l 693 485 l 668 344 l 536 344 l 476 0 "},"ŧ":{"ha":629,"x_min":0,"x_max":0,"o":"m 636 256 b 311 -18 613 111 503 -18 b 75 192 142 -18 75 74 b 81 257 75 213 76 235 l 189 868 l 367 868 l 333 683 l 711 683 l 689 556 l 311 556 l 299 483 l 667 483 l 646 363 l 278 363 l 261 275 b 257 228 258 258 257 242 b 342 139 257 171 282 139 b 471 272 413 139 457 188 l 475 297 l 643 297 "},"Ũ":{"ha":814,"x_min":0,"x_max":0,"o":"m 740 922 l 938 922 l 829 307 b 390 -32 790 83 632 -32 b 76 217 194 -32 76 49 b 85 296 76 240 79 268 l 194 922 l 390 922 l 283 314 b 278 256 279 293 278 274 b 415 128 278 165 328 128 b 632 307 539 128 611 186 m 856 1175 b 681 1039 807 1075 740 1039 b 513 1101 610 1039 572 1101 b 449 1040 501 1101 474 1092 l 361 1092 b 518 1214 407 1182 461 1214 b 690 1147 603 1214 638 1147 b 758 1213 707 1147 740 1164 "},"ũ":{"ha":694,"x_min":0,"x_max":0,"o":"m 481 0 l 497 96 b 265 -18 436 18 360 -18 b 72 176 147 -18 72 58 b 78 233 72 194 74 214 l 157 683 l 338 683 l 263 261 b 257 214 260 243 257 228 b 356 133 257 150 292 133 b 524 289 444 133 507 199 l 593 683 l 772 683 l 651 0 m 765 936 b 590 800 717 836 650 800 b 422 863 519 800 482 863 b 358 801 411 863 383 853 l 271 853 b 428 975 317 943 371 975 b 600 908 513 975 547 908 b 668 974 617 908 650 925 "},"Ū":{"ha":814,"x_min":0,"x_max":0,"o":"m 740 922 l 938 922 l 829 307 b 390 -32 790 83 632 -32 b 76 217 194 -32 76 49 b 85 296 76 240 79 268 l 194 922 l 390 922 l 283 314 b 278 256 279 293 278 274 b 415 128 278 165 328 128 b 632 307 539 128 611 186 m 333 1075 l 356 1201 l 885 1201 l 863 1075 "},"ū":{"ha":694,"x_min":0,"x_max":0,"o":"m 481 0 l 497 96 b 265 -18 436 18 360 -18 b 72 176 147 -18 72 58 b 78 233 72 194 74 214 l 157 683 l 338 683 l 263 261 b 257 214 260 243 257 228 b 356 133 257 150 292 133 b 524 289 444 133 507 199 l 593 683 l 772 683 l 651 0 m 232 836 l 254 963 l 783 963 l 761 836 "},"Ŭ":{"ha":814,"x_min":0,"x_max":0,"o":"m 740 922 l 938 922 l 829 307 b 390 -32 790 83 632 -32 b 76 217 194 -32 76 49 b 85 296 76 240 79 268 l 194 922 l 390 922 l 283 314 b 278 256 279 293 278 274 b 415 128 278 165 328 128 b 632 307 539 128 611 186 m 858 1275 b 592 1044 831 1121 707 1044 b 403 1224 490 1044 403 1104 b 408 1275 403 1239 406 1257 l 522 1275 b 519 1247 521 1265 519 1256 b 611 1154 519 1188 551 1154 b 744 1275 679 1154 728 1199 "},"ŭ":{"ha":694,"x_min":0,"x_max":0,"o":"m 481 0 l 497 96 b 265 -18 436 18 360 -18 b 72 176 147 -18 72 58 b 78 233 72 194 74 214 l 157 683 l 338 683 l 263 261 b 257 214 260 243 257 228 b 356 133 257 150 292 133 b 524 289 444 133 507 199 l 593 683 l 772 683 l 651 0 m 757 1036 b 490 806 729 882 606 806 b 301 985 389 806 301 865 b 307 1036 301 1000 304 1018 l 421 1036 b 418 1008 419 1026 418 1017 b 510 915 418 949 450 915 b 643 1036 578 915 626 960 "},"Ů":{"ha":814,"x_min":0,"x_max":0,"o":"m 740 922 l 938 922 l 829 307 b 390 -32 790 83 632 -32 b 76 217 194 -32 76 49 b 85 296 76 240 79 268 l 194 922 l 390 922 l 283 314 b 278 256 279 293 278 274 b 415 128 278 165 328 128 b 632 307 539 128 611 186 m 757 1171 b 586 1008 757 1074 713 1008 b 461 1114 503 1008 461 1044 b 633 1275 461 1211 518 1275 b 757 1171 719 1275 757 1236 m 683 1157 b 622 1213 683 1193 663 1213 b 538 1126 564 1213 538 1178 b 597 1074 538 1093 557 1074 b 683 1157 654 1074 683 1107 "},"ů":{"ha":694,"x_min":0,"x_max":0,"o":"m 481 0 l 497 96 b 265 -18 436 18 360 -18 b 72 176 147 -18 72 58 b 78 233 72 194 74 214 l 157 683 l 338 683 l 263 261 b 257 214 260 243 257 228 b 356 133 257 150 292 133 b 524 289 444 133 507 199 l 593 683 l 772 683 l 651 0 m 656 932 b 485 769 656 835 611 769 b 360 875 401 769 360 806 b 532 1036 360 972 417 1036 b 656 932 618 1036 656 997 m 582 918 b 521 974 582 954 561 974 b 436 888 463 974 436 939 b 496 835 436 854 456 835 b 582 918 553 835 582 868 "},"Ű":{"ha":814,"x_min":0,"x_max":0,"o":"m 740 922 l 938 922 l 829 307 b 390 -32 790 83 632 -32 b 76 217 194 -32 76 49 b 85 296 76 240 79 268 l 194 922 l 390 922 l 283 314 b 278 256 279 293 278 274 b 415 128 278 165 328 128 b 632 307 539 128 611 186 m 474 1029 l 431 1075 l 656 1279 l 708 1228 m 640 1029 l 597 1075 l 831 1275 l 883 1224 "},"ű":{"ha":694,"x_min":0,"x_max":0,"o":"m 481 0 l 497 96 b 265 -18 436 18 360 -18 b 72 176 147 -18 72 58 b 78 233 72 194 74 214 l 157 683 l 338 683 l 263 261 b 257 214 260 243 257 228 b 356 133 257 150 292 133 b 524 289 444 133 507 199 l 593 683 l 772 683 l 651 0 m 372 790 l 329 836 l 554 1040 l 607 989 m 539 790 l 496 836 l 729 1036 l 782 985 "},"Ų":{"ha":814,"x_min":0,"x_max":0,"o":"m 535 -287 b 382 -324 504 -308 457 -324 b 247 -229 293 -324 247 -287 b 439 -29 247 -147 324 -78 b 389 -32 424 -31 406 -32 b 76 218 193 -32 76 49 b 83 296 76 242 78 268 l 194 922 l 390 922 l 282 314 b 278 267 279 297 278 282 b 415 128 278 181 326 128 b 631 307 538 128 608 186 l 740 922 l 938 922 l 828 307 b 581 -1 800 149 714 46 b 404 -135 428 -65 404 -93 b 486 -174 404 -161 436 -174 b 557 -162 513 -174 539 -168 "},"ų":{"ha":694,"x_min":0,"x_max":0,"o":"m 600 -287 b 447 -324 569 -308 522 -324 b 313 -229 358 -324 313 -287 b 592 0 313 -128 426 -49 l 481 0 l 497 96 b 264 -18 436 18 358 -18 b 71 176 146 -18 71 58 b 76 233 71 194 72 214 l 156 683 l 336 683 l 263 261 b 258 222 260 247 258 233 b 354 133 258 163 290 133 b 522 289 444 133 506 199 l 592 683 l 771 683 l 651 0 b 469 -135 493 -67 469 -93 b 551 -174 469 -161 501 -174 b 622 -162 578 -174 604 -168 "},"Ŵ":{"ha":1189,"x_min":0,"x_max":0,"o":"m 735 0 l 697 600 l 446 0 l 265 0 l 167 922 l 367 922 l 413 325 l 646 922 l 849 922 l 883 325 l 1139 922 l 1342 922 l 921 0 m 963 1018 l 804 1182 l 588 1018 l 536 1089 l 747 1275 l 894 1275 l 1039 1089 "},"ŵ":{"ha":992,"x_min":0,"x_max":0,"o":"m 600 0 l 561 397 l 383 0 l 199 0 l 125 683 l 310 683 l 343 244 l 515 683 l 699 683 l 728 244 l 910 683 l 1101 683 l 785 0 m 822 779 l 664 943 l 447 779 l 396 850 l 607 1036 l 754 1036 l 899 850 "},"Ŷ":{"ha":836,"x_min":0,"x_max":0,"o":"m 324 0 l 385 349 l 167 922 l 388 922 l 515 547 l 761 922 l 988 922 l 578 346 l 517 0 m 797 1018 l 639 1182 l 422 1018 l 371 1089 l 582 1275 l 729 1275 l 874 1089 "},"ŷ":{"ha":697,"x_min":0,"x_max":0,"o":"m 486 90 b 285 -7 451 29 369 -7 b 74 188 158 -7 74 68 b 79 240 74 204 76 222 l 157 683 l 338 683 l 264 267 b 258 219 261 249 258 233 b 357 139 258 156 293 139 b 518 267 439 139 506 193 l 592 683 l 772 683 l 649 -18 b 281 -324 614 -211 453 -324 b 22 -106 107 -324 22 -242 b 29 -37 22 -85 25 -61 l 197 -37 b 194 -72 194 -50 194 -61 b 317 -168 194 -137 235 -168 b 467 -21 382 -168 451 -111 m 675 779 l 517 943 l 300 779 l 249 850 l 460 1036 l 607 1036 l 751 850 "},"Ÿ":{"ha":836,"x_min":0,"x_max":0,"o":"m 324 0 l 385 349 l 167 922 l 388 922 l 515 547 l 761 922 l 988 922 l 578 346 l 517 0 m 378 1043 l 408 1215 l 589 1215 l 558 1043 m 656 1043 l 686 1215 l 867 1215 l 836 1043 "},"Ź":{"ha":739,"x_min":0,"x_max":0,"o":"m 6 0 l 35 164 l 614 761 l 154 761 l 182 922 l 889 922 l 863 771 l 279 164 l 756 164 l 726 0 m 457 1008 l 426 1085 l 744 1253 l 789 1139 "},"ź":{"ha":618,"x_min":0,"x_max":0,"o":"m 13 0 l 38 139 l 451 540 l 132 540 l 157 683 l 713 683 l 686 538 l 275 147 l 628 147 l 601 0 m 356 769 l 325 846 l 643 1014 l 688 900 "},"Ż":{"ha":739,"x_min":0,"x_max":0,"o":"m 6 0 l 35 164 l 614 761 l 154 761 l 182 922 l 889 922 l 863 771 l 279 164 l 756 164 l 726 0 m 471 1043 l 501 1215 l 682 1215 l 651 1043 "},"ż":{"ha":618,"x_min":0,"x_max":0,"o":"m 13 0 l 38 139 l 451 540 l 132 540 l 157 683 l 713 683 l 686 538 l 275 147 l 628 147 l 601 0 m 368 804 l 399 976 l 579 976 l 549 804 "},"Ž":{"ha":739,"x_min":0,"x_max":0,"o":"m 6 0 l 35 164 l 614 761 l 154 761 l 182 922 l 889 922 l 863 771 l 279 164 l 756 164 l 726 0 m 625 1018 l 478 1018 l 333 1204 l 410 1275 l 568 1111 l 785 1275 l 836 1204 "},"ž":{"ha":618,"x_min":0,"x_max":0,"o":"m 13 0 l 38 139 l 451 540 l 132 540 l 157 683 l 713 683 l 686 538 l 275 147 l 628 147 l 601 0 m 522 779 l 375 779 l 231 965 l 307 1036 l 465 872 l 682 1036 l 733 965 "},"Ǝ":{"ha":739,"x_min":0,"x_max":0,"o":"m 4 0 l 32 160 l 547 160 l 590 403 l 136 403 l 164 563 l 618 563 l 654 765 l 161 765 l 189 922 l 864 922 l 701 0 "},"Ə":{"ha":931,"x_min":0,"x_max":0,"o":"m 160 624 b 638 953 244 832 404 953 b 996 574 872 953 996 829 b 454 -32 996 267 818 -32 b 104 333 204 -32 104 110 b 128 525 104 379 108 461 l 811 525 b 814 575 813 542 814 556 b 608 786 814 713 742 786 b 356 624 492 786 410 731 m 281 389 b 279 351 279 375 279 363 b 489 129 279 197 360 129 b 788 389 629 129 744 208 "},"ƒ":{"ha":747,"x_min":0,"x_max":0,"o":"m -12 -240 l 15 -85 l 115 -85 b 225 26 164 -85 200 -51 l 379 506 l 282 506 l 307 646 l 424 646 l 435 679 b 793 933 497 868 639 933 l 872 933 l 846 778 l 744 778 b 635 667 696 778 660 744 l 628 646 l 749 646 l 724 506 l 582 506 l 425 14 b 65 -240 364 -176 218 -240 "},"Ɣ":{"ha":824,"x_min":0,"x_max":0,"o":"m 171 922 l 372 922 l 489 447 l 775 922 l 975 922 l 539 247 b 599 -86 586 57 599 -28 b 343 -324 599 -233 518 -324 b 174 -186 225 -324 174 -282 b 368 246 174 -50 278 94 m 422 64 b 310 -172 335 -71 310 -126 b 368 -229 310 -211 328 -229 b 456 -114 429 -229 456 -189 b 422 64 456 -72 447 -19 "},"Ɲ":{"ha":821,"x_min":0,"x_max":0,"o":"m 611 0 l 321 628 l 203 -46 b -117 -324 174 -211 36 -324 b -168 -319 -135 -324 -151 -322 l -139 -154 b -94 -167 -129 -162 -117 -167 b 29 -39 -24 -167 15 -117 l 199 922 l 399 922 l 665 321 l 772 922 l 949 922 l 786 0 "},"Ơ":{"ha":1068,"x_min":0,"x_max":0,"o":"m 1217 975 b 1231 903 1226 961 1231 933 b 1072 718 1231 778 1163 718 b 974 739 1040 718 1007 725 b 996 557 989 694 996 625 b 467 -32 996 189 796 -32 b 89 360 218 -32 89 93 b 633 953 89 696 293 953 b 901 858 792 953 857 897 b 1017 810 949 818 989 810 b 1122 936 1101 810 1122 889 b 1119 975 1122 949 1121 967 m 478 133 b 803 532 656 133 803 261 b 604 782 803 715 735 782 b 281 375 397 782 281 613 b 478 133 281 228 325 133 "},"ơ":{"ha":904,"x_min":0,"x_max":0,"o":"m 1014 754 b 1028 683 1024 740 1028 711 b 876 497 1028 601 992 497 b 775 517 846 497 801 504 b 788 407 783 489 788 444 b 372 -18 788 160 613 -18 b 74 282 178 -18 74 97 b 497 701 74 521 247 701 b 699 638 607 701 660 667 b 814 589 749 601 781 589 b 919 715 899 589 919 668 b 917 754 919 728 918 746 m 393 133 b 604 389 536 133 604 238 b 472 549 604 508 561 549 b 261 293 328 549 261 444 b 393 133 261 176 300 133 "},"Ư":{"ha":1039,"x_min":0,"x_max":0,"o":"m 740 922 l 938 922 l 919 821 b 985 810 943 813 972 810 b 1081 938 1054 810 1081 890 b 1078 975 1081 949 1079 967 l 1175 975 b 1189 903 1185 961 1189 932 b 1028 717 1189 778 1117 717 b 908 753 989 717 947 729 l 829 307 b 392 -32 790 88 635 -32 b 76 215 193 -32 76 49 b 85 296 76 240 79 268 l 194 922 l 390 922 l 283 314 b 276 250 279 292 276 271 b 419 128 276 161 329 128 b 632 307 538 128 611 186 "},"ư":{"ha":886,"x_min":0,"x_max":0,"o":"m 481 0 l 497 96 b 269 -18 435 15 353 -18 b 72 176 143 -18 72 58 b 78 233 72 193 74 214 l 157 683 l 338 683 l 263 261 b 258 218 260 244 258 231 b 349 133 258 157 290 133 b 524 289 444 133 507 196 l 593 683 l 772 683 l 756 594 b 806 589 775 590 797 589 b 900 717 872 589 900 669 b 897 754 900 728 899 746 l 994 754 b 1008 682 1004 740 1008 713 b 849 497 1008 558 939 497 b 743 522 815 497 779 506 l 651 0 "},"ǝ":{"ha":699,"x_min":0,"x_max":0,"o":"m 260 275 b 257 243 258 264 257 256 b 372 125 257 165 310 125 b 539 275 443 125 514 176 m 121 482 b 474 701 190 626 308 701 b 746 424 651 701 746 614 b 342 -18 746 175 586 -18 b 81 253 171 -18 81 75 b 94 389 81 297 86 340 l 565 389 b 567 421 567 400 567 410 b 442 558 567 506 521 558 b 307 482 383 558 328 529 "},"Ǧ":{"ha":914,"x_min":0,"x_max":0,"o":"m 719 0 l 732 92 b 433 -32 674 14 560 -32 b 93 376 213 -32 93 160 b 643 953 93 678 296 953 b 992 668 850 953 992 836 b 990 638 992 658 992 647 l 796 638 l 796 649 b 615 793 796 743 717 793 b 292 390 428 793 292 631 b 497 131 292 232 349 131 b 758 342 624 131 739 226 l 554 342 l 582 496 l 967 496 l 879 0 m 711 1018 l 564 1018 l 419 1204 l 496 1275 l 654 1111 l 871 1275 l 922 1204 "},"ǧ":{"ha":736,"x_min":0,"x_max":0,"o":"m 388 136 b 583 392 489 136 583 229 b 460 544 583 499 542 544 b 264 293 328 544 264 440 b 388 136 264 178 313 136 m 529 92 b 324 -6 493 31 413 -6 b 75 268 139 -6 75 124 b 444 701 75 525 256 701 b 618 599 531 701 588 668 l 633 683 l 814 683 l 692 -7 b 296 -324 656 -212 486 -324 b 10 -90 125 -324 10 -236 b 15 -37 10 -74 13 -56 l 183 -37 b 182 -64 182 -47 182 -56 b 311 -168 182 -137 229 -168 b 508 -21 408 -168 492 -111 m 571 779 l 424 779 l 279 965 l 356 1036 l 514 872 l 731 1036 l 782 965 "},"Ǵ":{"ha":914,"x_min":0,"x_max":0,"o":"m 719 0 l 732 92 b 433 -32 674 14 560 -32 b 93 376 213 -32 93 160 b 643 953 93 678 296 953 b 992 668 850 953 992 836 b 990 638 992 658 992 647 l 796 638 l 796 649 b 615 793 796 743 717 793 b 292 390 428 793 292 631 b 497 131 292 232 349 131 b 758 342 624 131 739 226 l 554 342 l 582 496 l 967 496 l 879 0 m 544 1008 l 514 1085 l 832 1253 l 876 1139 "},"ǵ":{"ha":736,"x_min":0,"x_max":0,"o":"m 388 136 b 583 392 489 136 583 229 b 460 544 583 499 542 544 b 264 293 328 544 264 440 b 388 136 264 178 313 136 m 529 92 b 324 -6 493 31 413 -6 b 75 268 139 -6 75 124 b 444 701 75 525 256 701 b 618 599 531 701 588 668 l 633 683 l 814 683 l 692 -7 b 296 -324 656 -212 486 -324 b 10 -90 125 -324 10 -236 b 15 -37 10 -74 13 -56 l 183 -37 b 182 -64 182 -47 182 -56 b 311 -168 182 -137 229 -168 b 508 -21 408 -168 492 -111 m 403 769 l 372 846 l 690 1014 l 735 900 "},"Ǹ":{"ha":821,"x_min":0,"x_max":0,"o":"m 611 0 l 321 619 l 211 0 l 32 0 l 194 922 l 393 922 l 661 329 l 765 922 l 946 922 l 783 0 m 393 1139 l 479 1253 l 736 1085 l 681 1008 "},"ǹ":{"ha":699,"x_min":0,"x_max":0,"o":"m 474 0 l 547 414 b 553 472 551 436 553 456 b 454 549 553 533 522 549 b 286 392 360 549 304 496 l 217 0 l 36 0 l 157 683 l 329 683 l 311 583 b 553 701 367 660 443 701 b 743 526 667 701 743 640 b 739 474 743 510 742 492 l 656 0 m 290 900 l 376 1014 l 633 846 l 578 769 "},"ȷ":{"ha":271,"x_min":0,"x_max":0,"o":"m 169 683 l 351 683 l 224 -46 b -94 -324 194 -211 57 -324 b -326 -115 -253 -324 -326 -246 b -318 -37 -326 -92 -324 -65 l -149 -37 b -153 -83 -151 -54 -153 -69 b -75 -164 -153 -133 -131 -164 b 43 -39 -3 -164 29 -117 "},"Ɂ":{"ha":682,"x_min":0,"x_max":0,"o":"m 246 0 l 293 274 b 451 525 310 374 347 461 b 604 713 500 556 604 596 b 483 808 604 782 547 808 b 313 654 381 808 332 744 l 142 654 b 515 953 174 838 292 953 b 786 747 689 953 786 883 b 613 472 786 589 711 539 b 482 274 526 414 500 379 l 435 0 "},"ɂ":{"ha":682,"x_min":0,"x_max":0,"o":"m 253 0 l 271 108 b 419 328 289 217 335 274 b 557 475 524 394 557 418 b 451 554 557 533 521 554 b 285 442 342 554 294 500 l 107 442 b 474 701 135 599 244 701 b 740 507 651 701 740 640 b 575 281 740 399 682 350 b 447 108 489 225 464 206 l 429 0 "},"Ɍ":{"ha":972,"x_min":0,"x_max":0,"o":"m 739 0 l 781 238 b 785 276 783 251 785 265 b 657 361 785 336 750 361 l 451 361 l 389 0 l 201 0 l 264 361 l 63 361 l 90 517 l 292 517 l 364 922 l 832 922 b 1072 704 985 922 1072 833 b 893 442 1072 583 996 475 b 979 321 951 421 979 390 b 974 261 979 306 978 285 l 928 0 m 522 763 l 479 517 l 721 517 b 888 664 835 517 888 585 b 771 763 888 725 856 763 "},"ɍ":{"ha":542,"x_min":0,"x_max":0,"o":"m 356 240 l 314 0 l 133 0 l 175 240 l 42 240 l 64 367 l 197 367 l 253 683 l 422 683 l 408 601 b 629 701 483 693 556 701 l 653 701 l 619 517 b 571 521 603 519 588 521 b 378 367 463 521 399 468 l 593 367 l 571 240 "},"ɣ":{"ha":696,"x_min":0,"x_max":0,"o":"m 458 181 b 529 -129 515 -18 529 -82 b 281 -324 529 -260 425 -324 b 107 -197 178 -324 107 -292 b 296 182 107 -86 207 40 l 128 683 l 319 683 l 408 361 l 613 683 l 806 683 m 349 19 b 258 -171 285 -78 258 -129 b 307 -215 258 -200 271 -215 b 379 -131 364 -215 379 -176 b 350 18 379 -82 363 4 "},"ɲ":{"ha":699,"x_min":0,"x_max":0,"o":"m 474 0 l 546 414 b 551 468 550 435 551 454 b 458 549 551 528 524 549 b 285 392 358 549 303 499 l 208 -46 b -107 -324 179 -211 42 -324 b -149 -321 -124 -324 -136 -322 l -121 -160 b -87 -167 -112 -164 -104 -167 b 42 32 4 -167 22 -82 l 156 683 l 328 683 l 311 583 b 547 701 365 661 449 701 b 743 526 668 701 743 640 b 739 474 743 510 742 492 l 656 0 "},"ˆ":{"ha":639,"x_min":0,"x_max":0,"o":"m 646 779 l 488 943 l 271 779 l 219 850 l 431 1036 l 578 1036 l 722 850 "},"ˇ":{"ha":638,"x_min":0,"x_max":0,"o":"m 532 779 l 385 779 l 240 965 l 317 1036 l 475 872 l 692 1036 l 743 965 "},"ˉ":{"ha":664,"x_min":0,"x_max":0,"o":"m 217 836 l 239 963 l 768 963 l 746 836 "},"˘":{"ha":586,"x_min":0,"x_max":0,"o":"m 703 1036 b 436 806 675 882 551 806 b 247 985 335 806 247 865 b 253 1036 247 1000 250 1018 l 367 1036 b 364 1008 365 1026 364 1017 b 456 915 364 949 396 915 b 589 1036 524 915 572 960 "},"˙":{"ha":306,"x_min":0,"x_max":0,"o":"m 211 804 l 242 976 l 422 976 l 392 804 "},"˚":{"ha":425,"x_min":0,"x_max":0,"o":"m 521 932 b 350 769 521 835 476 769 b 225 875 267 769 225 806 b 397 1036 225 972 282 1036 b 521 932 483 1036 521 997 m 447 918 b 386 974 447 954 426 974 b 301 888 328 974 301 939 b 361 835 301 854 321 835 b 447 918 418 835 447 868 "},"˛":{"ha":435,"x_min":0,"x_max":0,"o":"m 318 -287 b 165 -324 288 -308 240 -324 b 31 -225 76 -324 31 -285 b 308 0 31 -125 143 -49 l 368 0 b 188 -133 215 -64 188 -94 b 269 -174 188 -160 219 -174 b 339 -162 296 -174 322 -168 "},"˜":{"ha":615,"x_min":0,"x_max":0,"o":"m 714 936 b 539 800 665 836 599 800 b 371 863 468 800 431 863 b 307 801 360 863 332 853 l 219 853 b 376 975 265 943 319 975 b 549 908 461 975 496 908 b 617 974 565 908 599 925 "},"˝":{"ha":551,"x_min":0,"x_max":0,"o":"m 260 790 l 217 836 l 442 1040 l 494 989 m 426 790 l 383 836 l 617 1036 l 669 985 "},"̀":{"ha":0,"x_min":0,"x_max":0,"o":"m -406 900 l -319 1014 l -62 846 l -118 769 "},"́":{"ha":0,"x_min":0,"x_max":0,"o":"m -301 769 l -332 846 l -14 1014 l 31 900 "},"̂":{"ha":0,"x_min":0,"x_max":0,"o":"m -21 779 l -179 943 l -396 779 l -447 850 l -236 1036 l -89 1036 l 56 850 "},"̃":{"ha":514,"x_min":0,"x_max":0,"o":"m 617 1017 b 493 932 589 950 538 932 b 360 960 447 932 393 960 b 313 915 346 960 329 944 l 250 943 b 363 1031 278 1006 319 1031 b 504 999 428 1031 458 999 b 550 1036 524 999 539 1007 m 536 769 l 411 867 l 254 769 l 213 811 l 365 922 l 476 922 l 590 811 "},"̄":{"ha":0,"x_min":0,"x_max":0,"o":"m -464 836 l -442 963 l 88 963 l 65 836 "},"̆":{"ha":0,"x_min":0,"x_max":0,"o":"m 61 1036 b -206 806 33 882 -90 806 b -394 985 -307 806 -394 865 b -389 1036 -394 1000 -392 1018 l -275 1036 b -278 1008 -276 1026 -278 1017 b -186 915 -278 949 -246 915 b -53 1036 -118 915 -69 960 "},"̇":{"ha":0,"x_min":0,"x_max":0,"o":"m -290 804 l -260 976 l -79 976 l -110 804 "},"̈":{"ha":0,"x_min":0,"x_max":0,"o":"m -429 804 l -399 976 l -218 976 l -249 804 m -151 804 l -121 976 l 60 976 l 29 804 "},"̉":{"ha":338,"x_min":0,"x_max":0,"o":"m 260 807 b 308 881 267 839 278 864 b 347 926 333 894 347 903 b 318 946 347 938 339 946 b 257 925 303 946 285 942 l 246 1001 b 350 1036 278 1025 324 1036 b 439 965 407 1036 439 1008 b 385 875 439 928 422 896 b 329 807 358 860 336 839 "},"̊":{"ha":0,"x_min":0,"x_max":0,"o":"m -40 932 b -211 769 -40 835 -85 769 b -336 875 -294 769 -336 806 b -164 1036 -336 972 -279 1036 b -40 932 -78 1036 -40 997 m -114 918 b -175 974 -114 954 -135 974 b -260 888 -233 974 -260 939 b -200 835 -260 854 -240 835 b -114 918 -143 835 -114 868 "},"̋":{"ha":0,"x_min":0,"x_max":0,"o":"m -331 790 l -374 836 l -149 1040 l -96 989 m -164 790 l -207 836 l 26 1036 l 79 985 "},"̌":{"ha":0,"x_min":0,"x_max":0,"o":"m -135 779 l -282 779 l -426 965 l -350 1036 l -192 872 l 25 1036 l 76 965 "},"̓":{"ha":0,"x_min":0,"x_max":0,"o":"m -103 971 b -208 881 -161 967 -197 935 l -119 881 l -142 753 l -301 753 l -286 842 b -93 1031 -268 942 -215 1019 "},"̛":{"ha":210,"x_min":0,"x_max":0,"o":"m 61 597 b 126 586 83 589 110 586 b 219 713 208 586 219 660 b 217 754 219 731 218 744 l 311 754 b 326 689 322 740 326 719 b 163 496 326 556 246 496 b 50 529 126 496 88 507 "},"̣":{"ha":306,"x_min":0,"x_max":0,"o":"m 19 -286 l 50 -114 l 231 -114 l 200 -286 "},"̦":{"ha":0,"x_min":0,"x_max":0,"o":"m -469 -264 b -364 -174 -411 -260 -375 -228 l -453 -174 l -431 -46 l -271 -46 l -286 -135 b -479 -324 -304 -235 -357 -312 "},"̨":{"ha":0,"x_min":0,"x_max":0,"o":"m -249 -287 b -401 -324 -279 -308 -326 -324 b -536 -225 -490 -324 -536 -285 b -258 0 -536 -125 -424 -49 l -199 0 b -379 -133 -351 -64 -379 -94 b -297 -174 -379 -160 -347 -174 b -228 -162 -271 -174 -244 -168 "},"̭":{"ha":0,"x_min":0,"x_max":0,"o":"m -214 -315 l -372 -151 l -589 -315 l -640 -244 l -429 -58 l -282 -58 l -137 -244 "},"΄":{"ha":208,"x_min":0,"x_max":0,"o":"m 132 575 b 200 922 154 690 176 807 l 363 922 l 244 575 "},"΅":{"ha":0,"x_min":0,"x_max":0,"o":"m -274 756 b -206 1103 -251 871 -229 988 l -43 1103 l -161 756 m -81 804 l -50 976 l 131 976 l 100 804 m -475 804 l -444 976 l -264 976 l -294 804 "},"Ά":{"ha":933,"x_min":0,"x_max":0,"o":"m 615 715 l 614 715 l 431 349 l 665 349 m 718 0 l 693 190 l 353 190 l 254 0 l 44 0 l 536 922 l 760 922 l 922 0 m 132 575 b 200 922 154 690 176 807 l 363 922 l 244 575 "},"·":{"ha":260,"x_min":0,"x_max":0,"o":"m 118 496 l 151 683 l 344 683 l 311 496 "},"Έ":{"ha":946,"x_min":0,"x_max":0,"o":"m 240 0 l 403 922 l 1081 922 l 1053 761 l 563 761 l 528 564 l 979 564 l 950 401 l 499 401 l 457 164 l 969 164 l 940 0 m 132 575 b 200 922 154 690 176 807 l 363 922 l 244 575 "},"Ή":{"ha":1024,"x_min":0,"x_max":0,"o":"m 793 0 l 867 414 l 507 414 l 433 0 l 240 0 l 403 922 l 596 922 l 535 575 l 894 575 l 956 922 l 1150 922 l 988 0 m 132 575 b 200 922 154 690 176 807 l 363 922 l 244 575 "},"Ί":{"ha":468,"x_min":0,"x_max":0,"o":"m 240 0 l 403 922 l 596 922 l 433 0 m 132 575 b 200 922 154 690 176 807 l 363 922 l 244 575 "},"Ό":{"ha":1078,"x_min":0,"x_max":0,"o":"m 635 133 b 950 538 801 133 950 263 b 749 782 950 718 881 782 b 428 365 544 782 428 615 b 635 133 428 190 503 133 m 606 -32 b 236 344 365 -32 236 104 b 779 953 236 704 440 953 b 1143 563 1018 953 1143 807 b 606 -32 1143 189 949 -32 m 132 575 b 200 922 154 690 176 807 l 363 922 l 244 575 "},"Ύ":{"ha":1042,"x_min":0,"x_max":0,"o":"m 529 0 l 590 349 l 372 922 l 593 922 l 721 547 l 967 922 l 1193 922 l 783 346 l 722 0 m 132 575 b 200 922 154 690 176 807 l 363 922 l 244 575 "},"Ώ":{"ha":1065,"x_min":0,"x_max":0,"o":"m 693 0 l 718 139 b 938 610 867 260 938 436 b 750 799 938 750 872 799 b 471 433 568 799 471 685 b 551 139 471 283 506 201 l 526 0 l 194 0 l 221 153 l 358 153 b 264 451 303 203 264 318 b 778 953 264 750 426 953 b 1147 631 1032 953 1147 829 b 914 153 1147 418 1031 231 l 1051 153 l 1025 0 m 132 575 b 200 922 154 690 176 807 l 363 922 l 244 575 "},"ΐ":{"ha":551,"x_min":0,"x_max":0,"o":"m 371 0 b 201 143 258 0 201 47 b 207 199 201 160 203 179 l 292 683 l 464 683 l 383 221 b 381 199 382 213 381 206 b 443 142 381 160 403 142 l 483 142 l 460 0 m 326 756 b 394 1103 349 871 371 988 l 557 1103 l 439 756 m 522 804 l 553 976 l 733 976 l 703 804 m 128 804 l 158 976 l 339 976 l 308 804 "},"Γ":{"ha":696,"x_min":0,"x_max":0,"o":"m 31 0 l 193 922 l 842 922 l 814 765 l 354 765 l 219 0 "},"Δ":{"ha":893,"x_min":0,"x_max":0,"o":"m 4 0 l 496 922 l 719 922 l 882 0 m 575 715 l 574 715 l 293 158 l 654 158 "},"Θ":{"ha":931,"x_min":0,"x_max":0,"o":"m 349 403 l 372 543 l 749 543 l 725 403 m 488 133 b 803 538 654 133 803 263 b 601 782 803 718 733 782 b 281 365 397 782 281 615 b 488 133 281 190 356 133 m 458 -32 b 89 344 218 -32 89 104 b 632 953 89 704 293 953 b 996 563 871 953 996 807 b 458 -32 996 189 801 -32 "},"Λ":{"ha":824,"x_min":0,"x_max":0,"o":"m 613 0 l 525 647 l 211 0 l 11 0 l 486 922 l 668 922 l 818 0 "},"Ξ":{"ha":739,"x_min":0,"x_max":0,"o":"m 136 403 l 164 563 l 772 563 l 744 403 m 161 765 l 189 922 l 875 922 l 847 765 m 4 0 l 32 160 l 761 160 l 733 0 "},"Π":{"ha":815,"x_min":0,"x_max":0,"o":"m 592 0 l 726 765 l 360 765 l 225 0 l 36 0 l 199 922 l 944 922 l 782 0 "},"Σ":{"ha":739,"x_min":0,"x_max":0,"o":"m 10 0 l 38 160 l 344 465 l 144 775 l 171 922 l 874 922 l 846 765 l 371 765 l 565 468 l 263 160 l 758 160 l 731 0 "},"Φ":{"ha":989,"x_min":0,"x_max":0,"o":"m 404 0 l 426 131 b 93 404 196 151 93 240 b 544 800 93 619 268 778 l 567 922 l 749 922 l 726 800 b 1056 515 946 776 1056 688 b 608 129 1056 299 883 150 l 586 0 m 524 678 b 274 419 386 656 274 558 b 447 249 274 319 332 268 m 629 249 b 875 501 758 269 875 358 b 706 678 875 604 814 657 "},"Ψ":{"ha":914,"x_min":0,"x_max":0,"o":"m 367 0 l 407 229 b 114 458 194 244 114 321 b 122 542 114 483 117 511 l 190 922 l 376 922 l 313 560 b 307 511 310 542 307 526 b 433 381 307 440 344 396 l 529 922 l 708 922 l 613 381 b 796 561 726 400 778 463 l 860 922 l 1049 922 l 982 544 b 586 229 949 354 838 249 l 546 0 "},"Ω":{"ha":904,"x_min":0,"x_max":0,"o":"m 532 0 l 557 139 b 776 610 706 260 776 436 b 589 799 776 750 711 799 b 310 433 407 799 310 685 b 390 139 310 283 344 201 l 365 0 l 33 0 l 60 153 l 197 153 b 103 451 142 203 103 318 b 617 953 103 750 265 953 b 986 631 871 953 986 829 b 753 153 986 418 869 231 l 890 153 l 864 0 "},"ά":{"ha":810,"x_min":0,"x_max":0,"o":"m 711 0 b 546 113 611 0 556 38 b 304 -18 492 40 422 -18 b 76 250 153 -18 76 78 b 440 701 76 519 261 701 b 614 569 522 701 593 664 l 633 683 l 804 683 l 722 218 b 719 194 721 210 719 203 b 782 142 719 158 742 142 l 824 142 l 800 0 m 375 132 b 585 399 503 132 585 250 b 460 557 585 515 533 557 b 257 278 314 557 257 396 b 375 132 257 172 301 132 m 456 756 b 524 1103 478 871 500 988 l 686 1103 l 568 756 "},"έ":{"ha":651,"x_min":0,"x_max":0,"o":"m 678 228 b 314 -18 646 97 536 -18 b 44 168 147 -18 44 47 b 222 367 44 278 131 350 b 124 489 158 385 124 425 b 446 701 124 607 239 701 b 717 471 649 701 717 610 l 539 471 b 429 581 539 554 508 581 b 292 489 342 581 292 549 b 394 418 292 438 331 418 l 453 418 l 432 301 l 369 301 b 224 193 279 301 224 267 b 336 108 224 128 267 108 b 500 228 440 108 483 151 m 399 756 b 467 1103 421 871 443 988 l 629 1103 l 511 756 "},"ή":{"ha":699,"x_min":0,"x_max":0,"o":"m 415 -324 l 546 414 b 551 467 550 435 551 454 b 458 549 551 529 521 549 b 285 392 356 549 303 496 l 217 0 l 36 0 l 156 683 l 328 683 l 311 583 b 547 701 367 663 450 701 b 743 525 669 701 743 640 b 739 474 743 508 742 492 l 597 -324 m 426 756 b 494 1103 449 871 471 988 l 657 1103 l 539 756 "},"ί":{"ha":338,"x_min":0,"x_max":0,"o":"m 239 0 b 69 143 126 0 69 47 b 75 199 69 160 71 179 l 160 683 l 332 683 l 251 221 b 249 199 250 213 249 206 b 311 142 249 160 271 142 l 351 142 l 328 0 m 190 756 b 258 1103 213 871 235 988 l 421 1103 l 303 756 "},"ΰ":{"ha":690,"x_min":0,"x_max":0,"o":"m 406 756 b 474 1103 428 871 450 988 l 636 1103 l 518 756 m 599 683 l 771 683 l 690 226 b 342 -18 658 47 539 -18 b 74 164 168 -18 74 32 b 79 226 74 183 75 204 l 160 683 l 336 683 l 261 254 b 257 213 258 239 257 225 b 369 126 257 153 292 126 b 524 254 464 126 507 164 m 600 804 l 631 976 l 811 976 l 781 804 m 206 804 l 236 976 l 417 976 l 386 804 "},"α":{"ha":810,"x_min":0,"x_max":0,"o":"m 711 0 b 546 113 611 0 556 38 b 304 -18 492 40 422 -18 b 76 250 153 -18 76 78 b 440 701 76 519 261 701 b 614 569 522 701 593 664 l 633 683 l 804 683 l 722 218 b 719 194 721 210 719 203 b 782 142 719 158 742 142 l 824 142 l 800 0 m 375 132 b 585 399 503 132 585 250 b 460 557 585 515 533 557 b 257 278 314 557 257 396 b 375 132 257 172 301 132 "},"β":{"ha":708,"x_min":0,"x_max":0,"o":"m -17 -324 l 161 692 b 510 943 186 839 282 943 b 769 754 704 943 769 868 b 615 529 769 619 679 550 b 747 335 708 499 747 436 b 385 -17 747 125 581 -17 b 218 25 317 -17 260 0 l 156 -324 m 397 454 l 417 565 l 428 565 b 585 707 547 565 585 639 b 482 803 585 776 544 803 b 333 683 407 803 347 765 l 243 172 b 379 128 275 146 322 128 b 572 319 506 128 572 217 b 410 454 572 418 511 454 "},"δ":{"ha":749,"x_min":0,"x_max":0,"o":"m 739 788 b 544 818 696 808 621 818 b 383 753 436 818 383 799 b 456 690 383 714 421 700 b 671 614 578 656 621 643 b 788 404 744 571 788 511 b 364 -18 788 193 617 -18 b 76 263 181 -18 76 92 b 286 614 76 408 151 539 b 228 729 247 643 228 674 b 558 943 228 833 297 943 b 763 921 636 943 721 933 m 414 551 b 253 288 325 515 253 415 b 393 129 253 176 307 129 b 604 364 519 129 604 232 b 414 551 604 482 538 506 "},"ε":{"ha":651,"x_min":0,"x_max":0,"o":"m 678 228 b 314 -18 646 97 536 -18 b 44 168 147 -18 44 47 b 222 367 44 278 131 350 b 124 489 158 385 124 425 b 446 701 124 607 239 701 b 717 471 649 701 717 610 l 539 471 b 429 581 539 554 508 581 b 292 489 342 581 292 549 b 394 418 292 438 331 418 l 453 418 l 432 301 l 369 301 b 224 193 279 301 224 267 b 336 108 224 128 267 108 b 500 228 440 108 483 151 "},"ζ":{"ha":668,"x_min":0,"x_max":0,"o":"m 342 -324 l 388 -64 b 390 -39 389 -54 390 -47 b 338 0 390 -11 375 0 l 296 0 b 72 226 150 0 72 86 b 340 642 72 385 171 514 l 543 794 l 219 794 l 244 933 l 779 933 l 754 790 l 443 554 b 251 271 275 426 251 350 b 390 144 251 196 272 144 l 425 144 b 576 31 528 144 576 110 b 572 -17 576 17 575 1 l 518 -324 "},"η":{"ha":699,"x_min":0,"x_max":0,"o":"m 415 -324 l 546 414 b 551 467 550 435 551 454 b 458 549 551 529 521 549 b 285 392 356 549 303 496 l 217 0 l 36 0 l 156 683 l 328 683 l 311 583 b 547 701 367 663 450 701 b 743 525 669 701 743 640 b 739 474 743 508 742 492 l 597 -324 "},"θ":{"ha":761,"x_min":0,"x_max":0,"o":"m 378 -21 b 93 274 179 -21 93 74 b 113 464 93 329 100 392 b 549 949 171 794 294 949 b 829 657 746 949 829 854 b 810 465 829 601 822 538 b 378 -21 751 135 629 -21 m 279 393 b 271 289 274 353 271 318 b 404 128 271 174 311 128 b 622 393 517 128 579 201 m 649 538 b 656 633 653 574 656 606 b 522 799 656 751 614 799 b 306 538 406 799 347 732 "},"ι":{"ha":338,"x_min":0,"x_max":0,"o":"m 239 0 b 69 143 126 0 69 47 b 75 199 69 160 71 179 l 160 683 l 332 683 l 251 221 b 249 199 250 213 249 206 b 311 142 249 160 271 142 l 351 142 l 328 0 "},"κ":{"ha":671,"x_min":0,"x_max":0,"o":"m 456 0 l 358 307 l 256 217 l 218 0 l 36 0 l 156 683 l 338 683 l 292 424 l 563 683 l 783 683 l 510 432 l 658 0 "},"λ":{"ha":742,"x_min":0,"x_max":0,"o":"m 633 0 b 468 161 532 0 485 51 l 426 442 l 194 0 l 8 0 l 393 660 l 385 715 b 288 792 376 774 357 792 l 250 792 l 275 933 l 332 933 b 553 772 483 933 533 883 l 651 218 b 738 142 661 163 681 142 l 754 142 l 731 0 "},"μ":{"ha":694,"x_min":0,"x_max":0,"o":"m 481 0 l 497 96 b 265 -18 436 18 360 -18 b 214 -12 247 -18 229 -15 l 160 -324 l -21 -324 l 157 683 l 338 683 l 263 261 b 257 215 260 243 257 228 b 356 133 257 153 292 133 b 524 289 444 133 507 199 l 593 683 l 772 683 l 651 0 "},"ξ":{"ha":668,"x_min":0,"x_max":0,"o":"m 342 -324 l 388 -64 b 390 -39 389 -54 390 -47 b 338 0 390 -11 375 0 l 294 0 b 72 236 154 0 72 79 b 265 533 72 414 178 514 b 175 678 207 560 175 596 b 507 940 175 833 292 940 b 776 710 706 940 776 849 l 601 710 b 494 819 601 792 565 819 b 343 678 399 819 343 769 b 438 583 343 618 367 583 l 494 583 l 474 467 l 413 467 b 251 275 313 467 251 394 b 386 143 251 196 278 143 l 425 143 b 578 31 529 143 578 111 b 574 -15 578 17 576 1 l 518 -324 "},"π":{"ha":800,"x_min":0,"x_max":0,"o":"m 694 0 b 524 143 581 0 524 47 b 529 199 524 160 525 179 l 589 543 l 381 543 l 286 0 l 111 0 l 206 543 l 104 543 l 129 683 l 908 683 l 883 543 l 763 543 l 707 221 b 704 196 706 211 704 203 b 765 142 704 158 724 142 l 807 142 l 783 0 "},"ρ":{"ha":726,"x_min":0,"x_max":0,"o":"m -17 -324 l 100 343 b 497 701 144 597 311 701 b 765 421 672 701 765 608 b 413 -18 765 179 613 -18 b 231 110 329 -18 250 17 l 154 -324 m 386 132 b 586 408 532 132 586 292 b 468 557 586 515 542 557 b 260 282 325 557 260 403 b 386 132 260 182 306 132 "},"ς":{"ha":668,"x_min":0,"x_max":0,"o":"m 342 -324 l 388 -64 b 390 -39 389 -54 390 -47 b 338 0 390 -11 375 0 l 294 0 b 78 250 164 0 78 72 b 469 701 78 464 201 701 b 732 439 632 701 732 615 l 553 439 b 442 554 553 511 514 554 b 254 281 303 554 254 390 b 399 143 254 182 293 143 l 419 143 b 578 29 526 143 578 110 b 574 -15 578 17 576 1 l 518 -324 "},"σ":{"ha":806,"x_min":0,"x_max":0,"o":"m 704 558 b 772 390 750 521 772 461 b 365 -18 772 158 594 -18 b 76 257 179 -18 76 92 b 494 683 76 511 258 683 l 914 683 l 892 558 m 397 126 b 607 400 519 126 607 221 b 472 542 607 493 563 542 b 258 267 351 542 258 449 b 397 126 258 174 304 126 "},"τ":{"ha":665,"x_min":0,"x_max":0,"o":"m 440 0 b 269 143 326 0 269 49 b 275 199 269 160 271 179 l 338 558 l 107 558 l 129 683 l 774 683 l 751 558 l 511 558 l 453 222 b 450 196 451 213 450 204 b 511 142 450 160 469 142 l 553 142 l 529 0 "},"υ":{"ha":690,"x_min":0,"x_max":0,"o":"m 599 683 l 771 683 l 690 226 b 342 -18 658 47 539 -18 b 74 164 168 -18 74 32 b 79 226 74 183 75 204 l 160 683 l 336 683 l 261 254 b 257 213 258 239 257 225 b 369 126 257 153 292 126 b 524 254 464 126 507 164 "},"φ":{"ha":999,"x_min":0,"x_max":0,"o":"m 354 -324 l 410 -12 b 75 279 164 7 75 118 b 535 696 75 497 239 674 l 576 933 l 749 933 l 707 696 b 1042 403 949 675 1042 567 b 582 -12 1042 185 875 7 l 526 -324 m 510 553 b 254 297 354 538 254 442 b 435 128 254 190 308 142 m 607 128 b 863 386 749 142 863 232 b 682 553 863 493 807 539 "},"χ":{"ha":689,"x_min":0,"x_max":0,"o":"m 422 -324 l 344 26 l 144 -324 l -49 -324 l 272 190 l 135 683 l 333 683 l 407 344 l 603 683 l 793 683 l 479 190 l 622 -324 "},"ψ":{"ha":914,"x_min":0,"x_max":0,"o":"m 313 -324 l 368 -15 b 74 169 156 -15 74 49 b 81 233 74 189 76 210 l 160 683 l 332 683 l 256 247 b 253 219 254 238 253 228 b 392 122 253 154 303 122 l 535 933 l 706 933 l 563 122 b 743 247 679 125 728 163 l 819 683 l 992 683 l 913 233 b 539 -15 883 71 786 -15 l 483 -324 "},"ω":{"ha":978,"x_min":0,"x_max":0,"o":"m 636 478 b 603 246 606 310 603 272 b 681 129 603 164 629 129 b 846 485 818 129 846 382 b 811 683 846 560 831 617 l 989 683 b 1026 496 1013 636 1026 575 b 682 -18 1026 300 940 -18 b 507 113 576 -18 526 35 b 283 -18 454 28 385 -18 b 75 238 143 -18 75 68 b 226 683 75 410 146 589 l 404 683 b 256 256 319 551 256 399 b 338 129 256 171 278 129 b 507 478 414 129 457 196 l 636 478 "},"ϊ":{"ha":418,"x_min":0,"x_max":0,"o":"m 299 0 b 129 143 186 0 129 47 b 135 199 129 160 131 179 l 219 683 l 392 683 l 311 221 b 308 199 310 213 308 206 b 371 142 308 160 331 142 l 411 142 l 388 0 m 381 804 l 411 976 l 592 976 l 561 804 m 132 804 l 163 976 l 343 976 l 313 804 "},"ϋ":{"ha":690,"x_min":0,"x_max":0,"o":"m 599 683 l 771 683 l 690 226 b 342 -18 658 47 539 -18 b 74 164 168 -18 74 32 b 79 226 74 183 75 204 l 160 683 l 336 683 l 261 254 b 257 213 258 239 257 225 b 369 126 257 153 292 126 b 524 254 464 126 507 164 m 264 804 l 294 976 l 475 976 l 444 804 m 542 804 l 572 976 l 753 976 l 722 804 "},"ό":{"ha":749,"x_min":0,"x_max":0,"o":"m 396 133 b 604 397 536 133 604 236 b 469 549 604 521 558 549 b 261 286 328 549 261 447 b 396 133 261 168 306 133 m 369 -18 b 74 275 178 -18 74 101 b 496 701 74 524 247 701 b 788 410 681 701 788 586 b 369 -18 788 160 614 -18 m 444 756 b 513 1103 467 871 489 988 l 675 1103 l 557 756 "},"ύ":{"ha":690,"x_min":0,"x_max":0,"o":"m 415 756 b 483 1103 438 871 460 988 l 646 1103 l 528 756 m 599 683 l 771 683 l 690 226 b 342 -18 658 47 539 -18 b 74 164 168 -18 74 32 b 79 226 74 183 75 204 l 160 683 l 336 683 l 261 254 b 257 213 258 239 257 225 b 369 126 257 153 292 126 b 524 254 464 126 507 164 "},"ώ":{"ha":978,"x_min":0,"x_max":0,"o":"m 636 478 b 603 246 606 310 603 272 b 681 129 603 164 629 129 b 846 485 818 129 846 382 b 811 683 846 560 831 617 l 989 683 b 1026 496 1013 636 1026 575 b 682 -18 1026 300 940 -18 b 507 113 576 -18 526 35 b 283 -18 454 28 385 -18 b 75 238 143 -18 75 68 b 226 683 75 410 146 589 l 404 683 b 256 256 319 551 256 399 b 338 129 256 171 278 129 b 507 478 414 129 457 196 l 636 478 m 558 756 b 626 1103 581 871 603 988 l 789 1103 l 671 756 "},"Ђ":{"ha":1047,"x_min":0,"x_max":0,"o":"m 865 222 b 876 328 874 269 876 301 b 744 442 876 418 842 442 b 550 406 674 442 604 429 l 481 14 l 292 14 l 425 765 l 146 765 l 174 922 l 944 922 l 917 765 l 614 765 l 576 556 b 832 599 646 582 738 599 b 1078 397 979 599 1078 557 b 1069 300 1078 371 1075 333 l 1019 18 b 583 -324 981 -204 821 -324 b 290 -60 388 -324 290 -243 l 468 -60 b 615 -169 468 -137 533 -169 b 829 18 728 -169 807 -107 "},"Ѓ":{"ha":696,"x_min":0,"x_max":0,"o":"m 449 1008 l 418 1085 l 736 1253 l 781 1139 m 31 0 l 193 922 l 842 922 l 814 765 l 354 765 l 219 0 "},"Є":{"ha":851,"x_min":0,"x_max":0,"o":"m 900 317 b 436 -32 826 115 664 -32 b 88 335 232 -32 88 88 b 619 953 88 614 274 953 b 953 619 833 953 953 822 l 760 619 b 582 786 750 725 685 786 b 322 561 463 786 368 703 l 626 561 l 599 403 l 290 403 b 286 349 286 383 286 365 b 467 136 286 213 344 136 b 707 317 579 136 660 201 "},"Љ":{"ha":1353,"x_min":0,"x_max":0,"o":"m 647 0 l 782 765 l 532 765 l 481 547 b 44 0 369 78 282 0 l 11 0 l 39 164 l 61 164 b 318 563 182 164 236 207 l 401 922 l 999 922 l 938 582 l 1125 582 b 1406 360 1299 582 1406 513 b 1050 0 1406 132 1249 0 m 1063 156 b 1236 322 1158 156 1236 226 b 1111 432 1236 388 1192 432 l 911 432 l 863 156 "},"Њ":{"ha":1185,"x_min":0,"x_max":0,"o":"m 513 0 l 588 431 l 299 431 l 224 0 l 36 0 l 199 922 l 386 922 l 326 588 l 615 588 l 675 922 l 864 922 l 803 582 l 982 582 b 1236 358 1143 582 1236 503 b 881 0 1236 132 1079 0 m 894 156 b 1068 322 989 156 1068 225 b 943 432 1068 388 1022 432 l 776 432 l 728 156 "},"Ћ":{"ha":1047,"x_min":0,"x_max":0,"o":"m 826 0 l 878 296 b 882 339 881 311 882 326 b 742 442 882 421 826 442 b 550 406 675 442 604 429 l 479 0 l 290 0 l 425 765 l 146 765 l 174 922 l 944 922 l 917 765 l 614 765 l 576 556 b 832 599 646 582 738 599 b 1078 396 981 599 1078 557 b 1069 300 1078 368 1075 336 l 1017 0 "},"Ќ":{"ha":839,"x_min":0,"x_max":0,"o":"m 604 0 l 403 418 l 278 314 l 222 0 l 32 0 l 194 922 l 385 922 l 321 556 l 732 922 l 988 922 l 560 558 l 833 0 m 507 1008 l 476 1085 l 794 1253 l 839 1139 "},"Ѝ":{"ha":815,"x_min":0,"x_max":0,"o":"m 390 1139 l 476 1253 l 733 1085 l 678 1008 m 600 0 l 710 628 l 217 0 l 36 0 l 199 922 l 382 922 l 275 321 l 743 922 l 944 922 l 782 0 "},"Ў":{"ha":799,"x_min":0,"x_max":0,"o":"m 850 1275 b 583 1044 822 1121 699 1044 b 394 1224 482 1044 394 1104 b 400 1275 394 1239 397 1257 l 514 1275 b 511 1247 513 1265 511 1256 b 603 1154 511 1188 543 1154 b 736 1275 671 1154 719 1199 m 654 464 b 383 344 600 388 496 344 b 146 582 238 344 146 418 b 156 683 146 613 149 646 l 199 922 l 389 922 l 346 685 b 342 636 343 667 342 651 b 481 503 342 543 399 503 b 693 683 589 503 674 574 l 736 922 l 924 922 l 814 304 b 383 -32 775 81 618 -32 b 90 208 196 -32 90 38 b 99 297 90 235 93 265 l 269 297 b 265 254 267 282 265 267 b 415 121 265 163 322 121 b 626 304 525 121 604 178 "},"Џ":{"ha":801,"x_min":0,"x_max":0,"o":"m 476 0 l 435 -235 l 297 -235 l 339 0 l 36 0 l 199 922 l 388 922 l 253 164 l 619 164 l 754 922 l 944 922 l 782 0 "},"Б":{"ha":742,"x_min":0,"x_max":0,"o":"m 36 0 l 199 922 l 736 922 l 707 757 l 357 757 l 325 582 l 539 582 b 793 358 700 582 793 503 b 438 0 793 132 636 0 m 451 156 b 625 322 547 156 625 226 b 500 432 625 388 581 432 l 299 432 l 250 156 "},"Д":{"ha":990,"x_min":0,"x_max":0,"o":"m 794 -235 l 836 0 l 154 0 l 113 -235 l -25 -235 l 43 164 l 103 164 b 344 563 208 164 265 219 l 428 922 l 1025 922 l 890 164 l 1003 164 l 933 -235 m 808 765 l 558 765 l 513 563 b 367 164 468 368 419 239 l 701 164 "},"Ж":{"ha":1233,"x_min":0,"x_max":0,"o":"m 993 0 l 774 379 l 707 0 l 526 0 l 593 379 l 240 0 l 10 0 l 479 469 l 190 922 l 414 922 l 628 581 l 689 922 l 869 922 l 808 581 l 1144 922 l 1368 922 l 917 469 l 1222 0 "},"З":{"ha":783,"x_min":0,"x_max":0,"o":"m 383 404 l 411 564 l 497 564 b 686 708 610 564 686 624 b 533 796 686 765 639 796 b 319 642 404 796 339 750 l 138 642 b 561 953 169 821 292 953 b 876 746 776 953 876 868 b 683 496 876 621 800 525 b 829 317 771 479 829 417 b 385 -32 829 104 646 -32 b 53 226 149 -32 53 76 b 60 299 53 250 56 274 l 246 299 b 243 265 244 288 243 276 b 419 128 243 175 293 128 b 639 307 549 128 639 183 b 476 404 639 381 579 404 "},"И":{"ha":815,"x_min":0,"x_max":0,"o":"m 600 0 l 710 628 l 217 0 l 36 0 l 199 922 l 382 922 l 275 321 l 743 922 l 944 922 l 782 0 "},"Й":{"ha":815,"x_min":0,"x_max":0,"o":"m 858 1275 b 592 1044 831 1121 707 1044 b 403 1224 490 1044 403 1104 b 408 1275 403 1239 406 1257 l 522 1275 b 519 1247 521 1265 519 1256 b 611 1154 519 1188 551 1154 b 744 1275 679 1154 728 1199 m 600 0 l 710 628 l 217 0 l 36 0 l 199 922 l 382 922 l 275 321 l 743 922 l 944 922 l 782 0 "},"Л":{"ha":872,"x_min":0,"x_max":0,"o":"m 647 0 l 782 765 l 533 765 l 486 563 b 46 0 374 76 279 0 l 11 0 l 39 164 l 61 164 b 318 563 188 164 235 210 l 403 922 l 1000 922 l 838 0 "},"У":{"ha":799,"x_min":0,"x_max":0,"o":"m 654 464 b 383 344 600 388 496 344 b 146 582 238 344 146 418 b 156 683 146 613 149 646 l 199 922 l 389 922 l 346 685 b 342 636 343 667 342 651 b 481 503 342 543 399 503 b 693 683 589 503 674 574 l 736 922 l 924 922 l 814 304 b 383 -32 775 81 618 -32 b 90 208 196 -32 90 38 b 99 297 90 235 93 265 l 269 297 b 265 254 267 282 265 267 b 415 121 265 163 322 121 b 626 304 525 121 604 178 "},"Ц":{"ha":908,"x_min":0,"x_max":0,"o":"m 714 -235 l 756 0 l 36 0 l 199 922 l 388 922 l 253 164 l 619 164 l 754 922 l 944 922 l 810 164 l 921 164 l 851 -235 "},"Ч":{"ha":792,"x_min":0,"x_max":0,"o":"m 568 0 l 632 367 b 375 322 563 339 469 322 b 129 525 226 322 129 364 b 139 621 129 553 132 585 l 193 922 l 383 922 l 331 625 b 326 581 328 608 326 593 b 465 479 326 500 378 479 b 658 517 532 479 604 492 l 731 922 l 918 922 l 756 0 "},"Ш":{"ha":1139,"x_min":0,"x_max":0,"o":"m 36 0 l 199 922 l 388 922 l 253 164 l 503 164 l 638 922 l 826 922 l 692 164 l 942 164 l 1076 922 l 1264 922 l 1101 0 "},"Щ":{"ha":1229,"x_min":0,"x_max":0,"o":"m 1035 -235 l 1076 0 l 36 0 l 199 922 l 388 922 l 253 164 l 503 164 l 638 922 l 826 922 l 692 164 l 942 164 l 1076 922 l 1264 922 l 1129 164 l 1243 164 l 1174 -235 "},"Ъ":{"ha":997,"x_min":0,"x_max":0,"o":"m 292 0 l 426 765 l 146 765 l 174 922 l 642 922 l 581 582 l 768 582 b 1049 361 942 582 1049 513 b 693 0 1049 129 890 0 m 707 156 b 881 322 803 156 881 226 b 756 432 881 388 836 432 l 554 432 l 506 156 "},"Ы":{"ha":1001,"x_min":0,"x_max":0,"o":"m 774 0 l 936 922 l 1129 922 l 967 0 m 451 156 b 625 322 547 156 625 226 b 500 432 625 388 581 432 l 299 432 l 250 156 m 36 0 l 199 922 l 386 922 l 325 582 l 539 582 b 793 358 700 582 793 503 b 438 0 793 132 636 0 "},"Ь":{"ha":742,"x_min":0,"x_max":0,"o":"m 451 156 b 625 322 547 156 625 226 b 500 432 625 388 581 432 l 299 432 l 250 156 m 36 0 l 199 922 l 386 922 l 325 582 l 539 582 b 793 358 700 582 793 503 b 438 0 793 132 636 0 "},"Э":{"ha":851,"x_min":0,"x_max":0,"o":"m 394 403 l 422 561 l 726 561 b 549 786 726 708 671 786 b 308 619 439 786 354 724 l 115 619 b 569 953 168 808 339 953 b 922 578 793 953 922 817 b 400 -32 922 290 735 -32 b 63 317 176 -32 64 113 l 256 317 b 431 136 261 201 319 136 b 704 403 569 136 674 239 "},"Ю":{"ha":1192,"x_min":0,"x_max":0,"o":"m 32 0 l 194 922 l 388 922 l 321 546 l 382 546 b 893 953 456 801 635 953 b 1256 575 1129 953 1256 825 b 713 -32 1256 282 1082 -32 b 347 321 479 -32 347 93 b 351 394 347 344 349 369 l 294 394 l 225 0 m 736 133 b 1063 549 967 133 1063 364 b 865 782 1063 707 993 782 b 539 358 640 782 539 546 b 736 133 539 200 611 133 "},"Я":{"ha":803,"x_min":0,"x_max":0,"o":"m 578 0 l 640 361 l 504 361 l 229 0 l 10 0 l 308 368 b 128 594 186 408 128 478 b 483 922 128 786 283 922 l 928 922 l 765 0 m 713 765 l 474 765 b 303 615 375 765 303 703 b 428 507 303 544 350 507 l 667 507 "},"б":{"ha":749,"x_min":0,"x_max":0,"o":"m 465 786 b 281 574 364 786 303 699 b 531 676 349 653 449 676 b 788 422 697 676 788 579 b 369 -18 788 196 625 -18 b 78 264 182 -18 78 86 b 126 564 78 363 103 465 b 513 931 190 832 299 931 l 590 931 b 722 1029 653 931 694 943 l 829 1029 b 554 786 789 888 689 786 m 393 129 b 610 410 540 129 610 272 b 469 551 610 504 563 551 b 253 272 347 551 253 458 b 393 129 253 178 300 129 "},"в":{"ha":700,"x_min":0,"x_max":0,"o":"m 40 0 l 160 683 l 567 683 b 760 551 708 683 760 626 b 619 369 760 453 696 389 b 725 236 675 356 725 317 b 417 0 725 100 631 0 m 267 313 l 235 128 l 413 128 b 549 240 499 128 549 168 b 456 313 549 288 517 313 m 311 561 l 283 407 l 465 407 b 575 500 529 407 575 438 b 489 561 575 539 547 561 "},"г":{"ha":486,"x_min":0,"x_max":0,"o":"m 42 0 l 161 683 l 596 683 l 571 539 l 313 539 l 218 0 "},"д":{"ha":817,"x_min":0,"x_max":0,"o":"m 633 -207 l 671 0 l 146 0 l 108 -207 l -21 -207 l 40 144 l 69 144 b 263 426 161 144 206 183 l 322 683 l 815 683 l 721 144 l 826 144 l 764 -207 m 614 539 l 426 539 l 397 417 b 296 144 375 324 338 199 l 544 144 "},"ж":{"ha":951,"x_min":0,"x_max":0,"o":"m 729 0 l 603 256 l 558 0 l 392 0 l 436 256 l 221 0 l 8 0 l 326 349 l 138 683 l 343 683 l 465 422 l 511 683 l 678 683 l 632 422 l 846 683 l 1051 683 l 746 349 l 942 0 "},"з":{"ha":651,"x_min":0,"x_max":0,"o":"m 325 301 l 346 418 l 404 418 b 535 518 475 418 535 446 b 428 581 535 561 499 581 b 278 471 333 581 292 546 l 100 471 b 456 701 135 599 236 701 b 708 546 626 701 708 638 b 557 367 708 454 644 388 b 675 232 622 353 675 310 b 328 -18 675 79 526 -18 b 50 199 124 -18 50 81 b 51 228 50 208 50 218 l 229 228 b 228 204 228 219 228 211 b 349 108 228 142 260 108 b 500 233 428 108 500 139 b 388 301 500 282 463 301 "},"и":{"ha":708,"x_min":0,"x_max":0,"o":"m 490 0 l 571 464 l 214 0 l 40 0 l 160 683 l 338 683 l 260 239 l 599 683 l 786 683 l 667 0 "},"й":{"ha":708,"x_min":0,"x_max":0,"o":"m 764 1036 b 497 806 736 882 613 806 b 308 985 396 806 308 865 b 314 1036 308 1000 311 1018 l 428 1036 b 425 1008 426 1026 425 1017 b 517 915 425 949 457 915 b 650 1036 585 915 633 960 m 490 0 l 571 464 l 214 0 l 40 0 l 160 683 l 338 683 l 260 239 l 599 683 l 786 683 l 667 0 "},"л":{"ha":736,"x_min":0,"x_max":0,"o":"m 519 0 l 614 539 l 426 539 l 397 417 b 43 0 313 60 239 0 l 15 0 l 40 144 l 58 144 b 263 426 157 144 204 175 l 322 683 l 815 683 l 696 0 "},"м":{"ha":869,"x_min":0,"x_max":0,"o":"m 668 0 l 751 474 l 521 0 l 347 0 l 283 471 l 201 0 l 40 0 l 160 683 l 411 683 l 472 197 l 703 683 l 949 683 l 829 0 "},"н":{"ha":708,"x_min":0,"x_max":0,"o":"m 492 0 l 540 279 l 265 279 l 217 0 l 40 0 l 160 683 l 336 683 l 290 422 l 565 422 l 611 683 l 788 683 l 668 0 "},"п":{"ha":708,"x_min":0,"x_max":0,"o":"m 492 0 l 586 539 l 311 539 l 217 0 l 40 0 l 160 683 l 788 683 l 668 0 "},"т":{"ha":665,"x_min":0,"x_max":0,"o":"m 244 0 l 339 539 l 104 539 l 129 683 l 774 683 l 749 539 l 515 539 l 421 0 "},"ц":{"ha":789,"x_min":0,"x_max":0,"o":"m 606 -207 l 643 0 l 40 0 l 160 683 l 336 683 l 242 143 l 515 143 l 610 683 l 786 683 l 692 143 l 799 143 l 736 -207 "},"ч":{"ha":697,"x_min":0,"x_max":0,"o":"m 479 0 l 526 269 b 311 235 468 249 390 235 b 104 397 186 235 104 268 b 113 474 104 419 107 444 l 149 683 l 325 683 l 289 476 b 286 444 286 464 286 454 b 394 368 286 385 326 368 b 549 396 450 368 506 378 l 599 683 l 775 683 l 656 0 "},"ш":{"ha":1038,"x_min":0,"x_max":0,"o":"m 40 0 l 160 683 l 336 683 l 242 144 l 458 144 l 553 683 l 724 683 l 629 144 l 846 144 l 940 683 l 1117 683 l 997 0 "},"щ":{"ha":1118,"x_min":0,"x_max":0,"o":"m 935 -207 l 972 0 l 40 0 l 160 683 l 336 683 l 242 144 l 458 144 l 553 683 l 724 683 l 629 144 l 846 144 l 940 683 l 1117 683 l 1022 144 l 1128 144 l 1065 -207 "},"ъ":{"ha":940,"x_min":0,"x_max":0,"o":"m 267 0 l 361 539 l 104 539 l 129 683 l 563 683 l 525 465 l 726 465 b 967 281 882 465 967 414 b 650 0 967 117 838 0 m 501 336 l 467 135 l 683 135 b 808 256 754 135 808 182 b 718 336 808 313 775 336 "},"ы":{"ha":979,"x_min":0,"x_max":0,"o":"m 40 0 l 160 683 l 336 683 l 299 465 l 526 465 b 739 288 663 465 739 403 b 444 0 739 103 611 0 m 275 336 l 240 135 l 457 135 b 582 261 529 135 582 179 b 492 336 582 310 549 336 m 753 0 l 872 683 l 1053 683 l 933 0 "},"ь":{"ha":713,"x_min":0,"x_max":0,"o":"m 40 0 l 160 683 l 336 683 l 299 465 l 526 465 b 739 288 663 465 739 403 b 444 0 739 103 611 0 m 275 336 l 240 135 l 457 135 b 582 261 529 135 582 179 b 492 336 582 310 549 336 "},"э":{"ha":678,"x_min":0,"x_max":0,"o":"m 318 299 l 336 401 l 543 401 b 428 561 543 499 532 561 b 275 461 350 561 294 526 l 96 461 b 458 701 156 643 321 701 b 718 422 607 701 718 632 b 321 -18 718 164 550 -18 b 53 222 179 -18 53 51 l 228 222 b 350 121 228 157 285 121 b 526 299 422 121 494 165 "},"ю":{"ha":1015,"x_min":0,"x_max":0,"o":"m 40 0 l 160 683 l 340 683 l 293 413 l 365 413 b 764 701 422 589 568 701 b 1053 414 947 701 1053 601 b 628 -18 1053 167 868 -18 b 340 276 436 -18 340 99 l 269 276 l 221 0 m 656 133 b 871 401 808 133 871 281 b 742 549 871 503 826 549 b 526 281 590 549 526 406 b 656 133 526 179 569 133 "},"я":{"ha":685,"x_min":0,"x_max":0,"o":"m 468 0 l 508 231 l 383 231 l 194 0 l 8 0 l 222 244 b 99 413 142 268 99 314 b 392 683 99 581 226 683 l 764 683 l 644 0 m 564 549 l 381 549 b 256 440 307 549 256 506 b 349 364 256 386 290 364 l 532 364 "},"ђ":{"ha":699,"x_min":0,"x_max":0,"o":"m 317 -160 b 350 -167 325 -164 332 -167 b 467 -37 425 -167 453 -112 l 547 424 b 553 474 550 443 553 460 b 464 558 553 535 522 558 b 285 392 360 558 301 485 l 217 0 l 36 0 l 167 747 l 131 747 l 153 874 l 189 874 l 200 933 l 381 933 l 369 874 l 599 874 l 576 747 l 347 747 l 321 594 b 546 701 360 657 449 701 b 744 526 664 701 744 636 b 740 483 744 513 743 499 l 647 -46 b 331 -324 618 -211 482 -324 b 289 -321 314 -324 301 -322 "},"ѓ":{"ha":486,"x_min":0,"x_max":0,"o":"m 303 769 l 272 846 l 590 1014 l 635 900 m 42 0 l 161 683 l 596 683 l 571 539 l 313 539 l 218 0 "},"є":{"ha":678,"x_min":0,"x_max":0,"o":"m 703 222 b 343 -18 646 51 489 -18 b 78 254 178 -18 78 71 b 475 701 78 468 215 701 b 743 461 604 701 743 643 l 564 461 b 449 561 564 526 526 561 b 274 401 347 561 304 500 l 481 401 l 463 299 l 254 299 b 251 257 253 283 251 272 b 369 121 251 156 307 121 b 525 222 440 121 514 164 "},"љ":{"ha":1192,"x_min":0,"x_max":0,"o":"m 518 0 l 613 539 l 425 539 l 401 439 b 43 0 311 60 247 0 l 14 0 l 39 143 l 58 143 b 265 444 151 143 204 190 l 322 683 l 814 683 l 776 465 l 985 465 b 1218 290 1128 465 1218 411 b 924 0 1218 104 1090 0 m 753 336 l 718 135 l 935 135 b 1061 260 1007 135 1061 179 b 969 336 1061 310 1026 336 "},"њ":{"ha":1071,"x_min":0,"x_max":0,"o":"m 446 0 l 504 336 l 275 336 l 217 0 l 40 0 l 160 683 l 336 683 l 299 465 l 528 465 l 565 683 l 742 683 l 704 465 l 867 465 b 1099 289 1010 465 1099 413 b 785 0 1099 89 963 0 m 681 336 l 646 135 l 815 135 b 940 260 886 135 940 179 b 850 336 940 310 907 336 "},"ќ":{"ha":671,"x_min":0,"x_max":0,"o":"m 381 769 l 350 846 l 668 1014 l 713 900 m 456 0 l 358 307 l 256 217 l 218 0 l 36 0 l 156 683 l 338 683 l 292 424 l 563 683 l 783 683 l 510 432 l 658 0 "},"ѝ":{"ha":708,"x_min":0,"x_max":0,"o":"m 296 900 l 382 1014 l 639 846 l 583 769 m 490 0 l 571 464 l 214 0 l 40 0 l 160 683 l 338 683 l 260 239 l 599 683 l 786 683 l 667 0 "},"ў":{"ha":697,"x_min":0,"x_max":0,"o":"m 486 90 b 285 -7 451 29 369 -7 b 74 188 158 -7 74 68 b 79 240 74 204 76 222 l 157 683 l 338 683 l 264 267 b 258 219 261 249 258 233 b 357 139 258 156 293 139 b 518 267 439 139 506 193 l 592 683 l 772 683 l 649 -18 b 281 -324 614 -211 453 -324 b 22 -106 107 -324 22 -242 b 29 -37 22 -85 25 -61 l 197 -37 b 194 -72 194 -50 194 -61 b 317 -168 194 -137 235 -168 b 467 -21 382 -168 451 -111 m 758 1036 b 492 806 731 882 607 806 b 303 985 390 806 303 865 b 308 1036 303 1000 306 1018 l 422 1036 b 419 1008 421 1026 419 1017 b 511 915 419 949 451 915 b 644 1036 579 915 628 960 "},"џ":{"ha":708,"x_min":0,"x_max":0,"o":"m 418 0 l 381 -207 l 250 -207 l 288 0 l 40 0 l 160 683 l 336 683 l 242 143 l 515 143 l 610 683 l 786 683 l 667 0 "},"Ґ":{"ha":696,"x_min":0,"x_max":0,"o":"m 31 0 l 193 922 l 703 922 l 743 1157 l 882 1157 l 814 765 l 354 765 l 219 0 "},"ґ":{"ha":486,"x_min":0,"x_max":0,"o":"m 40 0 l 160 683 l 464 683 l 501 890 l 632 890 l 569 539 l 311 539 l 217 0 "},"Ғ":{"ha":772,"x_min":0,"x_max":0,"o":"m 108 0 l 176 386 l 72 386 l 92 503 l 196 503 l 271 922 l 918 922 l 890 765 l 431 765 l 383 503 l 617 503 l 597 386 l 364 386 l 296 0 "},"ғ":{"ha":549,"x_min":0,"x_max":0,"o":"m 322 243 l 281 0 l 104 0 l 146 243 l 42 243 l 63 360 l 167 360 l 224 683 l 658 683 l 633 539 l 375 539 l 343 360 l 588 360 l 567 243 "},"Җ":{"ha":1321,"x_min":0,"x_max":0,"o":"m 1126 -235 l 1168 0 l 993 0 l 774 379 l 707 0 l 526 0 l 593 379 l 240 0 l 10 0 l 479 469 l 190 922 l 414 922 l 628 581 l 689 922 l 869 922 l 808 581 l 1144 922 l 1368 922 l 917 469 l 1114 164 l 1333 164 l 1264 -235 "},"җ":{"ha":1038,"x_min":0,"x_max":0,"o":"m 854 -207 l 892 0 l 729 0 l 603 256 l 558 0 l 392 0 l 436 256 l 221 0 l 8 0 l 326 349 l 138 683 l 343 683 l 465 422 l 511 683 l 678 683 l 632 422 l 846 683 l 1051 683 l 746 349 l 860 144 l 1047 144 l 985 -207 "},"Ҙ":{"ha":783,"x_min":0,"x_max":0,"o":"m 219 -171 b 290 -185 238 -178 261 -185 b 313 -178 300 -185 307 -182 b 394 -118 365 -175 394 -154 b 306 -26 394 -89 376 -65 b 53 226 126 -6 53 93 b 60 299 53 250 56 274 l 246 299 b 243 265 244 288 243 276 b 419 128 243 175 293 128 b 639 307 549 128 639 183 b 476 404 639 381 579 404 l 383 404 l 411 564 l 497 564 b 686 708 610 564 686 624 b 533 796 686 765 639 796 b 319 642 404 796 339 750 l 138 642 b 561 953 169 821 292 953 b 876 746 776 953 876 868 b 683 496 876 621 800 525 b 829 317 771 479 829 417 b 388 -32 829 104 649 -31 b 511 -183 465 -71 511 -122 b 338 -324 511 -268 443 -324 b 199 -287 263 -324 222 -308 "},"ҙ":{"ha":651,"x_min":0,"x_max":0,"o":"m 193 -171 b 264 -185 210 -179 235 -185 b 365 -118 331 -185 365 -162 b 249 -11 365 -86 342 -57 b 50 197 104 10 50 96 b 51 228 50 207 50 218 l 229 228 b 228 204 228 219 228 211 b 349 108 228 142 260 108 b 500 233 428 108 500 139 b 388 301 500 282 463 301 l 325 301 l 346 418 l 404 418 b 535 518 475 418 535 446 b 428 581 535 561 499 581 b 278 471 333 581 292 546 l 100 471 b 456 701 135 599 236 701 b 708 546 626 701 708 638 b 557 367 708 454 644 388 b 675 232 622 353 675 310 b 328 -18 675 79 526 -18 b 483 -183 425 -58 483 -115 b 310 -324 483 -268 415 -324 b 172 -287 235 -324 194 -308 "},"Қ":{"ha":933,"x_min":0,"x_max":0,"o":"m 739 -235 l 781 0 l 599 0 l 397 415 l 276 314 l 222 0 l 32 0 l 194 922 l 385 922 l 318 547 l 738 922 l 988 922 l 558 558 l 751 164 l 946 164 l 876 -235 "},"қ":{"ha":754,"x_min":0,"x_max":0,"o":"m 572 -207 l 610 0 l 456 0 l 358 307 l 256 217 l 218 0 l 36 0 l 156 683 l 338 683 l 292 424 l 563 683 l 783 683 l 510 432 l 608 144 l 765 144 l 703 -207 "},"Ҡ":{"ha":1094,"x_min":0,"x_max":0,"o":"m 861 0 l 658 418 l 531 313 l 476 0 l 292 0 l 426 765 l 146 765 l 174 922 l 639 922 l 571 542 l 1000 922 l 1243 922 l 814 558 l 1090 0 "},"ҡ":{"ha":897,"x_min":0,"x_max":0,"o":"m 689 0 l 590 310 l 482 217 l 444 0 l 267 0 l 361 539 l 104 539 l 129 683 l 564 683 l 518 419 l 796 683 l 1013 683 l 736 432 l 888 0 "},"Ң":{"ha":908,"x_min":0,"x_max":0,"o":"m 714 -235 l 756 0 l 592 0 l 664 417 l 297 417 l 225 0 l 36 0 l 199 922 l 388 922 l 325 574 l 692 574 l 754 922 l 944 922 l 810 164 l 921 164 l 851 -235 "},"ң":{"ha":789,"x_min":0,"x_max":0,"o":"m 606 -207 l 643 0 l 492 0 l 540 279 l 265 279 l 217 0 l 40 0 l 160 683 l 336 683 l 290 422 l 565 422 l 611 683 l 788 683 l 693 144 l 799 144 l 736 -207 "},"Ҫ":{"ha":851,"x_min":0,"x_max":0,"o":"m 269 -171 b 343 -185 286 -179 310 -185 b 443 -121 406 -185 443 -164 b 344 -22 443 -87 421 -62 b 88 333 186 13 88 126 b 618 953 88 617 274 953 b 953 619 836 953 953 819 l 760 619 b 582 786 751 719 690 786 b 286 356 369 786 286 526 b 465 136 286 211 346 136 b 707 317 576 136 660 200 l 900 317 b 435 -32 824 107 654 -32 b 561 -187 513 -71 561 -119 b 379 -324 561 -265 496 -324 b 249 -287 318 -324 269 -308 "},"ҫ":{"ha":668,"x_min":0,"x_max":0,"o":"m 213 -171 b 286 -185 231 -179 253 -185 b 386 -121 349 -185 386 -164 b 269 -12 386 -90 368 -62 b 75 256 154 8 75 85 b 468 701 75 472 203 701 b 729 439 632 701 729 614 l 547 439 b 442 551 547 510 507 551 b 257 293 349 551 257 468 b 363 133 257 172 300 133 b 513 247 425 133 493 172 l 694 247 b 347 -18 647 93 507 -11 b 506 -187 444 -58 506 -111 b 322 -324 506 -265 440 -324 b 192 -287 261 -324 213 -308 "},"γ":{"ha":696,"x_min":0,"x_max":0,"o":"m 203 -324 l 260 -7 l 128 683 l 325 683 l 390 226 l 619 683 l 806 683 l 432 -7 l 375 -324 "},"Ҳ":{"ha":929,"x_min":0,"x_max":0,"o":"m 735 -235 l 776 0 l 593 0 l 472 317 l 231 0 l 6 0 l 386 471 l 185 922 l 413 922 l 526 624 l 747 922 l 971 922 l 611 479 l 753 164 l 942 164 l 872 -235 "},"ҳ":{"ha":772,"x_min":0,"x_max":0,"o":"m 590 -207 l 628 0 l 457 0 l 374 206 l 221 0 l 4 0 l 294 349 l 131 683 l 349 683 l 429 485 l 581 683 l 790 683 l 506 349 l 606 144 l 783 144 l 721 -207 "},"Ҷ":{"ha":883,"x_min":0,"x_max":0,"o":"m 689 -235 l 731 0 l 568 0 l 632 367 b 375 322 563 339 469 322 b 129 525 226 322 129 364 b 139 621 129 553 132 585 l 193 922 l 383 922 l 331 625 b 326 581 328 608 326 593 b 465 479 326 500 378 479 b 658 517 532 479 604 492 l 731 922 l 918 922 l 783 164 l 896 164 l 826 -235 "},"ҷ":{"ha":778,"x_min":0,"x_max":0,"o":"m 594 -207 l 632 0 l 479 0 l 526 269 b 311 235 468 249 390 235 b 104 397 186 235 104 268 b 113 474 104 419 107 444 l 149 683 l 325 683 l 289 476 b 286 444 286 464 286 454 b 394 368 286 385 326 368 b 549 396 450 368 506 378 l 599 683 l 775 683 l 681 144 l 788 144 l 725 -207 "},"Һ":{"ha":792,"x_min":0,"x_max":0,"o":"m 571 0 l 622 297 b 626 342 625 314 626 329 b 488 443 626 421 574 443 b 294 406 421 443 349 431 l 224 0 l 36 0 l 199 922 l 386 922 l 321 556 b 578 600 392 583 483 600 b 824 397 726 600 824 558 b 814 301 824 369 819 338 l 761 0 "},"Ӄ":{"ha":839,"x_min":0,"x_max":0,"o":"m 315 540 l 743 922 l 988 922 b 558 558 844 800 701 679 l 744 192 b 803 -12 783 115 803 51 b 486 -324 803 -178 675 -324 b 271 -108 347 -324 271 -244 b 278 -37 271 -90 272 -64 l 443 -37 b 439 -82 440 -54 439 -68 b 517 -167 439 -135 460 -167 b 621 -61 585 -167 621 -122 b 563 106 621 -11 597 38 l 401 418 l 275 313 l 221 0 l 36 0 l 199 922 l 383 922 "},"ӄ":{"ha":671,"x_min":0,"x_max":0,"o":"m 364 310 l 256 217 l 218 0 l 40 0 l 160 683 l 338 683 l 292 419 l 571 683 l 786 683 l 510 432 l 613 132 b 636 -10 628 86 636 40 b 335 -324 636 -210 501 -324 b 125 -122 197 -324 125 -246 b 131 -58 125 -99 128 -81 l 283 -58 b 279 -94 281 -69 279 -82 b 350 -172 279 -142 300 -172 b 457 -39 417 -172 457 -117 b 436 72 457 -11 451 22 "},"Ӈ":{"ha":815,"x_min":0,"x_max":0,"o":"m 664 417 l 297 417 l 225 0 l 36 0 l 199 922 l 388 922 l 325 574 l 692 574 l 754 922 l 944 922 l 774 -46 b 435 -324 744 -211 606 -324 b 213 -111 292 -324 213 -244 b 219 -37 213 -87 215 -64 l 385 -37 b 381 -85 382 -54 381 -71 b 461 -167 381 -137 403 -167 b 585 -39 535 -167 571 -118 "},"ӈ":{"ha":708,"x_min":0,"x_max":0,"o":"m 539 278 l 265 278 l 217 0 l 40 0 l 160 683 l 336 683 l 290 422 l 564 422 l 610 683 l 786 683 l 657 -54 b 336 -324 629 -214 500 -324 b 125 -119 197 -324 125 -246 b 132 -47 125 -97 128 -72 l 297 -47 b 293 -92 294 -64 293 -78 b 367 -167 293 -139 313 -167 b 482 -47 435 -167 468 -122 "},"Ө":{"ha":931,"x_min":0,"x_max":0,"o":"m 994 585 b 450 -32 994 269 819 -32 b 89 344 211 -32 89 85 b 640 953 89 710 329 953 b 994 585 868 953 994 824 m 281 388 b 481 133 281 200 356 133 b 778 388 614 133 726 211 m 801 547 b 601 782 801 701 739 782 b 314 547 465 782 367 701 "},"ө":{"ha":749,"x_min":0,"x_max":0,"o":"m 368 -18 b 72 260 176 -18 72 92 b 496 701 72 521 258 701 b 786 425 681 701 786 594 b 368 -18 786 163 601 -18 m 260 281 b 394 133 260 182 299 133 b 582 281 486 133 550 182 m 603 407 b 468 549 603 501 560 549 b 282 407 376 549 315 501 "},"Ӯ":{"ha":799,"x_min":0,"x_max":0,"o":"m 325 1075 l 347 1201 l 876 1201 l 854 1075 m 654 464 b 383 344 600 388 496 344 b 146 582 238 344 146 418 b 156 683 146 613 149 646 l 199 922 l 389 922 l 346 685 b 342 636 343 667 342 651 b 481 503 342 543 399 503 b 693 683 589 503 674 574 l 736 922 l 924 922 l 814 304 b 383 -32 775 81 618 -32 b 90 208 196 -32 90 38 b 99 297 90 235 93 265 l 269 297 b 265 254 267 282 265 267 b 415 121 265 163 322 121 b 626 304 525 121 604 178 "},"ӯ":{"ha":697,"x_min":0,"x_max":0,"o":"m 486 90 b 285 -7 451 29 369 -7 b 74 188 158 -7 74 68 b 79 240 74 204 76 222 l 157 683 l 338 683 l 264 267 b 258 219 261 249 258 233 b 357 139 258 156 293 139 b 518 267 439 139 506 193 l 592 683 l 772 683 l 649 -18 b 281 -324 614 -211 453 -324 b 22 -106 107 -324 22 -242 b 29 -37 22 -85 25 -61 l 197 -37 b 194 -72 194 -50 194 -61 b 317 -168 194 -137 235 -168 b 467 -21 382 -168 451 -111 m 233 836 l 256 963 l 785 963 l 763 836 "},"Ԓ":{"ha":872,"x_min":0,"x_max":0,"o":"m 782 765 l 533 765 l 486 563 b 46 0 374 76 279 0 l 11 0 l 39 164 l 61 164 b 318 563 188 164 235 210 l 403 922 l 1000 922 l 829 -46 b 485 -324 800 -211 656 -324 b 268 -114 342 -324 268 -244 b 275 -37 268 -90 269 -64 l 440 -37 b 436 -83 438 -54 436 -69 b 517 -167 436 -136 457 -167 b 640 -39 590 -167 626 -118 "},"ԓ":{"ha":736,"x_min":0,"x_max":0,"o":"m 614 539 l 426 539 l 397 417 b 43 0 313 60 239 0 l 15 0 l 40 144 l 58 144 b 263 426 157 144 204 175 l 322 683 l 815 683 l 685 -56 b 365 -324 657 -215 531 -324 b 154 -121 226 -324 154 -247 b 161 -47 154 -97 157 -74 l 326 -47 b 321 -93 322 -61 321 -79 b 394 -167 321 -140 342 -167 b 511 -47 463 -167 499 -121 "},"֏":{"ha":678,"x_min":0,"x_max":0,"o":"m 407 0 l 438 175 l 176 175 l 197 292 l 458 292 l 475 392 l 214 392 l 235 508 l 496 508 b 528 708 526 682 528 696 b 433 800 528 768 499 800 b 297 667 356 800 313 754 l 281 574 l 110 574 l 126 668 b 464 954 161 867 285 954 b 719 738 635 954 719 875 b 685 508 719 719 718 697 l 760 508 l 739 392 l 664 392 l 647 292 l 722 292 l 701 175 l 626 175 l 596 0 "},"Ḍ":{"ha":843,"x_min":0,"x_max":0,"o":"m 407 157 b 713 557 638 157 713 332 b 497 763 713 719 647 763 l 354 763 l 247 157 m 32 0 l 194 922 l 551 922 b 910 556 769 922 910 783 b 418 0 910 242 696 0 m 257 -286 l 288 -114 l 468 -114 l 438 -286 "},"ḍ":{"ha":726,"x_min":0,"x_max":0,"o":"m 382 129 b 578 392 482 129 578 231 b 457 547 578 515 538 547 b 260 292 317 547 260 435 b 382 129 260 182 307 129 m 510 0 l 524 83 b 315 -18 468 14 399 -18 b 75 268 168 -18 75 89 b 426 701 75 510 217 701 b 610 594 511 701 572 667 l 669 933 l 847 933 l 683 0 m 215 -286 l 246 -114 l 426 -114 l 396 -286 "},"Ḓ":{"ha":843,"x_min":0,"x_max":0,"o":"m 407 157 b 713 557 638 157 713 332 b 497 763 713 719 647 763 l 354 763 l 247 157 m 32 0 l 194 922 l 551 922 b 910 556 769 922 910 783 b 418 0 910 242 696 0 m 525 -315 l 367 -151 l 150 -315 l 99 -244 l 310 -58 l 457 -58 l 601 -244 "},"ḓ":{"ha":726,"x_min":0,"x_max":0,"o":"m 382 129 b 578 392 482 129 578 231 b 457 547 578 515 538 547 b 260 292 317 547 260 435 b 382 129 260 182 307 129 m 510 0 l 524 83 b 315 -18 468 14 399 -18 b 75 268 168 -18 75 89 b 426 701 75 510 217 701 b 610 594 511 701 572 667 l 669 933 l 847 933 l 683 0 m 485 -315 l 326 -151 l 110 -315 l 58 -244 l 269 -58 l 417 -58 l 561 -244 "},"Ḥ":{"ha":815,"x_min":0,"x_max":0,"o":"m 585 0 l 658 414 l 299 414 l 225 0 l 32 0 l 194 922 l 388 922 l 326 575 l 686 575 l 747 922 l 942 922 l 779 0 m 274 -286 l 304 -114 l 485 -114 l 454 -286 "},"ḥ":{"ha":699,"x_min":0,"x_max":0,"o":"m 474 0 l 549 424 b 554 482 553 447 554 467 b 456 558 554 547 521 558 b 286 392 364 558 303 483 l 217 0 l 36 0 l 200 933 l 381 933 l 321 594 b 542 701 358 656 450 701 b 744 529 665 701 744 638 b 740 483 744 515 743 500 l 656 0 m 215 -286 l 246 -114 l 426 -114 l 396 -286 "},"Ḽ":{"ha":696,"x_min":0,"x_max":0,"o":"m 32 0 l 194 922 l 388 922 l 254 168 l 711 168 l 682 0 m 497 -315 l 339 -151 l 122 -315 l 71 -244 l 282 -58 l 429 -58 l 574 -244 "},"ḽ":{"ha":329,"x_min":0,"x_max":0,"o":"m 72 0 l 236 933 l 417 933 l 253 0 m 300 -315 l 142 -151 l -75 -315 l -126 -244 l 85 -58 l 232 -58 l 376 -244 "},"Ṅ":{"ha":821,"x_min":0,"x_max":0,"o":"m 611 0 l 321 619 l 211 0 l 32 0 l 194 922 l 393 922 l 661 329 l 765 922 l 946 922 l 783 0 m 510 1043 l 540 1215 l 721 1215 l 690 1043 "},"ṅ":{"ha":699,"x_min":0,"x_max":0,"o":"m 474 0 l 547 414 b 553 472 551 436 553 456 b 454 549 553 533 522 549 b 286 392 360 549 304 496 l 217 0 l 36 0 l 157 683 l 329 683 l 311 583 b 553 701 367 660 443 701 b 743 526 667 701 743 640 b 739 474 743 510 742 492 l 656 0 m 408 804 l 439 976 l 619 976 l 589 804 "},"Ṋ":{"ha":821,"x_min":0,"x_max":0,"o":"m 611 0 l 321 619 l 211 0 l 32 0 l 194 922 l 393 922 l 661 329 l 765 922 l 946 922 l 783 0 m 546 -315 l 388 -151 l 171 -315 l 119 -244 l 331 -58 l 478 -58 l 622 -244 "},"ṋ":{"ha":699,"x_min":0,"x_max":0,"o":"m 474 0 l 547 414 b 553 472 551 436 553 456 b 454 549 553 533 522 549 b 286 392 360 549 304 496 l 217 0 l 36 0 l 157 683 l 329 683 l 311 583 b 553 701 367 660 443 701 b 743 526 667 701 743 640 b 739 474 743 510 742 492 l 656 0 m 485 -315 l 326 -151 l 110 -315 l 58 -244 l 269 -58 l 417 -58 l 561 -244 "},"Ṛ":{"ha":803,"x_min":0,"x_max":0,"o":"m 354 763 l 311 517 l 553 517 b 718 664 674 517 718 583 b 603 763 718 742 685 763 m 569 0 l 611 238 b 615 282 614 254 615 269 b 489 361 615 344 581 361 l 283 361 l 219 0 l 32 0 l 194 922 l 663 922 b 904 697 814 922 904 828 b 724 442 904 582 836 479 b 811 325 783 421 811 389 b 804 261 811 307 808 285 l 758 0 m 268 -286 l 299 -114 l 479 -114 l 449 -286 "},"ṛ":{"ha":446,"x_min":0,"x_max":0,"o":"m 36 0 l 157 683 l 326 683 l 311 601 b 532 701 388 693 458 701 l 556 701 l 524 517 b 474 521 507 519 490 521 b 279 356 363 521 299 465 l 217 0 m -4 -286 l 26 -114 l 207 -114 l 176 -286 "},"Ṣ":{"ha":782,"x_min":0,"x_max":0,"o":"m 669 650 b 671 672 669 657 671 665 b 508 790 671 765 618 790 b 324 665 388 790 324 744 b 449 563 324 619 363 583 b 708 482 561 535 640 513 b 817 300 771 453 817 404 b 413 -32 817 82 622 -32 b 53 219 172 -32 53 54 b 57 276 53 238 54 256 l 243 276 b 240 246 242 265 240 256 b 415 124 240 158 314 124 b 625 269 549 124 625 181 b 501 374 625 317 597 353 b 143 633 253 428 143 475 b 538 953 143 813 281 953 b 856 697 740 953 856 853 b 853 650 856 682 854 665 m 257 -286 l 288 -114 l 468 -114 l 438 -286 "},"ṣ":{"ha":656,"x_min":0,"x_max":0,"o":"m 531 476 b 425 567 531 547 504 567 b 301 501 343 567 301 549 b 400 432 301 468 336 450 b 681 224 594 376 681 371 b 335 -18 681 88 554 -18 b 49 183 156 -18 49 60 b 51 219 49 194 50 207 l 238 219 b 236 199 236 213 236 206 b 357 118 236 143 285 118 b 494 196 431 118 494 142 b 399 267 494 233 461 251 b 122 493 181 317 122 375 b 454 701 122 593 214 701 b 707 514 632 701 707 632 b 704 476 707 501 706 489 m 194 -286 l 225 -114 l 406 -114 l 375 -286 "},"Ṭ":{"ha":769,"x_min":0,"x_max":0,"o":"m 283 0 l 418 761 l 140 761 l 168 922 l 918 922 l 890 761 l 611 761 l 476 0 m 251 -286 l 282 -114 l 463 -114 l 432 -286 "},"ṭ":{"ha":629,"x_min":0,"x_max":0,"o":"m 636 256 b 313 -18 610 111 506 -18 b 76 192 143 -18 76 74 b 82 257 76 213 78 235 l 189 868 l 367 868 l 335 683 l 713 683 l 690 556 l 313 556 l 263 275 b 257 221 258 254 257 236 b 343 139 257 161 285 139 b 472 272 413 139 457 188 l 503 450 l 671 450 m 181 -286 l 211 -114 l 392 -114 l 361 -286 "},"Ẁ":{"ha":1189,"x_min":0,"x_max":0,"o":"m 735 0 l 697 600 l 446 0 l 265 0 l 167 922 l 367 922 l 413 325 l 646 922 l 849 922 l 883 325 l 1139 922 l 1342 922 l 921 0 m 578 1139 l 664 1253 l 921 1085 l 865 1008 "},"ẁ":{"ha":992,"x_min":0,"x_max":0,"o":"m 600 0 l 561 397 l 383 0 l 199 0 l 125 683 l 310 683 l 343 244 l 515 683 l 699 683 l 728 244 l 910 683 l 1101 683 l 785 0 m 438 900 l 524 1014 l 781 846 l 725 769 "},"Ẃ":{"ha":1189,"x_min":0,"x_max":0,"o":"m 735 0 l 697 600 l 446 0 l 265 0 l 167 922 l 367 922 l 413 325 l 646 922 l 849 922 l 883 325 l 1139 922 l 1342 922 l 921 0 m 682 1008 l 651 1085 l 969 1253 l 1014 1139 "},"ẃ":{"ha":992,"x_min":0,"x_max":0,"o":"m 600 0 l 561 397 l 383 0 l 199 0 l 125 683 l 310 683 l 343 244 l 515 683 l 699 683 l 728 244 l 910 683 l 1101 683 l 785 0 m 542 769 l 511 846 l 829 1014 l 874 900 "},"Ẅ":{"ha":1189,"x_min":0,"x_max":0,"o":"m 735 0 l 697 600 l 446 0 l 265 0 l 167 922 l 367 922 l 413 325 l 646 922 l 849 922 l 883 325 l 1139 922 l 1342 922 l 921 0 m 554 1043 l 585 1215 l 765 1215 l 735 1043 m 832 1043 l 863 1215 l 1043 1215 l 1013 1043 "},"ẅ":{"ha":992,"x_min":0,"x_max":0,"o":"m 600 0 l 561 397 l 383 0 l 199 0 l 125 683 l 310 683 l 343 244 l 515 683 l 699 683 l 728 244 l 910 683 l 1101 683 l 785 0 m 414 804 l 444 976 l 625 976 l 594 804 m 692 804 l 722 976 l 903 976 l 872 804 "},"Ẓ":{"ha":739,"x_min":0,"x_max":0,"o":"m 6 0 l 35 164 l 614 761 l 154 761 l 182 922 l 889 922 l 863 771 l 279 164 l 756 164 l 726 0 m 236 -286 l 267 -114 l 447 -114 l 417 -286 "},"ẓ":{"ha":618,"x_min":0,"x_max":0,"o":"m 13 0 l 38 139 l 451 540 l 132 540 l 157 683 l 713 683 l 686 538 l 275 147 l 628 147 l 601 0 m 175 -286 l 206 -114 l 386 -114 l 356 -286 "},"ẞ":{"ha":838,"x_min":0,"x_max":0,"o":"m 361 156 b 486 131 392 140 442 131 b 701 333 604 131 701 204 b 554 464 701 419 638 464 b 450 440 519 464 488 457 l 474 572 l 696 778 l 549 778 b 321 526 393 778 349 690 l 229 0 l 36 0 l 140 597 b 575 922 176 807 332 922 l 917 922 l 890 775 l 678 589 b 888 364 815 568 888 486 b 494 -18 888 126 706 -18 b 336 8 432 -18 369 -6 "},"Ạ":{"ha":893,"x_min":0,"x_max":0,"o":"m 575 715 l 574 715 l 390 349 l 625 349 m 678 0 l 653 190 l 313 190 l 214 0 l 4 0 l 496 922 l 719 922 l 882 0 m 313 -286 l 343 -114 l 524 -114 l 493 -286 "},"ạ":{"ha":675,"x_min":0,"x_max":0,"o":"m 510 335 b 386 294 489 317 456 307 b 231 172 257 271 231 236 b 311 111 231 129 264 111 b 496 260 399 111 481 179 m 464 0 b 461 29 463 8 461 18 b 464 61 461 39 463 50 b 243 -18 413 14 335 -18 b 44 138 107 -18 44 44 b 406 414 44 340 188 385 b 535 492 529 431 535 454 b 431 563 535 550 496 563 b 290 461 349 563 308 522 l 122 461 b 464 701 150 603 244 701 b 715 510 646 701 715 633 b 708 432 715 485 713 460 l 632 0 m 203 -286 l 233 -114 l 414 -114 l 383 -286 "},"Ả":{"ha":893,"x_min":0,"x_max":0,"o":"m 575 715 l 574 715 l 390 349 l 625 349 m 678 0 l 653 190 l 313 190 l 214 0 l 4 0 l 496 922 l 719 922 l 882 0 m 592 1046 b 640 1119 599 1078 610 1103 b 679 1165 665 1133 679 1142 b 650 1185 679 1176 671 1185 b 589 1164 635 1185 617 1181 l 578 1240 b 682 1275 610 1264 656 1275 b 771 1204 739 1275 771 1247 b 717 1114 771 1167 754 1135 b 661 1046 690 1099 668 1078 "},"ả":{"ha":675,"x_min":0,"x_max":0,"o":"m 510 335 b 386 294 489 317 456 307 b 231 172 257 271 231 236 b 311 111 231 129 264 111 b 496 260 399 111 481 179 m 464 0 b 461 29 463 8 461 18 b 464 61 461 39 463 50 b 243 -18 413 14 335 -18 b 44 138 107 -18 44 44 b 406 414 44 340 188 385 b 535 492 529 431 535 454 b 431 563 535 550 496 563 b 290 461 349 563 308 522 l 122 461 b 464 701 150 603 244 701 b 715 510 646 701 715 633 b 708 432 715 485 713 460 l 632 0 m 449 807 b 497 881 456 839 467 864 b 536 926 522 894 536 903 b 507 946 536 938 528 946 b 446 925 492 946 474 942 l 435 1001 b 539 1036 467 1025 513 1036 b 628 965 596 1036 628 1008 b 574 875 628 928 611 896 b 518 807 547 860 525 839 "},"Ấ":{"ha":893,"x_min":0,"x_max":0,"o":"m 575 715 l 574 715 l 390 349 l 625 349 m 678 0 l 653 190 l 313 190 l 214 0 l 4 0 l 496 922 l 719 922 l 882 0 m 789 1032 l 651 1172 l 467 1032 l 422 1093 l 604 1253 l 731 1253 l 854 1093 m 890 1050 l 867 1114 l 1129 1253 l 1167 1158 "},"ấ":{"ha":675,"x_min":0,"x_max":0,"o":"m 510 335 b 386 294 489 317 456 307 b 231 172 257 271 231 236 b 311 111 231 129 264 111 b 496 260 399 111 481 179 m 464 0 b 461 29 463 8 461 18 b 464 61 461 39 463 50 b 243 -18 413 14 335 -18 b 44 138 107 -18 44 44 b 406 414 44 340 188 385 b 535 492 529 431 535 454 b 431 563 535 550 496 563 b 290 461 349 563 308 522 l 122 461 b 464 701 150 603 244 701 b 715 510 646 701 715 633 b 708 432 715 485 713 460 l 632 0 m 644 793 l 507 933 l 322 793 l 278 854 l 460 1014 l 586 1014 l 710 854 m 746 811 l 722 875 l 985 1014 l 1022 919 "},"Ầ":{"ha":893,"x_min":0,"x_max":0,"o":"m 575 715 l 574 715 l 390 349 l 625 349 m 678 0 l 653 190 l 313 190 l 214 0 l 4 0 l 496 922 l 719 922 l 882 0 m 806 1032 l 668 1172 l 483 1032 l 438 1093 l 619 1253 l 746 1253 l 869 1093 m 853 1158 l 924 1253 l 1136 1114 l 1090 1050 "},"ầ":{"ha":675,"x_min":0,"x_max":0,"o":"m 510 335 b 386 294 489 317 456 307 b 231 172 257 271 231 236 b 311 111 231 129 264 111 b 496 260 399 111 481 179 m 464 0 b 461 29 463 8 461 18 b 464 61 461 39 463 50 b 243 -18 413 14 335 -18 b 44 138 107 -18 44 44 b 406 414 44 340 188 385 b 535 492 529 431 535 454 b 431 563 535 550 496 563 b 290 461 349 563 308 522 l 122 461 b 464 701 150 603 244 701 b 715 510 646 701 715 633 b 708 432 715 485 713 460 l 632 0 m 643 793 l 506 933 l 321 793 l 275 854 l 457 1014 l 583 1014 l 707 854 m 690 919 l 761 1014 l 974 875 l 928 811 "},"Ẩ":{"ha":893,"x_min":0,"x_max":0,"o":"m 575 715 l 574 715 l 390 349 l 625 349 m 678 0 l 653 190 l 313 190 l 214 0 l 4 0 l 496 922 l 719 922 l 882 0 m 883 1046 b 931 1119 889 1078 900 1103 b 971 1161 953 1131 971 1139 b 942 1185 971 1175 967 1185 b 881 1164 926 1185 907 1181 l 869 1240 b 972 1275 901 1264 946 1275 b 1061 1207 1029 1275 1061 1249 b 1008 1114 1061 1165 1040 1132 b 953 1046 982 1099 958 1078 m 797 1032 l 661 1172 l 475 1032 l 431 1093 l 611 1253 l 738 1253 l 863 1093 "},"ẩ":{"ha":675,"x_min":0,"x_max":0,"o":"m 510 335 b 386 294 489 317 456 307 b 231 172 257 271 231 236 b 311 111 231 129 264 111 b 496 260 399 111 481 179 m 464 0 b 461 29 463 8 461 18 b 464 61 461 39 463 50 b 243 -18 413 14 335 -18 b 44 138 107 -18 44 44 b 406 414 44 340 188 385 b 535 492 529 431 535 454 b 431 563 535 550 496 563 b 290 461 349 563 308 522 l 122 461 b 464 701 150 603 244 701 b 715 510 646 701 715 633 b 708 432 715 485 713 460 l 632 0 m 726 807 b 774 881 732 839 743 864 b 814 922 796 892 814 900 b 785 946 814 936 810 946 b 724 925 769 946 750 942 l 713 1001 b 815 1036 744 1025 789 1036 b 904 968 872 1036 904 1010 b 851 875 904 926 883 893 b 796 807 825 860 801 839 m 640 793 l 504 933 l 318 793 l 274 854 l 454 1014 l 581 1014 l 706 854 "},"Ẫ":{"ha":893,"x_min":0,"x_max":0,"o":"m 575 715 l 574 715 l 390 349 l 625 349 m 678 0 l 653 190 l 313 190 l 214 0 l 4 0 l 496 922 l 719 922 l 882 0 m 847 1256 b 724 1171 819 1189 768 1171 b 590 1199 678 1171 624 1199 b 543 1154 576 1199 560 1183 l 481 1182 b 593 1269 508 1244 550 1269 b 735 1238 658 1269 689 1238 b 781 1275 754 1238 769 1246 m 767 1008 l 642 1106 l 485 1008 l 443 1050 l 596 1161 l 707 1161 l 821 1050 "},"ẫ":{"ha":675,"x_min":0,"x_max":0,"o":"m 510 335 b 386 294 489 317 456 307 b 231 172 257 271 231 236 b 311 111 231 129 264 111 b 496 260 399 111 481 179 m 464 0 b 461 29 463 8 461 18 b 464 61 461 39 463 50 b 243 -18 413 14 335 -18 b 44 138 107 -18 44 44 b 406 414 44 340 188 385 b 535 492 529 431 535 454 b 431 563 535 550 496 563 b 290 461 349 563 308 522 l 122 461 b 464 701 150 603 244 701 b 715 510 646 701 715 633 b 708 432 715 485 713 460 l 632 0 m 704 1017 b 581 932 676 950 625 932 b 447 960 535 932 481 960 b 400 915 433 960 417 944 l 338 943 b 450 1031 365 1006 407 1031 b 592 999 515 1031 546 999 b 638 1036 611 999 626 1007 m 624 769 l 499 867 l 342 769 l 300 811 l 453 922 l 564 922 l 678 811 "},"Ậ":{"ha":893,"x_min":0,"x_max":0,"o":"m 575 715 l 574 715 l 390 349 l 625 349 m 678 0 l 653 190 l 313 190 l 214 0 l 4 0 l 496 922 l 719 922 l 882 0 m 814 1018 l 656 1182 l 439 1018 l 388 1089 l 599 1275 l 746 1275 l 890 1089 m 313 -286 l 343 -114 l 524 -114 l 493 -286 "},"ậ":{"ha":675,"x_min":0,"x_max":0,"o":"m 510 335 b 386 294 489 317 456 307 b 231 172 257 271 231 236 b 311 111 231 129 264 111 b 496 260 399 111 481 179 m 464 0 b 461 29 463 8 461 18 b 464 61 461 39 463 50 b 243 -18 413 14 335 -18 b 44 138 107 -18 44 44 b 406 414 44 340 188 385 b 535 492 529 431 535 454 b 431 563 535 550 496 563 b 290 461 349 563 308 522 l 122 461 b 464 701 150 603 244 701 b 715 510 646 701 715 633 b 708 432 715 485 713 460 l 632 0 m 664 779 l 506 943 l 289 779 l 238 850 l 449 1036 l 596 1036 l 740 850 m 190 -286 l 221 -114 l 401 -114 l 371 -286 "},"Ắ":{"ha":893,"x_min":0,"x_max":0,"o":"m 575 715 l 574 715 l 390 349 l 625 349 m 678 0 l 653 190 l 313 190 l 214 0 l 4 0 l 496 922 l 719 922 l 882 0 m 807 1167 b 624 1008 788 1061 703 1008 b 493 1131 554 1008 493 1049 b 497 1167 493 1142 494 1154 l 576 1167 b 574 1144 575 1158 574 1151 b 636 1083 574 1106 597 1083 b 728 1167 683 1083 717 1114 m 607 1133 l 589 1179 l 772 1275 l 797 1210 "},"ắ":{"ha":675,"x_min":0,"x_max":0,"o":"m 510 335 b 386 294 489 317 456 307 b 231 172 257 271 231 236 b 311 111 231 129 264 111 b 496 260 399 111 481 179 m 464 0 b 461 29 463 8 461 18 b 464 61 461 39 463 50 b 243 -18 413 14 335 -18 b 44 138 107 -18 44 44 b 406 414 44 340 188 385 b 535 492 529 431 535 454 b 431 563 535 550 496 563 b 290 461 349 563 308 522 l 122 461 b 464 701 150 603 244 701 b 715 510 646 701 715 633 b 708 432 715 485 713 460 l 632 0 m 657 928 b 474 769 638 822 553 769 b 343 892 404 769 343 810 b 347 928 343 903 344 915 l 426 928 b 424 906 425 919 424 913 b 486 844 424 867 447 844 b 578 928 533 844 567 875 m 457 894 l 439 940 l 622 1036 l 647 971 "},"Ằ":{"ha":893,"x_min":0,"x_max":0,"o":"m 575 715 l 574 715 l 390 349 l 625 349 m 678 0 l 653 190 l 313 190 l 214 0 l 4 0 l 496 922 l 719 922 l 882 0 m 807 1167 b 625 1008 788 1061 704 1008 b 493 1132 556 1008 493 1049 b 497 1167 493 1142 494 1154 l 576 1167 b 575 1146 575 1160 575 1153 b 638 1083 575 1106 597 1083 b 728 1167 683 1083 718 1114 m 521 1210 l 571 1275 l 718 1179 l 686 1133 "},"ằ":{"ha":675,"x_min":0,"x_max":0,"o":"m 510 335 b 386 294 489 317 456 307 b 231 172 257 271 231 236 b 311 111 231 129 264 111 b 496 260 399 111 481 179 m 464 0 b 461 29 463 8 461 18 b 464 61 461 39 463 50 b 243 -18 413 14 335 -18 b 44 138 107 -18 44 44 b 406 414 44 340 188 385 b 535 492 529 431 535 454 b 431 563 535 550 496 563 b 290 461 349 563 308 522 l 122 461 b 464 701 150 603 244 701 b 715 510 646 701 715 633 b 708 432 715 485 713 460 l 632 0 m 663 928 b 481 769 643 822 560 769 b 349 893 411 769 349 810 b 353 928 349 903 350 915 l 432 928 b 431 907 431 921 431 914 b 493 844 431 867 453 844 b 583 928 539 844 574 875 m 376 971 l 426 1036 l 574 940 l 542 894 "},"Ẳ":{"ha":893,"x_min":0,"x_max":0,"o":"m 575 715 l 574 715 l 390 349 l 625 349 m 678 0 l 653 190 l 313 190 l 214 0 l 4 0 l 496 922 l 719 922 l 882 0 m 807 1167 b 625 1008 788 1061 704 1008 b 493 1132 556 1008 493 1049 b 497 1167 493 1142 494 1154 l 576 1167 b 575 1146 575 1160 575 1153 b 638 1083 575 1106 597 1083 b 728 1167 683 1083 718 1114 m 606 1104 b 642 1160 610 1128 618 1147 b 671 1193 660 1169 671 1175 b 649 1208 671 1201 664 1208 b 603 1193 638 1208 624 1204 l 594 1249 b 672 1275 618 1267 653 1275 b 738 1222 714 1275 738 1254 b 697 1156 738 1194 725 1172 b 657 1104 679 1144 661 1128 "},"ẳ":{"ha":675,"x_min":0,"x_max":0,"o":"m 510 335 b 386 294 489 317 456 307 b 231 172 257 271 231 236 b 311 111 231 129 264 111 b 496 260 399 111 481 179 m 464 0 b 461 29 463 8 461 18 b 464 61 461 39 463 50 b 243 -18 413 14 335 -18 b 44 138 107 -18 44 44 b 406 414 44 340 188 385 b 535 492 529 431 535 454 b 431 563 535 550 496 563 b 290 461 349 563 308 522 l 122 461 b 464 701 150 603 244 701 b 715 510 646 701 715 633 b 708 432 715 485 713 460 l 632 0 m 660 928 b 478 769 640 822 557 769 b 346 893 408 769 346 810 b 350 928 346 903 347 915 l 429 928 b 428 907 428 921 428 914 b 490 844 428 867 450 844 b 581 928 536 844 571 875 m 458 865 b 494 921 463 889 471 908 b 524 954 513 931 524 936 b 501 969 524 963 517 969 b 456 954 490 969 476 965 l 447 1010 b 525 1036 471 1028 506 1036 b 590 983 567 1036 590 1015 b 550 917 590 956 578 933 b 510 865 532 906 514 889 "},"Ẵ":{"ha":893,"x_min":0,"x_max":0,"o":"m 575 715 l 574 715 l 390 349 l 625 349 m 678 0 l 653 190 l 313 190 l 214 0 l 4 0 l 496 922 l 719 922 l 882 0 m 796 1261 b 708 1186 775 1210 740 1186 b 618 1217 672 1186 653 1217 b 589 1185 610 1217 601 1210 l 542 1210 b 624 1272 564 1256 593 1272 b 717 1240 661 1272 679 1240 b 744 1275 726 1240 738 1253 m 807 1167 b 625 1008 788 1061 704 1008 b 493 1132 556 1008 493 1049 b 497 1167 493 1142 494 1154 l 576 1167 b 575 1146 575 1160 575 1153 b 638 1083 575 1106 597 1083 b 728 1167 683 1083 718 1114 "},"ẵ":{"ha":675,"x_min":0,"x_max":0,"o":"m 510 335 b 386 294 489 317 456 307 b 231 172 257 271 231 236 b 311 111 231 129 264 111 b 496 260 399 111 481 179 m 464 0 b 461 29 463 8 461 18 b 464 61 461 39 463 50 b 243 -18 413 14 335 -18 b 44 138 107 -18 44 44 b 406 414 44 340 188 385 b 535 492 529 431 535 454 b 431 563 535 550 496 563 b 290 461 349 563 308 522 l 122 461 b 464 701 150 603 244 701 b 715 510 646 701 715 633 b 708 432 715 485 713 460 l 632 0 m 646 1022 b 558 947 625 971 590 947 b 468 978 522 947 503 978 b 439 946 460 978 451 971 l 392 971 b 474 1033 414 1017 443 1033 b 567 1001 511 1033 529 1001 b 594 1036 576 1001 588 1014 m 657 928 b 475 769 638 822 554 769 b 343 893 406 769 343 810 b 347 928 343 903 344 915 l 426 928 b 425 907 425 921 425 914 b 488 844 425 867 447 844 b 578 928 533 844 568 875 "},"Ặ":{"ha":893,"x_min":0,"x_max":0,"o":"m 575 715 l 574 715 l 390 349 l 625 349 m 678 0 l 653 190 l 313 190 l 214 0 l 4 0 l 496 922 l 719 922 l 882 0 m 899 1275 b 632 1044 871 1121 747 1044 b 443 1224 531 1044 443 1104 b 449 1275 443 1239 446 1257 l 563 1275 b 560 1247 561 1265 560 1256 b 651 1154 560 1188 592 1154 b 785 1275 719 1154 768 1199 m 313 -286 l 343 -114 l 524 -114 l 493 -286 "},"ặ":{"ha":675,"x_min":0,"x_max":0,"o":"m 510 335 b 386 294 489 317 456 307 b 231 172 257 271 231 236 b 311 111 231 129 264 111 b 496 260 399 111 481 179 m 464 0 b 461 29 463 8 461 18 b 464 61 461 39 463 50 b 243 -18 413 14 335 -18 b 44 138 107 -18 44 44 b 406 414 44 340 188 385 b 535 492 529 431 535 454 b 431 563 535 550 496 563 b 290 461 349 563 308 522 l 122 461 b 464 701 150 603 244 701 b 715 510 646 701 715 633 b 708 432 715 485 713 460 l 632 0 m 747 1036 b 481 806 719 882 596 806 b 292 985 379 806 292 865 b 297 1036 292 1000 294 1018 l 411 1036 b 408 1008 410 1026 408 1017 b 500 915 408 949 440 915 b 633 1036 568 915 617 960 m 190 -286 l 221 -114 l 401 -114 l 371 -286 "},"Ẹ":{"ha":739,"x_min":0,"x_max":0,"o":"m 32 0 l 194 922 l 872 922 l 844 761 l 354 761 l 319 564 l 771 564 l 742 401 l 290 401 l 249 164 l 761 164 l 732 0 m 243 -286 l 274 -114 l 454 -114 l 424 -286 "},"ẹ":{"ha":699,"x_min":0,"x_max":0,"o":"m 251 294 l 251 263 b 376 125 251 165 297 125 b 513 201 435 125 492 154 l 699 201 b 360 -18 632 61 506 -18 b 72 264 168 -18 72 79 b 475 701 72 528 231 701 b 736 428 647 701 736 610 b 724 294 736 388 732 343 m 558 408 b 561 450 561 424 561 438 b 444 558 561 538 506 558 b 272 408 353 558 299 493 m 218 -286 l 249 -114 l 429 -114 l 399 -286 "},"Ẻ":{"ha":739,"x_min":0,"x_max":0,"o":"m 32 0 l 194 922 l 872 922 l 844 761 l 354 761 l 319 564 l 771 564 l 742 401 l 290 401 l 249 164 l 761 164 l 732 0 m 525 1046 b 574 1119 532 1078 543 1103 b 613 1165 599 1133 613 1142 b 583 1185 613 1176 604 1185 b 522 1164 568 1185 550 1181 l 511 1240 b 615 1275 543 1264 589 1275 b 704 1204 672 1275 704 1247 b 650 1114 704 1167 688 1135 b 594 1046 624 1099 601 1078 "},"ẻ":{"ha":699,"x_min":0,"x_max":0,"o":"m 251 294 l 251 263 b 376 125 251 165 297 125 b 513 201 435 125 492 154 l 699 201 b 360 -18 632 61 506 -18 b 72 264 168 -18 72 79 b 475 701 72 528 231 701 b 736 428 647 701 736 610 b 724 294 736 388 732 343 m 558 408 b 561 450 561 424 561 438 b 444 558 561 538 506 558 b 272 408 353 558 299 493 m 453 807 b 501 881 460 839 471 864 b 540 926 526 894 540 903 b 511 946 540 938 532 946 b 450 925 496 946 478 942 l 439 1001 b 543 1036 471 1025 517 1036 b 632 965 600 1036 632 1008 b 578 875 632 928 615 896 b 522 807 551 860 529 839 "},"Ẽ":{"ha":739,"x_min":0,"x_max":0,"o":"m 32 0 l 194 922 l 872 922 l 844 761 l 354 761 l 319 564 l 771 564 l 742 401 l 290 401 l 249 164 l 761 164 l 732 0 m 825 1175 b 650 1039 776 1075 710 1039 b 482 1101 579 1039 542 1101 b 418 1040 471 1101 443 1092 l 331 1092 b 488 1214 376 1182 431 1214 b 660 1147 572 1214 607 1147 b 728 1213 676 1147 710 1164 "},"ẽ":{"ha":699,"x_min":0,"x_max":0,"o":"m 251 294 l 251 263 b 376 125 251 165 297 125 b 513 201 435 125 492 154 l 699 201 b 360 -18 632 61 506 -18 b 72 264 168 -18 72 79 b 475 701 72 528 231 701 b 736 428 647 701 736 610 b 724 294 736 388 732 343 m 558 408 b 561 450 561 424 561 438 b 444 558 561 538 506 558 b 272 408 353 558 299 493 m 756 936 b 581 800 707 836 640 800 b 413 863 510 800 472 863 b 349 801 401 863 374 853 l 261 853 b 418 975 307 943 361 975 b 590 908 503 975 538 908 b 658 974 607 908 640 925 "},"Ế":{"ha":739,"x_min":0,"x_max":0,"o":"m 32 0 l 194 922 l 872 922 l 844 761 l 354 761 l 319 564 l 771 564 l 742 401 l 290 401 l 249 164 l 761 164 l 732 0 m 729 1032 l 592 1172 l 407 1032 l 363 1093 l 544 1253 l 671 1253 l 794 1093 m 831 1050 l 807 1114 l 1069 1253 l 1107 1158 "},"ế":{"ha":699,"x_min":0,"x_max":0,"o":"m 251 294 l 251 263 b 376 125 251 165 297 125 b 513 201 435 125 492 154 l 699 201 b 360 -18 632 61 506 -18 b 72 264 168 -18 72 79 b 475 701 72 528 231 701 b 736 428 647 701 736 610 b 724 294 736 388 732 343 m 558 408 b 561 450 561 424 561 438 b 444 558 561 538 506 558 b 272 408 353 558 299 493 m 657 793 l 519 933 l 335 793 l 290 854 l 472 1014 l 599 1014 l 722 854 m 758 811 l 735 875 l 997 1014 l 1035 919 "},"Ề":{"ha":739,"x_min":0,"x_max":0,"o":"m 32 0 l 194 922 l 872 922 l 844 761 l 354 761 l 319 564 l 771 564 l 742 401 l 290 401 l 249 164 l 761 164 l 732 0 m 733 1032 l 596 1172 l 411 1032 l 365 1093 l 547 1253 l 674 1253 l 797 1093 m 781 1158 l 851 1253 l 1064 1114 l 1018 1050 "},"ề":{"ha":699,"x_min":0,"x_max":0,"o":"m 251 294 l 251 263 b 376 125 251 165 297 125 b 513 201 435 125 492 154 l 699 201 b 360 -18 632 61 506 -18 b 72 264 168 -18 72 79 b 475 701 72 528 231 701 b 736 428 647 701 736 610 b 724 294 736 388 732 343 m 558 408 b 561 450 561 424 561 438 b 444 558 561 538 506 558 b 272 408 353 558 299 493 m 658 793 l 521 933 l 336 793 l 290 854 l 472 1014 l 599 1014 l 722 854 m 706 919 l 776 1014 l 989 875 l 943 811 "},"Ể":{"ha":739,"x_min":0,"x_max":0,"o":"m 32 0 l 194 922 l 872 922 l 844 761 l 354 761 l 319 564 l 771 564 l 742 401 l 290 401 l 249 164 l 761 164 l 732 0 m 814 1046 b 861 1119 819 1078 831 1103 b 901 1161 883 1131 901 1139 b 872 1185 901 1175 897 1185 b 811 1164 857 1185 838 1181 l 800 1240 b 903 1275 832 1264 876 1275 b 992 1207 960 1275 992 1249 b 939 1114 992 1165 971 1132 b 883 1046 913 1099 889 1078 m 728 1032 l 592 1172 l 406 1032 l 361 1093 l 542 1253 l 668 1253 l 793 1093 "},"ể":{"ha":699,"x_min":0,"x_max":0,"o":"m 251 294 l 251 263 b 376 125 251 165 297 125 b 513 201 435 125 492 154 l 699 201 b 360 -18 632 61 506 -18 b 72 264 168 -18 72 79 b 475 701 72 528 231 701 b 736 428 647 701 736 610 b 724 294 736 388 732 343 m 558 408 b 561 450 561 424 561 438 b 444 558 561 538 506 558 b 272 408 353 558 299 493 m 738 807 b 785 881 743 839 754 864 b 825 922 807 892 825 900 b 796 946 825 936 821 946 b 735 925 781 946 761 942 l 724 1001 b 826 1036 756 1025 800 1036 b 915 968 883 1036 915 1010 b 863 875 915 926 894 893 b 807 807 836 860 813 839 m 651 793 l 515 933 l 329 793 l 285 854 l 465 1014 l 592 1014 l 717 854 "},"Ễ":{"ha":739,"x_min":0,"x_max":0,"o":"m 32 0 l 194 922 l 872 922 l 844 761 l 354 761 l 319 564 l 771 564 l 742 401 l 290 401 l 249 164 l 761 164 l 732 0 m 781 1256 b 657 1171 753 1189 701 1171 b 524 1199 611 1171 557 1199 b 476 1154 510 1199 493 1183 l 414 1182 b 526 1269 442 1244 483 1269 b 668 1238 592 1269 622 1238 b 714 1275 688 1238 703 1246 m 700 1008 l 575 1106 l 418 1008 l 376 1050 l 529 1161 l 640 1161 l 754 1050 "},"ễ":{"ha":699,"x_min":0,"x_max":0,"o":"m 251 294 l 251 263 b 376 125 251 165 297 125 b 513 201 435 125 492 154 l 699 201 b 360 -18 632 61 506 -18 b 72 264 168 -18 72 79 b 475 701 72 528 231 701 b 736 428 647 701 736 610 b 724 294 736 388 732 343 m 558 408 b 561 450 561 424 561 438 b 444 558 561 538 506 558 b 272 408 353 558 299 493 m 708 1017 b 585 932 681 950 629 932 b 451 960 539 932 485 960 b 404 915 438 960 421 944 l 342 943 b 454 1031 369 1006 411 1031 b 596 999 519 1031 550 999 b 642 1036 615 999 631 1007 m 628 769 l 503 867 l 346 769 l 304 811 l 457 922 l 568 922 l 682 811 "},"Ệ":{"ha":739,"x_min":0,"x_max":0,"o":"m 32 0 l 194 922 l 872 922 l 844 761 l 354 761 l 319 564 l 771 564 l 742 401 l 290 401 l 249 164 l 761 164 l 732 0 m 740 1018 l 582 1182 l 365 1018 l 314 1089 l 525 1275 l 672 1275 l 817 1089 m 236 -286 l 267 -114 l 447 -114 l 417 -286 "},"ệ":{"ha":699,"x_min":0,"x_max":0,"o":"m 251 294 l 251 263 b 376 125 251 165 297 125 b 513 201 435 125 492 154 l 699 201 b 360 -18 632 61 506 -18 b 72 264 168 -18 72 79 b 475 701 72 528 231 701 b 736 428 647 701 736 610 b 724 294 736 388 732 343 m 558 408 b 561 450 561 424 561 438 b 444 558 561 538 506 558 b 272 408 353 558 299 493 m 676 779 l 518 943 l 301 779 l 250 850 l 461 1036 l 608 1036 l 753 850 m 215 -286 l 246 -114 l 426 -114 l 396 -286 "},"Ỉ":{"ha":260,"x_min":0,"x_max":0,"o":"m 32 0 l 194 922 l 388 922 l 225 0 m 269 1046 b 318 1119 276 1078 288 1103 b 357 1165 343 1133 357 1142 b 328 1185 357 1176 349 1185 b 267 1164 313 1185 294 1181 l 256 1240 b 360 1275 288 1264 333 1275 b 449 1204 417 1275 449 1247 b 394 1114 449 1167 432 1135 b 339 1046 368 1099 346 1078 "},"ỉ":{"ha":267,"x_min":0,"x_max":0,"o":"m 40 0 l 160 683 l 340 683 l 221 0 m 233 807 b 282 881 240 839 251 864 b 321 926 307 894 321 903 b 292 946 321 938 313 946 b 231 925 276 946 258 942 l 219 1001 b 324 1036 251 1025 297 1036 b 413 965 381 1036 413 1008 b 358 875 413 928 396 896 b 303 807 332 860 310 839 "},"Ị":{"ha":260,"x_min":0,"x_max":0,"o":"m 32 0 l 194 922 l 388 922 l 225 0 m -3 -286 l 28 -114 l 208 -114 l 178 -286 "},"ị":{"ha":267,"x_min":0,"x_max":0,"o":"m 40 0 l 161 683 l 342 683 l 221 0 m 175 765 l 204 933 l 385 933 l 356 765 m 0 -286 l 31 -114 l 211 -114 l 181 -286 "},"Ọ":{"ha":931,"x_min":0,"x_max":0,"o":"m 488 133 b 803 538 654 133 803 263 b 601 782 803 718 733 782 b 281 365 397 782 281 615 b 488 133 281 190 356 133 m 458 -32 b 89 344 218 -32 89 104 b 632 953 89 704 293 953 b 996 563 871 953 996 807 b 458 -32 996 189 801 -32 m 332 -286 l 363 -114 l 543 -114 l 513 -286 "},"ọ":{"ha":749,"x_min":0,"x_max":0,"o":"m 396 133 b 604 397 536 133 604 236 b 469 549 604 521 558 549 b 261 286 328 549 261 447 b 396 133 261 168 306 133 m 369 -18 b 74 275 178 -18 74 101 b 496 701 74 524 247 701 b 788 410 681 701 788 586 b 369 -18 788 160 614 -18 m 240 -286 l 271 -114 l 451 -114 l 421 -286 "},"Ỏ":{"ha":931,"x_min":0,"x_max":0,"o":"m 488 133 b 803 538 654 133 803 263 b 601 782 803 718 733 782 b 281 365 397 782 281 615 b 488 133 281 190 356 133 m 458 -32 b 89 344 218 -32 89 104 b 632 953 89 704 293 953 b 996 563 871 953 996 807 b 458 -32 996 189 801 -32 m 608 1046 b 657 1119 615 1078 626 1103 b 696 1165 682 1133 696 1142 b 667 1185 696 1176 688 1185 b 606 1164 651 1185 633 1181 l 594 1240 b 699 1275 626 1264 672 1275 b 788 1204 756 1275 788 1247 b 733 1114 788 1167 771 1135 b 678 1046 707 1099 685 1078 "},"ỏ":{"ha":749,"x_min":0,"x_max":0,"o":"m 396 133 b 604 397 536 133 604 236 b 469 549 604 521 558 549 b 261 286 328 549 261 447 b 396 133 261 168 306 133 m 369 -18 b 74 275 178 -18 74 101 b 496 701 74 524 247 701 b 788 410 681 701 788 586 b 369 -18 788 160 614 -18 m 475 807 b 524 881 482 839 493 864 b 563 926 549 894 563 903 b 533 946 563 938 554 946 b 472 925 518 946 500 942 l 461 1001 b 565 1036 493 1025 539 1036 b 654 965 622 1036 654 1008 b 600 875 654 928 638 896 b 544 807 574 860 551 839 "},"Ố":{"ha":931,"x_min":0,"x_max":0,"o":"m 488 133 b 803 538 654 133 803 263 b 601 782 803 718 733 782 b 281 365 397 782 281 615 b 488 133 281 190 356 133 m 458 -32 b 89 344 218 -32 89 104 b 632 953 89 704 293 953 b 996 563 871 953 996 807 b 458 -32 996 189 801 -32 m 815 1032 l 678 1172 l 493 1032 l 449 1093 l 631 1253 l 757 1253 l 881 1093 m 917 1050 l 893 1114 l 1156 1253 l 1193 1158 "},"ố":{"ha":749,"x_min":0,"x_max":0,"o":"m 396 133 b 604 397 536 133 604 236 b 469 549 604 521 558 549 b 261 286 328 549 261 447 b 396 133 261 168 306 133 m 369 -18 b 74 275 178 -18 74 101 b 496 701 74 524 247 701 b 788 410 681 701 788 586 b 369 -18 788 160 614 -18 m 682 793 l 544 933 l 360 793 l 315 854 l 497 1014 l 624 1014 l 747 854 m 783 811 l 760 875 l 1022 1014 l 1060 919 "},"Ồ":{"ha":931,"x_min":0,"x_max":0,"o":"m 488 133 b 803 538 654 133 803 263 b 601 782 803 718 733 782 b 281 365 397 782 281 615 b 488 133 281 190 356 133 m 458 -32 b 89 344 218 -32 89 104 b 632 953 89 704 293 953 b 996 563 871 953 996 807 b 458 -32 996 189 801 -32 m 819 1032 l 682 1172 l 497 1032 l 451 1093 l 633 1253 l 760 1253 l 883 1093 m 867 1158 l 938 1253 l 1150 1114 l 1104 1050 "},"ồ":{"ha":749,"x_min":0,"x_max":0,"o":"m 396 133 b 604 397 536 133 604 236 b 469 549 604 521 558 549 b 261 286 328 549 261 447 b 396 133 261 168 306 133 m 369 -18 b 74 275 178 -18 74 101 b 496 701 74 524 247 701 b 788 410 681 701 788 586 b 369 -18 788 160 614 -18 m 688 793 l 550 933 l 365 793 l 319 854 l 501 1014 l 628 1014 l 751 854 m 735 919 l 806 1014 l 1018 875 l 972 811 "},"Ổ":{"ha":931,"x_min":0,"x_max":0,"o":"m 488 133 b 803 538 654 133 803 263 b 601 782 803 718 733 782 b 281 365 397 782 281 615 b 488 133 281 190 356 133 m 458 -32 b 89 344 218 -32 89 104 b 632 953 89 704 293 953 b 996 563 871 953 996 807 b 458 -32 996 189 801 -32 m 896 1046 b 943 1119 901 1078 913 1103 b 983 1161 965 1131 983 1139 b 954 1185 983 1175 979 1185 b 893 1164 939 1185 919 1181 l 882 1240 b 985 1275 914 1264 958 1275 b 1074 1207 1042 1275 1074 1249 b 1021 1114 1074 1165 1053 1132 b 965 1046 994 1099 971 1078 m 810 1032 l 674 1172 l 488 1032 l 443 1093 l 624 1253 l 750 1253 l 875 1093 "},"ổ":{"ha":749,"x_min":0,"x_max":0,"o":"m 396 133 b 604 397 536 133 604 236 b 469 549 604 521 558 549 b 261 286 328 549 261 447 b 396 133 261 168 306 133 m 369 -18 b 74 275 178 -18 74 101 b 496 701 74 524 247 701 b 788 410 681 701 788 586 b 369 -18 788 160 614 -18 m 764 807 b 811 881 769 839 781 864 b 851 922 833 892 851 900 b 822 946 851 936 847 946 b 761 925 807 946 788 942 l 750 1001 b 853 1036 782 1025 826 1036 b 942 968 910 1036 942 1010 b 889 875 942 926 921 893 b 833 807 863 860 839 839 m 678 793 l 542 933 l 356 793 l 311 854 l 492 1014 l 618 1014 l 743 854 "},"Ỗ":{"ha":931,"x_min":0,"x_max":0,"o":"m 488 133 b 803 538 654 133 803 263 b 601 782 803 718 733 782 b 281 365 397 782 281 615 b 488 133 281 190 356 133 m 458 -32 b 89 344 218 -32 89 104 b 632 953 89 704 293 953 b 996 563 871 953 996 807 b 458 -32 996 189 801 -32 m 867 1256 b 743 1171 839 1189 788 1171 b 610 1199 697 1171 643 1199 b 563 1154 596 1199 579 1183 l 500 1182 b 613 1269 528 1244 569 1269 b 754 1238 678 1269 708 1238 b 800 1275 774 1238 789 1246 m 786 1008 l 661 1106 l 504 1008 l 463 1050 l 615 1161 l 726 1161 l 840 1050 "},"ỗ":{"ha":749,"x_min":0,"x_max":0,"o":"m 396 133 b 604 397 536 133 604 236 b 469 549 604 521 558 549 b 261 286 328 549 261 447 b 396 133 261 168 306 133 m 369 -18 b 74 275 178 -18 74 101 b 496 701 74 524 247 701 b 788 410 681 701 788 586 b 369 -18 788 160 614 -18 m 733 1017 b 610 932 706 950 654 932 b 476 960 564 932 510 960 b 429 915 463 960 446 944 l 367 943 b 479 1031 394 1006 436 1031 b 621 999 544 1031 575 999 b 667 1036 640 999 656 1007 m 653 769 l 528 867 l 371 769 l 329 811 l 482 922 l 593 922 l 707 811 "},"Ộ":{"ha":931,"x_min":0,"x_max":0,"o":"m 488 133 b 803 538 654 133 803 263 b 601 782 803 718 733 782 b 281 365 397 782 281 615 b 488 133 281 190 356 133 m 458 -32 b 89 344 218 -32 89 104 b 632 953 89 704 293 953 b 996 563 871 953 996 807 b 458 -32 996 189 801 -32 m 833 1018 l 675 1182 l 458 1018 l 407 1089 l 618 1275 l 765 1275 l 910 1089 m 332 -286 l 363 -114 l 543 -114 l 513 -286 "},"ộ":{"ha":749,"x_min":0,"x_max":0,"o":"m 396 133 b 604 397 536 133 604 236 b 469 549 604 521 558 549 b 261 286 328 549 261 447 b 396 133 261 168 306 133 m 369 -18 b 74 275 178 -18 74 101 b 496 701 74 524 247 701 b 788 410 681 701 788 586 b 369 -18 788 160 614 -18 m 700 779 l 542 943 l 325 779 l 274 850 l 485 1036 l 632 1036 l 776 850 m 240 -286 l 271 -114 l 451 -114 l 421 -286 "},"Ớ":{"ha":1068,"x_min":0,"x_max":0,"o":"m 1217 975 b 1231 903 1226 961 1231 933 b 1072 718 1231 778 1163 718 b 974 739 1040 718 1007 725 b 996 557 989 694 996 625 b 467 -32 996 189 796 -32 b 89 360 218 -32 89 93 b 633 953 89 696 293 953 b 901 858 792 953 857 897 b 1017 810 949 818 989 810 b 1122 936 1101 810 1122 889 b 1119 975 1122 949 1121 967 m 478 133 b 803 532 656 133 803 261 b 604 782 803 715 735 782 b 281 375 397 782 281 613 b 478 133 281 228 325 133 m 554 1008 l 524 1085 l 842 1253 l 886 1139 "},"ớ":{"ha":904,"x_min":0,"x_max":0,"o":"m 418 769 l 388 846 l 706 1014 l 750 900 m 1014 754 b 1028 683 1024 740 1028 711 b 876 497 1028 601 992 497 b 775 517 846 497 801 504 b 788 407 783 489 788 444 b 372 -18 788 160 613 -18 b 74 282 178 -18 74 97 b 497 701 74 521 247 701 b 699 638 607 701 660 667 b 814 589 749 601 781 589 b 919 715 899 589 919 668 b 917 754 919 728 918 746 m 393 133 b 604 389 536 133 604 238 b 472 549 604 508 561 549 b 261 293 328 549 261 444 b 393 133 261 176 300 133 "},"Ờ":{"ha":1068,"x_min":0,"x_max":0,"o":"m 1217 975 b 1231 903 1226 961 1231 933 b 1072 718 1231 778 1163 718 b 974 739 1040 718 1007 725 b 996 557 989 694 996 625 b 467 -32 996 189 796 -32 b 89 360 218 -32 89 93 b 633 953 89 696 293 953 b 901 858 792 953 857 897 b 1017 810 949 818 989 810 b 1122 936 1101 810 1122 889 b 1119 975 1122 949 1121 967 m 478 133 b 803 532 656 133 803 261 b 604 782 803 715 735 782 b 281 375 397 782 281 613 b 478 133 281 228 325 133 m 450 1139 l 536 1253 l 793 1085 l 738 1008 "},"ờ":{"ha":904,"x_min":0,"x_max":0,"o":"m 317 900 l 403 1014 l 660 846 l 604 769 m 1014 754 b 1028 683 1024 740 1028 711 b 876 497 1028 601 992 497 b 775 517 846 497 801 504 b 788 407 783 489 788 444 b 372 -18 788 160 613 -18 b 74 282 178 -18 74 97 b 497 701 74 521 247 701 b 699 638 607 701 660 667 b 814 589 749 601 781 589 b 919 715 899 589 919 668 b 917 754 919 728 918 746 m 393 133 b 604 389 536 133 604 238 b 472 549 604 508 561 549 b 261 293 328 549 261 444 b 393 133 261 176 300 133 "},"Ở":{"ha":1068,"x_min":0,"x_max":0,"o":"m 1217 975 b 1231 903 1226 961 1231 933 b 1072 718 1231 778 1163 718 b 974 739 1040 718 1007 725 b 996 557 989 694 996 625 b 467 -32 996 189 796 -32 b 89 360 218 -32 89 93 b 633 953 89 696 293 953 b 901 858 792 953 857 897 b 1017 810 949 818 989 810 b 1122 936 1101 810 1122 889 b 1119 975 1122 949 1121 967 m 478 133 b 803 532 656 133 803 261 b 604 782 803 715 735 782 b 281 375 397 782 281 613 b 478 133 281 228 325 133 m 611 1046 b 660 1119 618 1078 629 1103 b 699 1165 685 1133 699 1142 b 669 1185 699 1176 690 1185 b 608 1164 654 1185 636 1181 l 597 1240 b 701 1275 629 1264 675 1275 b 790 1204 758 1275 790 1247 b 736 1114 790 1167 774 1135 b 681 1046 710 1099 688 1078 "},"ở":{"ha":904,"x_min":0,"x_max":0,"o":"m 1014 754 b 1028 683 1024 740 1028 711 b 876 497 1028 601 992 497 b 775 517 846 497 801 504 b 788 407 783 489 788 444 b 372 -18 788 160 613 -18 b 74 282 178 -18 74 97 b 497 701 74 521 247 701 b 699 638 607 701 660 667 b 814 589 749 601 781 589 b 919 715 899 589 919 668 b 917 754 919 728 918 746 m 393 133 b 604 389 536 133 604 238 b 472 549 604 508 561 549 b 261 293 328 549 261 444 b 393 133 261 176 300 133 m 486 807 b 535 881 493 839 504 864 b 574 926 560 894 574 903 b 544 946 574 938 565 946 b 483 925 529 946 511 942 l 472 1001 b 576 1036 504 1025 550 1036 b 665 965 633 1036 665 1008 b 611 875 665 928 649 896 b 556 807 585 860 563 839 "},"Ỡ":{"ha":1068,"x_min":0,"x_max":0,"o":"m 1217 975 b 1231 903 1226 961 1231 933 b 1072 718 1231 778 1163 718 b 974 739 1040 718 1007 725 b 996 557 989 694 996 625 b 467 -32 996 189 796 -32 b 89 360 218 -32 89 93 b 633 953 89 696 293 953 b 901 858 792 953 857 897 b 1017 810 949 818 989 810 b 1122 936 1101 810 1122 889 b 1119 975 1122 949 1121 967 m 478 133 b 803 532 656 133 803 261 b 604 782 803 715 735 782 b 281 375 397 782 281 613 b 478 133 281 228 325 133 m 915 1175 b 740 1039 867 1075 800 1039 b 572 1101 669 1039 632 1101 b 508 1040 561 1101 533 1092 l 421 1092 b 578 1214 467 1182 521 1214 b 750 1147 663 1214 697 1147 b 818 1213 767 1147 800 1164 "},"ỡ":{"ha":904,"x_min":0,"x_max":0,"o":"m 1014 754 b 1028 683 1024 740 1028 711 b 876 497 1028 601 992 497 b 775 517 846 497 801 504 b 788 407 783 489 788 444 b 372 -18 788 160 613 -18 b 74 282 178 -18 74 97 b 497 701 74 521 247 701 b 699 638 607 701 660 667 b 814 589 749 601 781 589 b 919 715 899 589 919 668 b 917 754 919 728 918 746 m 393 133 b 604 389 536 133 604 238 b 472 549 604 508 561 549 b 261 293 328 549 261 444 b 393 133 261 176 300 133 m 781 936 b 606 800 732 836 665 800 b 438 863 535 800 497 863 b 374 801 426 863 399 853 l 286 853 b 443 975 332 943 386 975 b 615 908 528 975 563 908 b 683 974 632 908 665 925 "},"Ợ":{"ha":1068,"x_min":0,"x_max":0,"o":"m 1217 975 b 1231 903 1226 961 1231 933 b 1072 718 1231 778 1163 718 b 974 739 1040 718 1007 725 b 996 557 989 694 996 625 b 467 -32 996 189 796 -32 b 89 360 218 -32 89 93 b 633 953 89 696 293 953 b 901 858 792 953 857 897 b 1017 810 949 818 989 810 b 1122 936 1101 810 1122 889 b 1119 975 1122 949 1121 967 m 478 133 b 803 532 656 133 803 261 b 604 782 803 715 735 782 b 281 375 397 782 281 613 b 478 133 281 228 325 133 m 326 -286 l 357 -114 l 538 -114 l 507 -286 "},"ợ":{"ha":904,"x_min":0,"x_max":0,"o":"m 1014 754 b 1028 683 1024 740 1028 711 b 876 497 1028 601 992 497 b 775 517 846 497 801 504 b 788 407 783 489 788 444 b 372 -18 788 160 613 -18 b 74 282 178 -18 74 97 b 497 701 74 521 247 701 b 699 638 607 701 660 667 b 814 589 749 601 781 589 b 919 715 899 589 919 668 b 917 754 919 728 918 746 m 393 133 b 604 389 536 133 604 238 b 472 549 604 508 561 549 b 261 293 328 549 261 444 b 393 133 261 176 300 133 m 242 -286 l 272 -114 l 453 -114 l 422 -286 "},"Ụ":{"ha":814,"x_min":0,"x_max":0,"o":"m 740 922 l 938 922 l 829 307 b 390 -32 790 83 632 -32 b 76 217 194 -32 76 49 b 85 296 76 240 79 268 l 194 922 l 390 922 l 283 314 b 278 256 279 293 278 274 b 415 128 278 165 328 128 b 632 307 539 128 611 186 m 274 -286 l 304 -114 l 485 -114 l 454 -286 "},"ụ":{"ha":694,"x_min":0,"x_max":0,"o":"m 481 0 l 497 96 b 265 -18 436 18 360 -18 b 72 176 147 -18 72 58 b 78 233 72 194 74 214 l 157 683 l 338 683 l 263 261 b 257 214 260 243 257 228 b 356 133 257 150 292 133 b 524 289 444 133 507 199 l 593 683 l 772 683 l 651 0 m 225 -286 l 256 -114 l 436 -114 l 406 -286 "},"Ủ":{"ha":814,"x_min":0,"x_max":0,"o":"m 740 922 l 938 922 l 829 307 b 390 -32 790 83 632 -32 b 76 217 194 -32 76 49 b 85 296 76 240 79 268 l 194 922 l 390 922 l 283 314 b 278 256 279 293 278 274 b 415 128 278 165 328 128 b 632 307 539 128 611 186 m 550 1046 b 599 1119 557 1078 568 1103 b 638 1165 624 1133 638 1142 b 608 1185 638 1176 629 1185 b 547 1164 593 1185 575 1181 l 536 1240 b 640 1275 568 1264 614 1275 b 729 1204 697 1275 729 1247 b 675 1114 729 1167 713 1135 b 619 1046 649 1099 626 1078 "},"ủ":{"ha":694,"x_min":0,"x_max":0,"o":"m 481 0 l 497 96 b 265 -18 436 18 360 -18 b 72 176 147 -18 72 58 b 78 233 72 194 74 214 l 157 683 l 338 683 l 263 261 b 257 214 260 243 257 228 b 356 133 257 150 292 133 b 524 289 444 133 507 199 l 593 683 l 772 683 l 651 0 m 451 807 b 500 881 458 839 469 864 b 539 926 525 894 539 903 b 510 946 539 938 531 946 b 449 925 494 946 476 942 l 438 1001 b 542 1036 469 1025 515 1036 b 631 965 599 1036 631 1008 b 576 875 631 928 614 896 b 521 807 550 860 528 839 "},"Ứ":{"ha":1039,"x_min":0,"x_max":0,"o":"m 740 922 l 938 922 l 919 821 b 985 810 943 813 972 810 b 1081 938 1054 810 1081 890 b 1078 975 1081 949 1079 967 l 1175 975 b 1189 903 1185 961 1189 932 b 1028 717 1189 778 1117 717 b 908 753 989 717 947 729 l 829 307 b 392 -32 790 88 635 -32 b 76 215 193 -32 76 49 b 85 296 76 240 79 268 l 194 922 l 390 922 l 283 314 b 276 250 279 292 276 271 b 419 128 276 161 329 128 b 632 307 538 128 611 186 m 500 1008 l 469 1085 l 788 1253 l 832 1139 "},"ứ":{"ha":886,"x_min":0,"x_max":0,"o":"m 396 769 l 365 846 l 683 1014 l 728 900 m 481 0 l 497 96 b 269 -18 435 15 353 -18 b 72 176 143 -18 72 58 b 78 233 72 193 74 214 l 157 683 l 338 683 l 263 261 b 258 218 260 244 258 231 b 349 133 258 157 290 133 b 524 289 444 133 507 196 l 593 683 l 772 683 l 756 594 b 806 589 775 590 797 589 b 900 717 872 589 900 669 b 897 754 900 728 899 746 l 994 754 b 1008 682 1004 740 1008 713 b 849 497 1008 558 939 497 b 743 522 815 497 779 506 l 651 0 "},"Ừ":{"ha":1039,"x_min":0,"x_max":0,"o":"m 740 922 l 938 922 l 919 821 b 985 810 943 813 972 810 b 1081 938 1054 810 1081 890 b 1078 975 1081 949 1079 967 l 1175 975 b 1189 903 1185 961 1189 932 b 1028 717 1189 778 1117 717 b 908 753 989 717 947 729 l 829 307 b 392 -32 790 88 635 -32 b 76 215 193 -32 76 49 b 85 296 76 240 79 268 l 194 922 l 390 922 l 283 314 b 276 250 279 292 276 271 b 419 128 276 161 329 128 b 632 307 538 128 611 186 m 397 1139 l 483 1253 l 740 1085 l 685 1008 "},"ừ":{"ha":886,"x_min":0,"x_max":0,"o":"m 290 900 l 376 1014 l 633 846 l 578 769 m 481 0 l 497 96 b 269 -18 435 15 353 -18 b 72 176 143 -18 72 58 b 78 233 72 193 74 214 l 157 683 l 338 683 l 263 261 b 258 218 260 244 258 231 b 349 133 258 157 290 133 b 524 289 444 133 507 196 l 593 683 l 772 683 l 756 594 b 806 589 775 590 797 589 b 900 717 872 589 900 669 b 897 754 900 728 899 746 l 994 754 b 1008 682 1004 740 1008 713 b 849 497 1008 558 939 497 b 743 522 815 497 779 506 l 651 0 "},"Ử":{"ha":1039,"x_min":0,"x_max":0,"o":"m 740 922 l 938 922 l 919 821 b 985 810 943 813 972 810 b 1081 938 1054 810 1081 890 b 1078 975 1081 949 1079 967 l 1175 975 b 1189 903 1185 961 1189 932 b 1028 717 1189 778 1117 717 b 908 753 989 717 947 729 l 829 307 b 392 -32 790 88 635 -32 b 76 215 193 -32 76 49 b 85 296 76 240 79 268 l 194 922 l 390 922 l 283 314 b 276 250 279 292 276 271 b 419 128 276 161 329 128 b 632 307 538 128 611 186 m 567 1046 b 615 1119 574 1078 585 1103 b 654 1165 640 1133 654 1142 b 625 1185 654 1176 646 1185 b 564 1164 610 1185 592 1181 l 553 1240 b 657 1275 585 1264 631 1275 b 746 1204 714 1275 746 1247 b 692 1114 746 1167 729 1135 b 636 1046 665 1099 643 1078 "},"ử":{"ha":886,"x_min":0,"x_max":0,"o":"m 481 0 l 497 96 b 269 -18 435 15 353 -18 b 72 176 143 -18 72 58 b 78 233 72 193 74 214 l 157 683 l 338 683 l 263 261 b 258 218 260 244 258 231 b 349 133 258 157 290 133 b 524 289 444 133 507 196 l 593 683 l 772 683 l 756 594 b 806 589 775 590 797 589 b 900 717 872 589 900 669 b 897 754 900 728 899 746 l 994 754 b 1008 682 1004 740 1008 713 b 849 497 1008 558 939 497 b 743 522 815 497 779 506 l 651 0 m 453 807 b 501 881 460 839 471 864 b 540 926 526 894 540 903 b 511 946 540 938 532 946 b 450 925 496 946 478 942 l 439 1001 b 543 1036 471 1025 517 1036 b 632 965 600 1036 632 1008 b 578 875 632 928 615 896 b 522 807 551 860 529 839 "},"Ữ":{"ha":1039,"x_min":0,"x_max":0,"o":"m 740 922 l 938 922 l 919 821 b 985 810 943 813 972 810 b 1081 938 1054 810 1081 890 b 1078 975 1081 949 1079 967 l 1175 975 b 1189 903 1185 961 1189 932 b 1028 717 1189 778 1117 717 b 908 753 989 717 947 729 l 829 307 b 392 -32 790 88 635 -32 b 76 215 193 -32 76 49 b 85 296 76 240 79 268 l 194 922 l 390 922 l 283 314 b 276 250 279 292 276 271 b 419 128 276 161 329 128 b 632 307 538 128 611 186 m 856 1175 b 681 1039 807 1075 740 1039 b 513 1101 610 1039 572 1101 b 449 1040 501 1101 474 1092 l 361 1092 b 518 1214 407 1182 461 1214 b 690 1147 603 1214 638 1147 b 758 1213 707 1147 740 1164 "},"ữ":{"ha":886,"x_min":0,"x_max":0,"o":"m 757 936 b 582 800 708 836 642 800 b 414 863 511 800 474 863 b 350 801 403 863 375 853 l 263 853 b 419 975 308 943 363 975 b 592 908 504 975 539 908 b 660 974 608 908 642 925 m 481 0 l 497 96 b 269 -18 435 15 353 -18 b 72 176 143 -18 72 58 b 78 233 72 193 74 214 l 157 683 l 338 683 l 263 261 b 258 218 260 244 258 231 b 349 133 258 157 290 133 b 524 289 444 133 507 196 l 593 683 l 772 683 l 756 594 b 806 589 775 590 797 589 b 900 717 872 589 900 669 b 897 754 900 728 899 746 l 994 754 b 1008 682 1004 740 1008 713 b 849 497 1008 558 939 497 b 743 522 815 497 779 506 l 651 0 "},"Ự":{"ha":1039,"x_min":0,"x_max":0,"o":"m 740 922 l 938 922 l 919 821 b 985 810 943 813 972 810 b 1081 938 1054 810 1081 890 b 1078 975 1081 949 1079 967 l 1175 975 b 1189 903 1185 961 1189 932 b 1028 717 1189 778 1117 717 b 908 753 989 717 947 729 l 829 307 b 392 -32 790 88 635 -32 b 76 215 193 -32 76 49 b 85 296 76 240 79 268 l 194 922 l 390 922 l 283 314 b 276 250 279 292 276 271 b 419 128 276 161 329 128 b 632 307 538 128 611 186 m 276 -286 l 307 -114 l 488 -114 l 457 -286 "},"ự":{"ha":886,"x_min":0,"x_max":0,"o":"m 481 0 l 497 96 b 269 -18 435 15 353 -18 b 72 176 143 -18 72 58 b 78 233 72 193 74 214 l 157 683 l 338 683 l 263 261 b 258 218 260 244 258 231 b 349 133 258 157 290 133 b 524 289 444 133 507 196 l 593 683 l 772 683 l 756 594 b 806 589 775 590 797 589 b 900 717 872 589 900 669 b 897 754 900 728 899 746 l 994 754 b 1008 682 1004 740 1008 713 b 849 497 1008 558 939 497 b 743 522 815 497 779 506 l 651 0 m 211 -286 l 242 -114 l 422 -114 l 392 -286 "},"Ỳ":{"ha":836,"x_min":0,"x_max":0,"o":"m 324 0 l 385 349 l 167 922 l 388 922 l 515 547 l 761 922 l 988 922 l 578 346 l 517 0 m 411 1139 l 497 1253 l 754 1085 l 699 1008 "},"ỳ":{"ha":697,"x_min":0,"x_max":0,"o":"m 486 90 b 285 -7 451 29 369 -7 b 74 188 158 -7 74 68 b 79 240 74 204 76 222 l 157 683 l 338 683 l 264 267 b 258 219 261 249 258 233 b 357 139 258 156 293 139 b 518 267 439 139 506 193 l 592 683 l 772 683 l 649 -18 b 281 -324 614 -211 453 -324 b 22 -106 107 -324 22 -242 b 29 -37 22 -85 25 -61 l 197 -37 b 194 -72 194 -50 194 -61 b 317 -168 194 -137 235 -168 b 467 -21 382 -168 451 -111 m 290 900 l 376 1014 l 633 846 l 578 769 "},"Ỷ":{"ha":836,"x_min":0,"x_max":0,"o":"m 324 0 l 385 349 l 167 922 l 388 922 l 515 547 l 761 922 l 988 922 l 578 346 l 517 0 m 564 1046 b 613 1119 571 1078 582 1103 b 651 1165 638 1133 651 1142 b 622 1185 651 1176 643 1185 b 561 1164 607 1185 589 1181 l 550 1240 b 654 1275 582 1264 628 1275 b 743 1204 711 1275 743 1247 b 689 1114 743 1167 726 1135 b 633 1046 663 1099 640 1078 "},"ỷ":{"ha":697,"x_min":0,"x_max":0,"o":"m 486 90 b 285 -7 451 29 369 -7 b 74 188 158 -7 74 68 b 79 240 74 204 76 222 l 157 683 l 338 683 l 264 267 b 258 219 261 249 258 233 b 357 139 258 156 293 139 b 518 267 439 139 506 193 l 592 683 l 772 683 l 649 -18 b 281 -324 614 -211 453 -324 b 22 -106 107 -324 22 -242 b 29 -37 22 -85 25 -61 l 197 -37 b 194 -72 194 -50 194 -61 b 317 -168 194 -137 235 -168 b 467 -21 382 -168 451 -111 m 453 807 b 501 881 460 839 471 864 b 540 926 526 894 540 903 b 511 946 540 938 532 946 b 450 925 496 946 478 942 l 439 1001 b 543 1036 471 1025 517 1036 b 632 965 600 1036 632 1008 b 578 875 632 928 615 896 b 522 807 551 860 529 839 "},"–":{"ha":606,"x_min":0,"x_max":0,"o":"m 81 357 l 106 497 l 668 497 l 643 357 "},"—":{"ha":857,"x_min":0,"x_max":0,"o":"m 81 357 l 106 497 l 919 497 l 894 357 "},"‘":{"ha":268,"x_min":0,"x_max":0,"o":"m 139 611 l 164 753 b 401 1015 192 910 253 985 l 390 946 b 257 799 315 928 274 886 l 364 799 l 331 611 "},"’":{"ha":268,"x_min":0,"x_max":0,"o":"m 143 625 b 276 772 218 643 260 685 l 169 772 l 203 960 l 394 960 l 369 818 b 132 556 342 661 281 586 "},"‚":{"ha":283,"x_min":0,"x_max":0,"o":"m 31 -140 b 154 0 99 -124 138 -83 l 56 0 l 86 179 l 263 179 l 239 43 b 18 -206 213 -106 157 -176 "},"“":{"ha":536,"x_min":0,"x_max":0,"o":"m 407 611 l 432 753 b 669 1015 460 910 521 985 l 658 946 b 525 799 583 928 542 886 l 632 799 l 599 611 m 139 611 l 164 753 b 401 1015 192 910 253 985 l 390 946 b 257 799 315 928 274 886 l 364 799 l 331 611 "},"”":{"ha":536,"x_min":0,"x_max":0,"o":"m 143 625 b 276 772 218 643 260 685 l 169 772 l 203 960 l 394 960 l 369 818 b 132 556 342 661 281 586 m 414 625 b 547 772 489 643 531 685 l 440 772 l 474 960 l 665 960 l 640 818 b 403 556 613 661 551 586 "},"„":{"ha":567,"x_min":0,"x_max":0,"o":"m 314 -140 b 438 0 382 -124 421 -83 l 339 0 l 369 179 l 546 179 l 522 43 b 301 -206 496 -106 440 -176 m 31 -140 b 154 0 99 -124 138 -83 l 56 0 l 86 179 l 263 179 l 239 43 b 18 -206 213 -106 157 -176 "},"†":{"ha":740,"x_min":0,"x_max":0,"o":"m 303 0 l 410 604 l 156 604 l 175 715 l 429 715 l 465 922 l 607 922 l 571 715 l 814 715 l 794 604 l 551 604 l 444 0 "},"‡":{"ha":740,"x_min":0,"x_max":0,"o":"m 481 207 l 444 0 l 306 0 l 342 207 l 89 207 l 108 317 l 361 317 l 413 607 l 160 607 l 178 715 l 431 715 l 468 922 l 607 922 l 569 715 l 813 715 l 794 607 l 551 607 l 500 317 l 743 317 l 724 207 "},"•":{"ha":586,"x_min":0,"x_max":0,"o":"m 599 476 b 374 279 599 364 499 279 b 146 476 244 279 146 364 b 374 675 146 592 244 675 b 599 476 499 675 599 592 "},"…":{"ha":1300,"x_min":0,"x_max":0,"o":"m 551 0 l 585 188 l 778 188 l 744 0 m 1072 0 l 1106 188 l 1299 188 l 1265 0 m 32 0 l 65 188 l 258 188 l 225 0 "},"‰":{"ha":1190,"x_min":0,"x_max":0,"o":"m 31 -28 l 844 950 l 939 950 l 124 -28 m 632 43 b 728 215 676 43 706 90 b 739 315 735 257 739 289 b 693 390 739 368 724 390 b 597 217 650 390 619 344 b 586 118 590 176 586 144 b 632 43 586 64 603 43 m 617 -31 b 493 122 539 -31 493 17 b 503 218 493 150 496 182 b 703 463 533 392 604 463 b 829 313 782 463 829 418 b 617 -31 829 79 722 -31 m 1018 43 b 1114 215 1063 43 1092 90 b 1125 315 1121 257 1125 289 b 1079 390 1125 368 1110 390 b 983 217 1036 390 1006 344 b 972 118 976 176 972 144 b 1018 43 972 64 989 43 m 1003 -31 b 879 122 925 -31 879 17 b 889 218 879 150 882 182 b 1089 463 919 392 990 463 b 1215 313 1168 463 1215 418 b 1003 -31 1215 79 1108 -31 m 279 533 b 375 706 324 533 353 581 b 386 806 382 747 386 779 b 340 881 386 858 371 881 b 244 707 297 881 267 835 b 233 608 238 667 233 635 b 279 533 233 554 250 533 m 264 460 b 140 613 186 460 140 507 b 150 708 140 640 143 672 b 350 953 181 882 251 953 b 476 803 429 953 476 908 b 264 460 476 569 369 460 "},"‹":{"ha":322,"x_min":0,"x_max":0,"o":"m 253 201 l 96 440 l 338 682 l 408 588 l 251 440 l 356 294 "},"›":{"ha":322,"x_min":0,"x_max":0,"o":"m 142 201 l 69 294 l 226 440 l 122 588 l 226 682 l 382 440 "},"⁄":{"ha":185,"x_min":0,"x_max":0,"o":"m -282 -28 l 532 950 l 626 950 l -189 -28 "},"⁰":{"ha":382,"x_min":0,"x_max":0,"o":"m 285 533 b 381 706 329 533 358 581 b 392 806 388 747 392 779 b 346 881 392 858 376 881 b 250 707 303 881 272 835 b 239 608 243 667 239 635 b 285 533 239 554 256 533 m 269 460 b 146 613 192 460 146 507 b 156 708 146 640 149 672 b 356 953 186 882 257 953 b 482 803 435 953 482 908 b 269 460 482 569 375 460 "},"⁴":{"ha":372,"x_min":0,"x_max":0,"o":"m 346 810 l 222 647 l 317 647 m 286 476 l 303 576 l 124 576 l 138 656 l 356 938 l 457 938 l 406 647 l 457 647 l 444 576 l 393 576 l 376 476 "},"⁵":{"ha":382,"x_min":0,"x_max":0,"o":"m 282 861 l 256 738 b 350 769 283 763 319 769 b 464 653 419 769 464 732 b 272 460 464 540 372 460 b 142 575 196 460 142 506 b 143 594 142 581 142 588 l 233 594 b 232 583 233 589 232 590 b 285 533 232 554 251 533 b 371 639 338 533 371 582 b 319 697 371 678 356 697 b 249 657 288 697 265 683 l 156 657 l 214 938 l 497 938 l 485 861 "},"⁶":{"ha":379,"x_min":0,"x_max":0,"o":"m 283 533 b 367 642 333 533 367 586 b 314 707 367 685 346 707 b 228 601 268 707 228 661 b 283 533 228 560 247 533 m 394 838 b 354 881 394 865 383 881 b 249 735 303 881 271 833 b 349 778 275 760 306 778 b 457 658 414 778 457 736 b 265 460 457 557 383 460 b 144 621 181 460 144 511 b 150 692 144 643 146 661 b 369 953 178 878 269 953 b 483 838 444 953 483 911 "},"⁷":{"ha":374,"x_min":0,"x_max":0,"o":"m 169 476 b 399 857 203 608 282 746 l 174 857 l 188 938 l 510 938 l 497 868 b 263 476 375 753 293 614 "},"⁸":{"ha":385,"x_min":0,"x_max":0,"o":"m 282 535 b 365 625 336 535 365 574 b 311 683 365 661 350 683 b 229 590 256 683 229 639 b 282 535 229 553 244 535 m 321 754 b 392 831 365 754 392 790 b 346 879 392 861 376 879 b 276 803 303 879 276 846 b 321 754 276 772 290 754 m 410 728 b 458 632 442 713 458 678 b 269 460 458 536 383 460 b 133 579 178 460 133 510 b 229 724 133 642 169 697 b 193 799 203 739 193 768 b 361 953 193 885 265 953 b 476 851 436 953 476 911 b 410 728 476 807 454 749 "},"⁹":{"ha":379,"x_min":0,"x_max":0,"o":"m 308 706 b 394 813 354 706 394 751 b 340 879 394 853 376 879 b 256 769 289 879 256 824 b 308 706 256 728 276 706 m 229 568 b 269 532 229 544 243 532 b 374 678 319 532 351 579 b 274 635 349 653 317 635 b 165 754 210 635 165 675 b 357 953 165 858 242 953 b 478 792 442 953 478 903 b 472 721 478 769 476 751 b 253 460 449 558 369 460 b 139 575 178 460 139 501 l 229 575 "},"₀":{"ha":382,"x_min":0,"x_max":0,"o":"m 199 43 b 294 215 243 43 272 90 b 306 315 301 257 306 289 b 260 390 306 368 290 390 b 164 217 217 390 186 344 b 153 118 157 176 153 144 b 199 43 153 64 169 43 m 183 -31 b 60 122 106 -31 60 17 b 69 218 60 150 63 182 b 269 463 100 392 171 463 b 396 313 349 463 396 418 b 183 -31 396 79 289 -31 "},"₁":{"ha":247,"x_min":0,"x_max":0,"o":"m 115 -14 l 171 304 l 76 304 l 88 367 b 213 447 167 367 197 393 l 286 447 l 206 -14 "},"₂":{"ha":364,"x_min":0,"x_max":0,"o":"m 21 -14 b 200 215 39 89 75 132 b 306 336 264 257 306 285 b 251 385 306 374 283 385 b 169 303 206 385 181 363 l 82 303 b 265 463 101 406 164 463 b 396 350 342 463 396 429 b 228 147 396 242 292 192 b 150 64 171 108 157 85 l 349 64 l 335 -14 "},"₃":{"ha":374,"x_min":0,"x_max":0,"o":"m 193 256 b 300 338 283 256 300 299 b 254 390 300 374 285 390 b 175 314 214 390 185 363 l 92 314 b 267 463 108 403 179 463 b 389 358 338 463 389 422 b 315 233 389 314 365 258 b 367 144 347 218 367 194 b 175 -31 367 40 279 -31 b 46 85 93 -31 46 13 b 50 121 46 96 47 108 l 138 121 b 135 96 136 111 135 104 b 189 44 135 61 156 44 b 274 138 242 44 274 89 b 182 193 274 179 250 193 "},"₄":{"ha":372,"x_min":0,"x_max":0,"o":"m 260 319 l 136 157 l 231 157 m 200 -14 l 217 86 l 38 86 l 51 165 l 269 447 l 371 447 l 319 157 l 371 157 l 358 86 l 307 86 l 290 -14 "},"₅":{"ha":382,"x_min":0,"x_max":0,"o":"m 196 371 l 169 247 b 264 279 197 272 233 279 b 378 163 333 279 378 242 b 186 -31 378 50 286 -31 b 56 85 110 -31 56 15 b 57 104 56 90 56 97 l 147 104 b 146 93 147 99 146 100 b 199 43 146 64 165 43 b 285 149 251 43 285 92 b 233 207 285 188 269 207 b 163 167 201 207 179 193 l 69 167 l 128 447 l 411 447 l 399 371 "},"₆":{"ha":379,"x_min":0,"x_max":0,"o":"m 197 43 b 281 151 247 43 281 96 b 228 217 281 194 260 217 b 142 111 182 217 142 171 b 197 43 142 69 161 43 m 308 347 b 268 390 308 375 297 390 b 163 244 217 390 185 343 b 263 288 189 269 219 288 b 371 168 328 288 371 246 b 179 -31 371 67 297 -31 b 58 131 94 -31 58 21 b 64 201 58 153 60 171 b 283 463 92 388 183 463 b 397 347 358 463 397 421 "},"₇":{"ha":374,"x_min":0,"x_max":0,"o":"m 83 -14 b 313 367 117 118 196 256 l 88 367 l 101 447 l 424 447 l 411 378 b 176 -14 289 263 207 124 "},"₈":{"ha":385,"x_min":0,"x_max":0,"o":"m 196 44 b 279 135 250 44 279 83 b 225 193 279 171 264 193 b 143 100 169 193 143 149 b 196 44 143 63 158 44 m 235 264 b 306 340 279 264 306 300 b 260 389 306 371 290 389 b 190 313 217 389 190 356 b 235 264 190 282 204 264 m 324 238 b 372 142 356 222 372 188 b 183 -31 372 46 297 -31 b 47 89 92 -31 47 19 b 143 233 47 151 83 207 b 107 308 117 249 107 278 b 275 463 107 394 179 463 b 390 361 350 463 390 421 b 324 238 390 317 368 258 "},"₉":{"ha":379,"x_min":0,"x_max":0,"o":"m 222 215 b 308 322 268 215 308 261 b 254 389 308 363 290 389 b 169 279 203 389 169 333 b 222 215 169 238 190 215 m 143 78 b 183 42 143 54 157 42 b 288 188 233 42 265 89 b 188 144 263 163 231 144 b 79 264 124 144 79 185 b 271 463 79 368 156 463 b 392 301 356 463 392 413 b 386 231 392 279 390 261 b 167 -31 363 68 283 -31 b 53 85 92 -31 53 11 l 143 85 "}}}
